<svg xmlns="http://www.w3.org/2000/svg" width="21" height="17" viewBox="0 0 21 17">
  <path fill-opacity=".8" d="M1.415 7.308C7.877 4.543 16.239 1.173 17.394.706c3.028-1.22 3.957-.987 3.494 1.717-.333 1.944-1.293 8.378-2.058 12.384-.454 2.375-1.473 2.656-3.074 1.629-.77-.495-4.658-2.995-5.502-3.582-.77-.535-1.832-1.179-.5-2.446.474-.452 3.581-3.337 6.003-5.583.317-.295-.082-.78-.448-.543a2928.386 2928.386 0 0 0-8.364 5.406c-.87.574-1.705.837-3.205.418-1.133-.316-2.24-.694-2.67-.837-1.66-.554-1.266-1.272.345-1.961z"/>
</svg>
