<svg xmlns="http://www.w3.org/2000/svg" xmlns:xlink="http://www.w3.org/1999/xlink" width="124" height="59" viewBox="0 0 124 59">
  <defs>
    <path id="a" d="M.021.062h17.373v17.273H.021z"/>
  </defs>
  <g fill="none" fill-rule="evenodd">
    <path fill="#333" fill-rule="nonzero" d="M5.568 55.176c2.128 0 3.76-1.92 3.76-4.176 0-2.256-1.632-4.176-3.76-4.176-1.104 0-1.952.56-2.32 1.072V43H1.056v12h2.192v-.896c.368.512 1.216 1.072 2.32 1.072zm-.48-2c-1.216 0-2.016-.912-2.016-2.176 0-1.264.8-2.176 2.016-2.176s2.016.912 2.016 2.176c0 1.264-.8 2.176-2.016 2.176zm8.88 5.168L18.992 47h-2.416l-2.128 5.184L12.304 47h-2.4l3.36 7.552-1.68 3.792h2.384zM25.056 55l1.088-2.592h4.848L32.096 55h2.432l-4.912-11.36h-2.064L22.656 55h2.4zm5.072-4.624h-3.12l1.568-3.68 1.552 3.68zM40.08 55l3.552-8h-2.448l-2.112 5.12L36.96 47h-2.416l3.536 8h2zm8.304.176c2.032 0 3.632-1.168 4.096-2.784h-2.288c-.256.56-.928.88-1.696.88-1.376 0-2.08-.816-2.16-1.76h6.24c.128-3.008-1.84-4.688-4.176-4.688-2.432 0-4.208 1.776-4.208 4.16 0 2.432 1.744 4.192 4.192 4.192zm1.792-5.104h-3.76c.208-.896.896-1.472 1.92-1.472.736 0 1.584.4 1.84 1.472zM56.368 55v-3.904c0-1.536.752-2.272 1.776-2.272.912 0 1.408.704 1.408 1.856V55h2.192v-4.688c0-2.08-1.152-3.488-3.088-3.488-1.04 0-1.856.448-2.288 1.088V47h-2.192v8h2.192zm11.264.096c.624 0 1.024-.064 1.392-.176v-1.936c-.256.096-.56.144-.896.144-.96 0-1.36-.384-1.36-1.36V48.92h2.256V47h-2.256v-2.224h-2.192V47H62.96v1.92h1.616v3.28c0 1.968 1.36 2.896 3.056 2.896zm4.048-9.408c.784 0 1.408-.624 1.408-1.392 0-.768-.624-1.392-1.408-1.392-.752 0-1.392.624-1.392 1.392 0 .768.64 1.392 1.392 1.392zM72.784 55v-8h-2.192v8h2.192zm5.808.176c2.208 0 3.664-1.392 4.096-3.232h-2.272c-.304.72-.88 1.248-1.824 1.248-1.152 0-2-.848-2-2.192 0-1.344.848-2.192 2-2.192.944 0 1.52.528 1.824 1.248h2.272c-.432-1.84-1.888-3.232-4.096-3.232-2.432 0-4.208 1.856-4.208 4.176 0 2.32 1.776 4.176 4.208 4.176zm8.832 0c1.104 0 1.936-.56 2.304-1.072V55h2.192v-8h-2.192v.896c-.368-.512-1.2-1.072-2.304-1.072-2.128 0-3.76 1.92-3.76 4.176 0 2.256 1.632 4.176 3.76 4.176zm.464-2c-1.216 0-2.016-.912-2.016-2.176 0-1.264.8-2.176 2.016-2.176s2.016.912 2.016 2.176c0 1.264-.8 2.176-2.016 2.176z"/>
    <path fill="#001935" d="M0 0v32h6.377V19.065h9.896v-6.22H6.377V6.22H19V0zm36.544 20.803c0-3.456-2.392-5.968-5.597-5.968-3.25 0-5.641 2.512-5.641 5.968s2.392 5.968 5.641 5.968c3.205 0 5.597-2.512 5.597-5.968m-17.467 0c0-6.553 5.326-11.713 11.87-11.713 6.545 0 11.87 5.161 11.87 11.713 0 6.597-5.325 11.712-11.87 11.712-6.544 0-11.87-5.115-11.87-11.712m25.421 0c0-6.507 5.01-11.713 11.87-11.713 6.229 0 10.336 3.904 11.554 9.065h-6.409c-.857-2.02-2.482-3.5-5.145-3.5-3.25 0-5.642 2.378-5.642 6.148 0 3.77 2.392 6.148 5.642 6.148 2.663 0 4.288-1.481 5.145-3.5h6.41c-1.22 5.16-5.326 9.064-11.555 9.064-6.86 0-11.87-5.205-11.87-11.712m25.948 1.795V9.584h6.183v11.982c0 3.41 1.128 5.34 3.836 5.34 2.754 0 4.65-2.02 4.65-6.372V9.584h6.183v22.438h-6.184v-2.558c-1.218 1.795-3.295 3.051-6.183 3.051-5.416 0-8.485-3.993-8.485-9.917m23.298 2.289h6.454c.226 1.974 1.941 2.917 3.927 2.917 1.94 0 2.934-.719 2.934-1.795 0-1.212-.858-1.75-2.844-2.244l-4.242-1.077c-3.973-1.032-5.733-3.68-5.733-6.956 0-3.86 3.476-6.642 9.072-6.642 4.92 0 8.757 2.603 9.118 7.09h-6.23c-.316-1.75-1.58-2.288-2.979-2.288-1.58 0-2.663.628-2.663 1.705 0 1.257 1.174 1.75 2.573 2.065l3.972 1.077c4.468 1.122 6.273 3.41 6.273 6.955 0 4.219-3.971 6.821-9.433 6.821-5.822 0-9.974-3.23-10.2-7.628"/>
    <g transform="translate(105.75 24.855)">
      <mask id="b" fill="#fff">
        <use xlink:href="#a"/>
      </mask>
      <path fill="#001935" d="M11.165.062v11.08H.021v6.193h17.373V.062z" mask="url(#b)"/>
    </g>
  </g>
</svg>
