<svg xmlns="http://www.w3.org/2000/svg" width="153" height="31" viewBox="0 0 153 31">
  <g fill="none">
    <path fill="#FBC518" d="m20.096 24-2.464-5.6H5.728L3.264 24H-.032L10.112 1.6h3.168L23.456 24h-3.36zM6.848 15.84h9.664L11.68 4.864 6.848 15.84zm30.724-8.8h3.008L33.156 24H30.02L22.596 7.04h3.2l5.824 13.6 5.952-13.6zm20.836 8.576c0 .256-.032.64-.064.928h-13.76c.384 2.976 2.784 4.96 6.144 4.96 1.984 0 3.648-.672 4.896-2.048l1.696 1.984c-1.536 1.792-3.872 2.752-6.688 2.752-5.472 0-9.12-3.616-9.12-8.672 0-5.024 3.616-8.64 8.512-8.64 4.896 0 8.384 3.52 8.384 8.736zm-8.384-6.144c-2.944 0-5.12 1.984-5.44 4.864h10.88c-.32-2.848-2.464-4.864-5.44-4.864z"/>
    <path fill="#333" d="M68.976 24.128c-2.752 0-5.376-.928-6.688-2.144l.736-1.28c1.28 1.088 3.552 2.016 6.016 2.016 3.52 0 4.928-1.248 4.928-3.136 0-4.864-11.072-1.28-11.072-7.84 0-2.528 2.112-4.576 6.336-4.576 2.112 0 4.416.64 5.728 1.632l-.736 1.28c-1.408-1.024-3.232-1.504-5.024-1.504-3.264 0-4.704 1.344-4.704 3.136 0 5.024 11.072 1.472 11.072 7.84 0 2.72-2.336 4.576-6.592 4.576zm19.556-16.96c4.704 0 8.256 3.488 8.256 8.48 0 5.024-3.552 8.48-8.256 8.48-2.944 0-5.44-1.44-6.784-3.936v10.016h-1.6V7.296h1.536v3.936c1.312-2.56 3.84-4.064 6.848-4.064zm-.096 15.52c3.84 0 6.752-2.848 6.752-7.04s-2.912-7.04-6.752-7.04-6.72 2.848-6.72 7.04 2.88 7.04 6.72 7.04zm14.948-11.744c1.024-2.432 3.232-3.776 6.368-3.776v1.568c-.128 0-.256-.032-.384-.032-3.712 0-5.92 2.464-5.92 6.592V24h-1.6V7.296h1.536v3.648zm11.684-7.712c-.736 0-1.312-.576-1.312-1.28 0-.704.576-1.312 1.312-1.312.736 0 1.312.576 1.312 1.28 0 .736-.576 1.312-1.312 1.312zm-.8 20.768V7.296h1.6V24h-1.6zM130.88 7.168c4.064 0 6.784 2.4 6.784 7.072V24h-1.6v-9.632c0-3.776-2.016-5.76-5.408-5.76-3.936 0-6.336 2.528-6.336 6.496V24h-1.6V7.296h1.536v3.616c1.12-2.336 3.456-3.744 6.624-3.744zm21.092 14.656.672 1.12c-.832.8-2.176 1.184-3.424 1.184-2.944 0-4.544-1.728-4.544-4.544V8.672h-3.072V7.296h3.072V3.648h1.6v3.648h5.312v1.376h-5.312v10.752c0 2.144 1.056 3.328 3.104 3.328.992 0 1.92-.32 2.592-.928z"/>
  </g>
</svg>
