<svg xmlns="http://www.w3.org/2000/svg" width="385" height="283" fill="none" viewBox="0 0 385 283">
  <path fill="#E6E6E6" d="m34.288 261.468-1.032-4.075a52.553 52.553 0 0 0-5.604-2.014l-.13 1.893-.528-2.086c-2.362-.676-3.969-.973-3.969-.973s2.17 8.267 6.723 14.588l5.303.933-4.12.595c.573.69 1.188 1.344 1.843 1.957 6.622 6.157 13.997 8.982 16.474 6.31 2.476-2.673-.885-9.831-7.506-15.988a28.115 28.115 0 0 0-7.213-4.646l-.242 3.506z"/>
  <path fill="#E6E6E6" d="m54.69 264.312 2.715-1.474a38.83 38.83 0 0 0 .422-4.359l-1.37.251 1.389-.755a34.918 34.918 0 0 0-.023-3.005s-5.493 3.046-9.17 7.436l.292 3.949-1.167-2.828c-.388.533-.742 1.09-1.06 1.668-3.188 5.836-3.869 11.604-1.52 12.885 2.349 1.28 6.837-2.413 10.025-8.249a20.71 20.71 0 0 0 2.006-5.983l-2.538.464zm64.895-.224-.969-3.83a49.983 49.983 0 0 0-5.267-1.893l-.123 1.78-.496-1.961c-2.22-.635-3.73-.914-3.73-.914s2.04 7.77 6.318 13.71l4.985.878-3.873.559a20.08 20.08 0 0 0 1.733 1.839c6.223 5.787 13.155 8.442 15.483 5.931 2.327-2.512-.831-9.24-7.055-15.027a26.446 26.446 0 0 0-6.779-4.367l-.227 3.295z"/>
  <path fill="#E6E6E6" d="m128.804 259.929 1.146-3.781a49.76 49.76 0 0 0-3.532-4.348l-1.023 1.46.587-1.935c-1.573-1.693-2.721-2.715-2.721-2.715s-2.264 7.708-1.667 15.009l3.815 3.332-3.604-1.526c.127.834.305 1.659.534 2.471 2.342 8.177 6.906 14.039 10.195 13.094 3.288-.945 4.056-8.339 1.714-16.516a26.517 26.517 0 0 0-3.55-7.249l-1.894 2.704zm151.844 6.223-.488-1.93a24.965 24.965 0 0 0-2.654-.954l-.062.897-.25-.988a22.484 22.484 0 0 0-1.88-.461 24.038 24.038 0 0 0 3.184 6.909l2.512.442-1.951.282c.271.327.563.636.873.927 3.136 2.916 6.629 4.254 7.802 2.988 1.173-1.266-.419-4.656-3.555-7.572a13.351 13.351 0 0 0-3.416-2.201l-.115 1.661z"/>
  <path fill="#E6E6E6" d="m285.295 264.056.578-1.905a25.105 25.105 0 0 0-1.78-2.191l-.515.736.295-.976c-.792-.853-1.371-1.367-1.371-1.367a24.067 24.067 0 0 0-.839 7.563l1.922 1.679-1.816-.769c.064.42.153.836.269 1.245 1.18 4.12 3.48 7.075 5.137 6.598 1.657-.476 2.044-4.202.864-8.323a13.346 13.346 0 0 0-1.789-3.652l-.955 1.362zm32.721.464-.643-2.539a32.687 32.687 0 0 0-3.491-1.255l-.081 1.18-.329-1.3C312.001 260.185 311 260 311 260s1.352 5.15 4.188 9.088l3.304.581-2.567.371c.357.43.74.837 1.148 1.219 4.125 3.836 8.72 5.596 10.263 3.931 1.542-1.665-.551-6.124-4.676-9.96a17.56 17.56 0 0 0-4.494-2.895l-.15 2.185zm20.402 3.623.42-1.765a20.5 20.5 0 0 1 2.28-.873l.053.82.214-.903c.961-.293 1.615-.422 1.615-.422s-.883 3.582-2.735 6.32l-2.158.404 1.677.258a9.33 9.33 0 0 1-.75.848c-2.694 2.667-5.695 3.891-6.703 2.733-1.007-1.157.36-4.258 3.054-6.926a11.387 11.387 0 0 1 2.935-2.013l.098 1.519z"/>
  <path fill="#E6E6E6" d="m328.855 260.061.759-2.506a32.83 32.83 0 0 0-2.341-2.882l-.678.968.389-1.283c-1.042-1.122-1.803-1.799-1.803-1.799s-1.501 5.109-1.105 9.948l2.529 2.208-2.389-1.012c.084.553.202 1.1.354 1.639 1.552 5.419 4.577 9.305 6.757 8.678 2.179-.626 2.688-5.527 1.136-10.947a17.57 17.57 0 0 0-2.353-4.804l-1.255 1.792zm-85.979-7.36 2.919-3.39a56.259 56.259 0 0 0-1.668-6.128l-1.729 1.043 1.495-1.736c-.854-2.476-1.576-4.062-1.576-4.062s-5.875 6.945-8.599 14.784l2.426 5.205-3.034-3.238c-.252.923-.445 1.86-.579 2.806-1.318 9.548.726 17.719 4.566 18.251 3.839.532 8.021-6.777 9.339-16.324a30.081 30.081 0 0 0-.359-9.141l-3.201 1.93z"/>
  <path fill="#E6E6E6" d="m252.722 258.572 4.248-1.391a56.282 56.282 0 0 0 1.733-6.109l-2.018-.003 2.175-.712c.547-2.562.747-4.294.747-4.294s-8.612 2.904-14.989 8.204l-.609 5.712-.927-4.343a22.858 22.858 0 0 0-1.943 2.102c-6.055 7.491-8.521 15.544-5.509 17.988 3.013 2.443 10.363-1.648 16.418-9.138a30.045 30.045 0 0 0 4.41-8.011l-3.736-.005zm39.364 7.599 1.298-1.507a25.173 25.173 0 0 0-.742-2.726l-.769.464.665-.772a22.736 22.736 0 0 0-.701-1.807 24.022 24.022 0 0 0-3.825 6.575l1.08 2.315-1.35-1.44c-.112.411-.198.827-.257 1.248-.587 4.247.323 7.881 2.03 8.117 1.708.237 3.567-3.014 4.154-7.26.154-1.355.1-2.726-.16-4.065l-1.423.858z"/>
  <path fill="#E6E6E6" d="m296.464 268.783 1.889-.619c.308-.89.565-1.797.771-2.717l-.897-.001.967-.317c.243-1.139.332-1.909.332-1.909a23.955 23.955 0 0 0-6.666 3.648l-.271 2.541-.413-1.932c-.307.293-.596.606-.864.935-2.693 3.332-3.789 6.913-2.45 8 1.34 1.087 4.609-.733 7.302-4.064a13.338 13.338 0 0 0 1.961-3.563l-1.661-.002zM385 87.063C384.378 38.81 359.805 0 329.58 0c-18.164 0-34.287 14.016-44.398 35.674l11.887 29.88-16.428-18.417c-4.144 12.461-6.496 26.689-6.496 41.799a136.494 136.494 0 0 0 4.19 33.966l31.858-5.145-28.511 15.97c9.289 25.51 26.266 42.933 45.834 44.082l-3.771 102.777 11.67.418-2.494-103.298c27.865-2.658 50.186-38.335 51.974-82.983l-19.256-10.787L385 87.063z"/>
  <path fill="#0D1724" d="m183.188 84.134 15.335 2.702 5.112-25.668-12.354-5.403-8.093 28.369z"/>
  <path fill="#2F2E41" d="m201.627 88.24 15.335 2.701 5.112-25.667-12.353-5.404-8.094 28.37z"/>
  <path fill="#F7C7CE" d="M219.898 253.421v10.673h7.786l-.819-10.263-6.967-.41zm-40.569 0v10.673h-7.786l.82-10.263 6.966-.41z"/>
  <path fill="#0D1724" d="m182.198 154.49-6.226 38.011a227.341 227.341 0 0 0-2.865 29.252l-1.154 34.951 8.196-.821 6.146-39.818s15.981-59.112 21.718-47.207c5.737 11.904 8.606 49.67 8.606 49.67l2.458 36.945h9.015l.82-48.439s4.917-67.732-7.376-73.479l-39.338 20.935zm46.306 107.961s-9.016-6.157-9.835-1.231l-3.278 11.904s-4.918 9.442 5.737 9.442c10.654 0 7.376-6.979 7.376-6.979v-13.136zm-57.78 0s9.015-6.157 9.834-1.231l3.279 11.904s4.917 9.442-5.737 9.442-7.376-6.979-7.376-6.979v-13.136z"/>
  <path fill="#F7C7CE" d="M204.94 78.753c6.563 0 11.884-5.33 11.884-11.904 0-6.575-5.321-11.905-11.884-11.905-6.563 0-11.883 5.33-11.883 11.905 0 6.575 5.32 11.904 11.883 11.904z"/>
  <path fill="#F7C7CE" d="M197.359 71.98s1.229 11.493-4.918 13.956l10.245 12.315 13.522-9.441s-9.834-2.053-8.195-7.8c1.639-5.747 1.639-6.568 1.639-6.568l-12.293-2.462z"/>
  <path fill="#E6E6E6" d="M194.696 84.5s8.605 6.568 10.244 6.157c1.639-.41 4.918-4.925 4.918-4.925s12.088.205 17.005 3.489c4.918 3.284-4.712 23.603-4.712 23.603s2.663 9.237-.615 11.7c-3.278 2.463.82 8.62.82 8.62s-8.196 15.189-29.914 20.936c0 0-13.522 5.336-13.113 2.463.41-2.874 4.508-35.714 4.508-35.714V86.758l10.859-2.258z"/>
  <path fill="#0D1724" d="M194.69 52.698s-6.206 2.072-6.521 10.256a14.536 14.536 0 0 0 .431 3.886c.349 1.484.574 4.676-2.134 8.848a87.528 87.528 0 0 0-4.962 8.55l-.02.038 6.816.854 1.449-11.317a56.428 56.428 0 0 1 4.468-15.889l.047-.105s2.982 5.548 8.945 5.548l-2.129-2.134s9.371 3.84 12.779 3.84c0 0 2.556 1.707 0 4.268-2.556 2.56-7.668 8.535-4.686 13.229 2.982 4.694.426 5.974.426 5.974l4.686-2.56 2.13-1.28v1.706l11.075-1.28s2.982-.427-3.408-7.681c0 0-1.687-2.817-.949-5.247a12.27 12.27 0 0 0 .465-5.732c-1.431-8-7.047-23.904-28.908-13.772z"/>
  <path fill="#F5DD43" d="M148.08 155.517h111.527v61.925h-14.166v17.029l-15.262-17.029H148.08v-61.925z"/>
  <path fill="#fff" d="M166.368 177.062h74.952v-3.355h-74.952v3.355zm0 11.094h74.952v-3.354h-74.952v3.354zm0 11.095h74.952v-3.354h-74.952v3.354z"/>
  <path fill="#F7C7CE" d="m175.232 119.598 1.23 9.031 9.015 25.04s2.049 19.294 6.966 16.831c4.917-2.463-.82-19.704-.82-19.704l-7.375-23.399.409-8.209-9.425.41z"/>
  <path fill="#E6E6E6" d="m188.755 87.578-3.696-1.207-1.631.797s-5.737.41-6.556 4.515c-.82 4.105-3.688 29.556-3.688 29.556l15.161.821.41-34.482z"/>
  <path fill="#F7C7CE" d="m229.936 119.598-1.229 9.031-9.015 25.04s-2.049 19.294-6.966 16.831c-4.917-2.463.819-19.704.819-19.704l7.376-23.399-.409-8.209 9.424.41z"/>
  <path fill="#E6E6E6" d="m216.414 87.579 1.971-.644a4.477 4.477 0 0 1 3.356.233s5.737.411 6.557 4.516c.819 4.105 3.688 29.556 3.688 29.556l-15.162.821-.41-34.482z"/>
  <path fill="#F5DD43" d="M126 19H0v69.804h16.005V108l17.241-19.196H126V19z"/>
  <path fill="#fff" d="M105 39H21v4h84v-4zm0 13H21v4h84v-4zm0 12H21v4h84v-4z"/>
  <path fill="#E6E6E6" d="M8.37 125.807a4.092 4.092 0 0 0 4.09-4.096 4.093 4.093 0 0 0-4.09-4.096 4.093 4.093 0 0 0-4.089 4.096 4.092 4.092 0 0 0 4.09 4.096z"/>
</svg>
