<svg xmlns="http://www.w3.org/2000/svg" width="396" height="410" viewBox="0 0 396 410">
  <g fill="none" fill-rule="evenodd" transform="translate(-76 -25)">
    <path stroke="#FFF" stroke-width="1.2" d="m271.208 264.5.52-.418c4.016-7.441 12.261-11.162 24.736-11.162"/>
    <circle cx="330.195" cy="132.764" r="1.719" fill="#FFF" transform="rotate(-5 330.195 132.764)"/>
    <path stroke="#868B91" stroke-width="1.2" d="M369 421.667h5.667a1 1 0 0 1 1 1v9.5a1 1 0 0 1-1 1H369a1 1 0 0 1-1-1v-9.5a1 1 0 0 1 1-1zm58.417 11.5a5.75 5.75 0 1 0-.002-11.502 5.75 5.75 0 0 0 .002 11.502zm-50.792-39.292 50.792 27.765m-60.375-68.973h9.583v41.208h-9.583zm4.791 41.208v27.765"/>
    <path stroke="#979797" d="m367.042 393.875-17.95 9.955m22.741-51.163V326.46"/>
    <path stroke="#868B91" stroke-linecap="round" stroke-width="1.2" d="M415.362 300.226v16.234c0 5.523-4.477 10-10 10h-63.995 0"/>
    <path stroke="#FFF" stroke-width="1.2" d="M337.798 134.176c.207 5.286.564 7.907 1.07 7.863l3.226-.283"/>
    <circle cx="348.465" cy="131.165" r="1.719" fill="#FFF" transform="rotate(-5 348.465 131.165)"/>
    <circle cx="330.916" cy="134.427" r="6.877" stroke="#868B91" stroke-width="1.2" transform="rotate(-5 330.916 134.427)"/>
    <circle cx="349.186" cy="132.828" r="6.877" stroke="#868B91" stroke-width="1.2" transform="rotate(-5 349.186 132.828)"/>
    <path stroke="#FFF" stroke-linejoin="round" stroke-width="1.196" d="M322.437 134.244c-1.153-7.529 1.638-14.427 1.245-18.912 2.805.73 6.74 5.305 28.862 2.258 2.768 4.036 4.371 8.084 4.809 12.144 3.821-5.834 4.274-11.699 1.358-17.594 1.777-3.738 2.169-10.564-4.964-13.231-4.755-1.778-12.591-.216-23.509 4.687-1.256-.971-2.7-1.02-4.333-.146-2.45 1.31-4.918 4.691-4.541 9.004-1.938.23-3.863 3.718-3.325 9.867.538 6.149 2.079 6.772 4.398 11.923z"/>
    <path stroke="#FFF" stroke-width="1.2" d="M319.229 128.528c-.885-.116-1.625.363-2.218 1.437-1.332 2.41-.118 9.606 6.065 12.697 7.164 17.593 17.298 16.082 19.257 15.91 1.96-.171 12.181-.924 16.168-19.462 1.811-.28 6.511-4.683 6.511-10.241 0-3.245-1.832-4.302-5.496-3.174"/>
    <path fill="#FFF" d="m334.577 146.763 13.344-1.167c-1.519 2.834-3.574 4.364-6.163 4.59-2.59.228-4.984-.914-7.181-3.423z"/>
    <path stroke="#868B91" stroke-width="1.2" d="M337.767 133.827c1.699-1.102 3.218-1.281 4.556-.538"/>
    <path stroke="#FFF" stroke-width="1.2" d="M356.637 145.596c-.168 8.047 1.587 13.078 5.265 15.092 5.517 3.021 21.67 3.533 30.014 10.74 1.758 1.518 3.456 3.895 5.094 7.133 2.364 4.672 5.152 12.04 8.365 22.105m-72.273-44.162c-.243 3.311-1.74 5.869-4.492 7.672-3.932 2.576-16.299 4.757-23.827 8.322"/>
    <path stroke="#FFF" stroke-width="1.2" d="M330.533 162.282c-1.112 5.631 3.071 12.103 12.55 19.414 10.15-6.943 16.644-13.946 19.483-21.008"/>
    <path fill="#FFF" d="M138 236.708h22.042V264.5H138z"/>
    <path stroke="#868B91" stroke-width="1.2" d="m184 125.143 56.414-56.414 28.548 28.547 61.232-61.232"/>
    <path stroke="#FFF" stroke-width="1.2" d="M130.58 125.542h166.486c.957 0 1.765.71 1.887 1.66l13.188 102.57a1.905 1.905 0 0 1-1.888 2.145H143.768a1.904 1.904 0 0 1-1.888-1.66l-13.187-102.57a1.903 1.903 0 0 1 1.887-2.145z"/>
    <path fill="#868B91" d="M190.043 264.5c-6.352 0-11.5-5.149-11.5-11.5 0-1.578.325-3.14.954-4.587l22.89-50.996h27.792l-12.833 52.865c-1.502 6.171 2.284 12.717 8.456 14.218"/>
    <path stroke="#FFF" stroke-width="1.2" d="m143.75 272.167-57.5 156.208m67.083-156.208L86.25 428.375m326.792-156.208 57.5 156.208m-67.084-156.208 67.084 156.208M95.833 264.5h366.083v7.667H95.833z"/>
    <path stroke="#FFF" stroke-linejoin="round" stroke-width="1.2" d="M427.336 234.792c5.564-10.089 8.346-17.978 8.346-23.669 0-8.535-4.173-9.61-4.173-17.54s5.65-15.348 7.408-24.115c1.758-8.767-1.949-15.884-7.408-22.94-4.173 12.725-10.03 16.5-8.405 29.805 1.626 13.307-6.821 17.25-6.821 29.792 0 8.361 3.684 17.917 11.053 28.667z"/>
    <path stroke="#FFF" stroke-width="1.2" d="M427.82 234.792c-3.12-9.27-4.06-19.68-2.82-31.233 1.862-17.33 9.555-29.738 7.693-43.799"/>
    <path stroke="#FFF" stroke-linejoin="round" stroke-width="1.2" d="M421.794 225.447c0 2.074-1.228 5.188-3.685 9.345-6.651-5.707-10.896-12.549-12.734-20.524-2.757-11.963 2.26-14.794 2.26-25.857 0-11.063-5.332-18 3.78-33.82 4.154 5.169 9.772 18.222 9.772 33.82"/>
    <path fill="#868B91" d="M405.375 233.833H437V254.5c0 5.523-4.477 10-10 10h-11.625c-5.523 0-10-4.477-10-10v-20.667z"/>
    <path stroke="#FFF" stroke-linejoin="round" stroke-width="1.2" d="M378.365 204.278c4.87 19.016 8.45 31.67 10.739 37.963-17.108 2.039-37.365 5.217-60.771 9.535l2.583 12.724"/>
    <path stroke="#FFF" stroke-width="1.2" d="M391.064 272.167c5.181 11.19 5.181 21.905 0 32.145-5.182 10.24-28.993 18.9-71.432 25.98 16.637 30.936 27.402 53.398 32.295 67.388-2.835 5.168-27.218 8.114-33.744 5.168-4.507-7.584-15.205-30.88-32.092-69.887-4.26-9.841 0-21.291 9.656-25.955l40.977-19.792"/>
    <path stroke="#FFF" stroke-width="1.2" d="m304.783 272.167-49.635 32.572a40.004 40.004 0 0 0-14.976 18.054l-28.414 68.178c9.005 5.1 18.481 7.467 36.23 3.558 6.676-7.906 19.392-52.665 23.416-59.248 2.684-4.388 6.857-7.726 12.521-10.012m44.408-73.493-20.362-3.896a7.999 7.999 0 0 0-6.047 1.272l-4.137 2.855a8.006 8.006 0 0 0-2.191 2.267L289.04 264.5m58.904 136.472c5.411 11.72 8.117 20.068 8.117 25.042-11.53 6.03-28.633 7.026-51.311 2.987-.57-4.184 3.219-8.127 11.364-11.829 8.146-3.701 13.15-8.203 15.012-13.505"/>
    <path stroke="#FFF" stroke-width="1.2" d="M304.75 429.001v4.987c12.232 1.039 24.438-.116 36.617-3.465m-102.806-34.452c-2.538 5.583-2.538 10.382 0 14.395 2.538 4.014 3.63 9.983 3.278 17.909l-61.195.626v-8.105c1.321-5.063 5.809-8.54 13.462-10.43 11.479-2.836 19.338-5.474 24.8-16.228"/>
    <path stroke="#FFF" stroke-width="1.2" d="M213.444 401.257c6.945.285 6.945 11.758 11.744 11.758 3.2 0 7.052-2.338 11.559-7.015m-56.103 17.557h61.259m85.148-13.373c5.616-3.112 9.405-3.112 11.37 0 2.946 4.67 3.538 6.302 5.995 6.017 1.639-.19 3.547-3.697 5.726-10.521M138 244.543c-5.44-4.65-9.207-4.74-11.303-.268-2.095 4.47 1.672 9.935 11.303 16.392m135.055 1.2c-7.473-4.162-20.534-10.886-7.597-29.95"/>
    <path stroke="#FFF" stroke-linecap="round" stroke-linejoin="round" stroke-width="1.2" d="M306.221 247.638c-5.368-2.382-11.436-4.436-18.203-6.16a96.486 96.486 0 0 0 6.19-9.561"/>
    <path fill="#0D1724" fill-rule="nonzero" stroke="#FFF" stroke-width="1.2" d="M166.15 125.542c0 10.949-4.438 20.861-11.613 28.036-7.175 7.176-17.088 11.614-28.037 11.614-10.949 0-20.862-4.438-28.037-11.614-7.175-7.175-11.613-17.087-11.613-28.036 0-10.95 4.438-20.862 11.613-28.037 7.175-7.175 17.088-11.613 28.037-11.613 10.949 0 20.862 4.438 28.037 11.613 7.175 7.175 11.613 17.088 11.613 28.037zm-17.967 0a21.62 21.62 0 0 0-6.35-15.333 21.615 21.615 0 0 0-15.333-6.35 21.611 21.611 0 0 0-15.332 6.35 21.616 21.616 0 0 0-6.351 15.333 21.619 21.619 0 0 0 6.35 15.332 21.616 21.616 0 0 0 15.333 6.351 21.615 21.615 0 0 0 15.332-6.35 21.62 21.62 0 0 0 6.351-15.333z"/>
    <path stroke="#0D1724" stroke-width="20" d="M148.185 147.226c5.55-5.55 8.982-13.216 8.982-21.684 0-16.937-13.73-30.667-30.667-30.667"/>
    <path stroke="#FFF" stroke-width="20" d="M148.185 147.226c5.55-5.55 8.982-13.216 8.982-21.684 0-16.937-13.73-30.667-30.667-30.667"/>
    <path stroke="#F5DD43" stroke-width="20" d="M157.167 125.542c0-16.937-13.73-30.667-30.667-30.667"/>
    <circle cx="240.542" cy="69.958" r="3.833" fill="#0D1724" stroke="#FFF" stroke-width="1.2"/>
    <circle cx="269.292" cy="96.792" r="3.833" fill="#0D1724" stroke="#FFF" stroke-width="1.2"/>
    <circle cx="328.708" cy="36.417" r="3.833" fill="#0D1724" stroke="#FFF" stroke-width="1.2"/>
    <path fill="#868B91" d="M214.833 53.667a4 4 0 0 1-4-4V29.875a4 4 0 0 1 4-4h53.334a4 4 0 0 1 4 4v19.792a4 4 0 0 1-4 4h-21.875l-5.75 8.625-5.75-8.625h-19.959z"/>
    <path stroke="#868B91" stroke-width="1.2" d="m147.876 104.165 27.499-27.498"/>
    <circle cx="187.833" cy="142.792" r="3.833" fill="#F5DD43"/>
    <circle cx="187.833" cy="160.042" r="3.833" fill="#868B91"/>
    <circle cx="146.625" cy="105.417" r="2.875" fill="#868B91"/>
    <path stroke="#0D1724" stroke-width="1.2" d="M220.417 39.771h20.125m-20.125-5.75h26.833m-26.833 11.021h40.25"/>
    <path stroke="#FFF" stroke-width="1.2" d="M198.375 145.188h36.417m-36.417-5.75h26.833m-26.833 23h26.833m-26.833-5.75h9.583"/>
    <path stroke="#868B91" stroke-width="1.2" d="M182.083 76.667h26.834m-26.834 5.75h17.25M179.208 264.5c-16.42 51.111-47.407 76.667-92.958 76.667"/>
    <path fill="#FFF" d="M150.938 236.708V231.7c0-11.248-9.118-20.365-20.365-20.365h-10.027c-5.71 0-10.338-4.628-10.338-10.338 0-5.709-4.628-10.337-10.337-10.337H76.667v9.452c0 7.94 6.436 14.375 14.375 14.375h8.106c3.462 0 6.269 2.807 6.269 6.269s2.806 6.269 6.269 6.269h22.38c5.349 0 9.684 4.335 9.684 9.683h7.188z" opacity=".15"/>
  </g>
</svg>
