<svg xmlns="http://www.w3.org/2000/svg" width="433" height="456" viewBox="0 0 433 456">
  <g fill="none" fill-rule="evenodd" transform="translate(-61 -2)">
    <path stroke="#868B91" stroke-width="1.2" d="M421.663 447.557v9.03h-32.498v-9.03c0-5.988-2.478-11.71-6.847-15.805l-1.819-1.705a27.42 27.42 0 0 1-8.666-20.003v-13.578h67.161v13.578c0 7.579-3.136 14.82-8.665 20.003l-1.819 1.705a21.662 21.662 0 0 0-6.847 15.805zm29.233-139.295-16.933 4.082a9.145 9.145 0 0 0-6.79 10.851l1.24 5.656a5.24 5.24 0 0 1-1.749 5.134l-.354.297a3.865 3.865 0 0 1-4.419.387 3.572 3.572 0 0 1-1.674-3.977l1.072-4.188a9.268 9.268 0 0 0-4.345-10.326c-9.99 3.567-15.806 6.775-17.452 9.625-2.467 4.274-1.003 9.74 3.271 12.207l5.16 2.98a2.978 2.978 0 1 1-2.979 5.159l-10.085-5.822-1.767 6.562a13.044 13.044 0 0 0 6.073 14.686l.486.28a11.945 11.945 0 0 0 14.672-2.16l3.882-4.13a4.787 4.787 0 0 1 8.071 4.66l-1.634 5.427a11.944 11.944 0 0 0 5.464 13.787l.486.28a13.04 13.04 0 0 0 15.754-2.084l4.8-4.811L441.062 367a2.978 2.978 0 1 1 2.979-5.159l5.16 2.979a8.936 8.936 0 0 0 12.207-3.271c1.645-2.85 1.515-9.492-.39-19.926a9.27 9.27 0 0 0-11.116 1.4l-3.09 3.022a3.572 3.572 0 0 1-4.282.54 3.868 3.868 0 0 1-1.874-4.022l.08-.454a5.238 5.238 0 0 1 3.572-4.082l5.518-1.753a9.147 9.147 0 0 0 6.002-11.307l-4.932-16.706z"/>
    <path stroke="#868B91" stroke-width="1.2" d="M411.835 396.466V389.8a51.113 51.113 0 0 1 7.184-26.13l20.29-34.109"/>
    <circle cx="362.629" cy="78.583" r="1.917" fill="#FFF"/>
    <circle cx="376.908" cy="78.487" r="1.821" fill="#FFF"/>
    <path stroke="#868B91" stroke-width="1.2" d="M327.17 196.552v8.717a2 2 0 0 1-1.712 1.98l-21.288 3.089m-18.208-36.88V156.99a2 2 0 0 1 1.724-1.98l37.208-5.192a1.999 1.999 0 0 1 2.277 1.98v28.051"/>
    <path fill="#FFF" stroke="#FFF" stroke-width="1.2" d="M227.616 173.458h70.527a5 5 0 0 1 4.914 5.924l-13.252 70.5a5 5 0 0 1-4.914 4.076h-70.526a5 5 0 0 1-4.914-5.923l13.252-70.5a5 5 0 0 1 4.913-4.077z"/>
    <path stroke="#FFF" stroke-linecap="round" stroke-width="1.2" d="M299.094 173.458h6.009a4.792 4.792 0 0 1 4.709 5.677l-13.33 70.917a4.793 4.793 0 0 1-4.71 3.906h-5.81"/>
    <path stroke="#FFF" stroke-width="1.2" d="m77.045 457.125 19.926-78.041a16 16 0 0 1 15.503-12.042h41.268a16 16 0 0 1 15.503 12.042l19.925 78.041"/>
    <path stroke="#FFF" stroke-width="1.2" d="m62.308 235.889 8.683 70.057c4.345 35.062 34.138 61.39 69.468 61.39h58.597l-9.305-21.66a59.995 59.995 0 0 0-31.607-31.513l-4.394-1.873a55.672 55.672 0 0 1-31.8-36.258l-2.996-10.742a39 39 0 0 0-18.396-23.486c-26.033-14.693-38.783-16.665-38.25-5.915z"/>
    <path stroke="#868B91" stroke-width="1.2" d="M243.517 424.234v22.228H284.8m-12.232-24.915 9.933 9.788M234.9 357.772l3.168 64.378c12.36 4.066 23.86 3.866 34.5-.603v-6.913"/>
    <path stroke="#FFF" stroke-width="1.2" d="m194.424 356.022 20.601-4.338a20 20 0 0 1 20.632 8.283l44.696 65.378c2.326 3.872 3.488 8.828 3.488 14.869 0 6.04.735 9.706 2.204 10.996h51.24c1.016-5.025-1.012-8.372-6.083-10.042-3.013-.992-6.572-2.08-10.68-3.262a30.013 30.013 0 0 1-15.245-10.243l-8.071-10.228c10.604-8.46 15.906-14.406 15.906-17.842-10.201-13.727-37.47-65.495-56.662-76.005-11.317-6.199-28.801-9.96-52.453-11.284"/>
    <path stroke="#FFF" stroke-linejoin="round" stroke-width="1.2" d="M152.404 277.08c7.456 15.646 13.088 25.164 16.896 28.555 3.808 3.392 24.502-2.852 62.08-18.73 7.331.005 13.157-1.992 17.479-5.992 6.482-6 13.909 2.701 20.59 1.453 2.52-5.992-13.573-13.106-20.59-13.106-4.679 0-10.505 1.468-17.479 4.405l-49.352 7.248c-4.758-32.152-10.885-50.214-18.38-54.186-11.244-5.959-23.755-4.711-32.974 0-6.146 3.14-11.557 12.25-16.231 27.33"/>
    <path stroke="#FFF" stroke-width="1.2" d="M135.504 224.908c5.536-6.33 9.237-13.577 11.101-21.744 2.797-12.25-12.113-26.185-1.935-39.075 6.785-8.594 14.783-10.459 23.996-5.595 8.592-3.438 14.245-3.438 16.958 0 2.712 3.438 2.162 7.414-1.65 11.927"/>
    <path stroke="#FFF" stroke-linejoin="round" stroke-width="1.2" d="M157.555 190.302c-3.58-5.78-3.383-11.154 0-12.052 2.255-.599 4.288 1.08 6.099 5.038.823-2.081 3.35-4.08 7.578-5.996 4.228-1.917 6.177-5.75 5.847-11.5 4.889 1.23 7.333 4.105 7.333 8.625 0 1.916-.504 4.1 0 6.146 1.107 4.488 3.603 7.694 4.513 9.149.884 1.412-.3 2.783-3.554 4.113.062 7.515-1.304 11.838-4.1 12.967-2.795 1.13-8.787-.522-17.976-4.955"/>
    <circle cx="177.575" cy="182.946" r="1.821" fill="#FFF"/>
    <path stroke="#FFF" stroke-width="1.2" d="M172.5 184.958c1.848-3.833 5.042-4.791 9.583-2.875m-13.169 22.593c-4.565 4.85-6.32 12.2-5.267 22.05m-19.841-62.249c-8.999-.198-14.555 3.891-16.67 12.27-3.171 12.566 4.836 17.414 4.836 30.39-4.697 6.77-11.312 11.961-19.846 15.575 2.46-18.036-7.352-35.29 1.5-52.31 5.902-11.346 17.045-14.54 33.429-9.583"/>
    <path stroke="#868B91" stroke-width="1.2" d="M191.185 306.53c36.838.01 58.84 1.804 66.005 5.38 7.165 3.577 13.227 12.839 18.186 27.785"/>
    <path stroke="#FFF" stroke-width="1.2" d="M224.393 290.246H387.31"/>
    <path stroke="#868B91" stroke-width="1.2" d="m274.118 254.057 3.97 21.205a6 6 0 0 1-5.898 7.104h-25.336m8.487-28.408-.05 16.813"/>
    <path stroke="#FFF" stroke-linejoin="round" stroke-width="1.2" d="M351.032 274.913c0-16.624-1.688-29.951-5.062-39.982l23.402-75.629a16 16 0 0 1 11.882-10.904l19.2-4.18a49.994 49.994 0 0 0 34.266-26.858l13.798-28.164a8.698 8.698 0 0 0-5.164-12.111l-5.047-1.613a6 6 0 0 0-6.986 2.655l-15.127 25.5a30.003 30.003 0 0 1-23.29 14.587l-21.555 1.811a8 8 0 0 1-8.67-7.972v-7.348c4.73 2.695 8.31 2.376 10.74-.958 2.477-3.399 5.057-11.383 6.441-20.642.652-4.363 1.962-9.983 0-14.552 2.912-5.436 4.494-10.507 0-13.666-4.494-3.159-14.79-3.571-22.152 0-11.738-1.566-18.99 2.068-22.453 13.666-3.463 11.597 2.864 19.598 2.864 25.623 0 3.32-.652 8.545-1.958 15.674-.273 1.495-8.99-8-16.995-8.7-8.004-.7-13.808 4.305-9.177 16.1-10.307 12.085-50.59 25.34-46.853 56.208"/>
    <path stroke="#FFF" stroke-width="1.2" d="M280.264 425.025c1.495-5.934 25.093-26.82 32.848-25.432m-15.906 17.842-4.165-6.197M380.78 77.763c-3.269-1.122-6.06-.902-8.372.661l2.25 10.457a1.999 1.999 0 0 1-1.954 2.421h-2.385"/>
    <path stroke="#FFF" stroke-linejoin="round" stroke-width="1.2" d="M338.12 94.176c5.99-.368 8.986-1.593 8.986-3.673 0-3.122-5.657-9.245-1.82-13.857 2.558-3.075 4.778-1.534 6.66 4.622-1.797-8.603.194-14.061 5.975-16.375 8.671-3.47 15.319 3.66 21.94 3.66"/>
    <path stroke="#FFF" stroke-width="1.2" d="M356.963 80.34c2.02-3.366 5.515-4.207 10.48-2.524"/>
    <path stroke="#FFF" stroke-linejoin="round" stroke-width="1.2" d="m324.295 112.338 23.461 6.123-13.308-9.211"/>
    <path stroke="#FFF" stroke-width="1.2" d="m363.162 116.035-9.893 4.07m93.963-39.797c5.244-9.102 9.751-15.717 13.523-19.845 5.657-6.192 1.979-8.102-4.175-3.86a1375.336 1375.336 0 0 0-10.557 7.338"/>
    <path stroke="#FFF" stroke-linejoin="round" stroke-width="1.2" d="M308.327 186.381c1.764-1.786 3.528-3.054 5.292-3.804 1.57-.667 4.517-2.128 8.842-4.383a1.91 1.91 0 0 1 2.563.788c.51.945.225 2.121-.66 2.73l-8.34 5.735 11.146-7.598.97.796a5 5 0 0 1 1.717 4.91l-1.751 8.189a14.492 14.492 0 0 1-4.175 7.46 8.56 8.56 0 0 1-7.623 2.186l-10.472-2.147"/>
    <path stroke="#FFF" stroke-width="1.2" d="M179.814 267.188c-13.016.02-23.655 5.08-31.917 15.178-1.609 3.703 1.596 5.554 9.615 5.554m22.302 41.845c8.732-11.903 12.324-20.904 10.777-27.005m155.336-67.478h-34.326M436.049 74.73c0-8.326 2.826-14.282 8.477-17.87 5.652-3.588 11.83-6.596 18.534-9.023"/>
    <path stroke="#FFF" stroke-linecap="round" stroke-width="1.2" d="M331.962 235.75c4.93 7.932 10.734 13.62 17.411 17.063"/>
    <path stroke="#FFF" stroke-width="1.2" d="M184.804 199.823c-1.053.349-2.521-.134-4.404-1.448"/>
    <path fill="#FFF" d="M365.504 95.833h9.583c-1.756 1.917-3.354 2.875-4.792 2.875-1.437 0-3.035-.958-4.791-2.875z"/>
    <path fill="#F5DD43" d="M479.545 2.875c7.94 0 14.375 6.426 14.375 14.354 0 3.303-1.016 6.345-3.049 9.126a25.346 25.346 0 0 0-4.86 13.895H473.08a25.325 25.325 0 0 0-4.86-13.895c-2.032-2.781-3.049-5.823-3.049-9.126 0-7.928 6.436-14.354 14.375-14.354z"/>
    <path stroke="#FFF" stroke-width="1.2" d="M471.879 40.25h15.333v10.573a2.844 2.844 0 0 1-2.844 2.844h-9.645a2.845 2.845 0 0 1-2.844-2.844V40.25z"/>
    <path stroke="#0D1724" stroke-width="1.5" d="m481.259 40.25 2.468-19.796c0-1.202.995-2.176 2.222-2.176 1.227 0 2.221.974 2.221 2.176 0 1.201-.994 2.176-2.221 2.176h-11.813c-1.247 0-2.257-.99-2.257-2.211v-.035c0-1.201.994-2.176 2.221-2.176s2.222.975 2.222 2.176l2.468 19.866"/>
    <path fill="#868B91" d="M249.048 199.333h38.831l-8.128 44.084H240.92z"/>
    <path fill="#F5DD43" d="M242.487 192.625h26.225l-3.483 19.167h-26.225z"/>
    <path stroke="#0D1724" stroke-width="1.2" d="M243.959 226.167H223.67l8.128-44.084h44.581l-3.167 17.175"/>
    <path stroke="#FFF" d="M303.796 425.48c-3.97-.83-6.86 1.696-8.673 7.58-1.811 5.884-5.572 8.565-11.282 8.044"/>
  </g>
</svg>
