<svg xmlns="http://www.w3.org/2000/svg" width="460" height="418" viewBox="0 0 460 418">
  <g fill="none" fill-rule="evenodd" transform="translate(-48 -21)">
    <path stroke="#FFF" stroke-width="1.2" d="M454.739 264.15c0-.626.013-1.254.036-1.885.237-6.323 5.377-8.703 14.663-11.83.992-3.703.544-17.924-2.68-25.413-4.33-10.056-11.573-13.928-21.73-11.615-6.18-4.573-13.045-5.409-20.596-2.505-1.045 3.9-.138 7.254 2.722 10.064"/>
    <path stroke="#FFF" stroke-linejoin="round" stroke-width="1.2" d="M447.528 247.007c4.952-4.656 6.154-9.897 3.119-11.641-2.024-1.162-4.422-.066-7.195 3.288.424-3.288-1.158-6.405-4.747-9.351-3.588-2.946-4.819-6.62-3.692-11.024-5.041-.077-8.146 2.067-9.316 6.433-.496 1.851-.574 4.091-1.591 5.937-2.23 4.048-5.471 6.5-6.727 7.669-1.22 1.135-.43 2.766 2.369 4.893-2.006 7.243-1.804 11.772.603 13.586 2.408 1.815 8.623 1.77 18.646-.134"/>
    <path fill="#FFF" d="M429.466 237.066a1.82 1.82 0 1 1 .942-3.518 1.82 1.82 0 0 1-.942 3.518z"/>
    <path stroke="#FFF" stroke-width="1.2" d="M434.877 238.714c-.793-4.18-3.63-5.933-8.512-5.257m6.471 24.495c2.323 4.321 2.822 9.558 1.499 15.71m-15.592-24.511c.927.61 2.47.524 4.629-.258m3.749-20.039c3.875-.563 7.431.725 10.67 3.865"/>
    <path stroke="#868B91" stroke-dasharray="9" d="M86.078 139.898H48.875L71.31 266.907h68.72"/>
    <path stroke="#FFF" stroke-width="1.2" d="M79.384 100.451h167.615l17.045 98.011H96.43z"/>
    <path stroke="#FFF" stroke-linejoin="round" stroke-width="1.2" d="M454.558 332.755c0 37.722-5.844 58.328-17.531 61.82-11.688 3.49-26.046-10.415-43.076-41.715-8.943-4.444-14.925-7.735-17.945-9.873-7.993-5.659-11.511-11.033-12.959-15.002-.856-2.348 2.97-.758 11.48 4.77-7.213-7.1-10.626-10.73-10.242-10.89.993-.413 2.2-.285 2.911-.285 1.807 0 15.394 11.175 18.423 11.175 3.028 0-10.215-8.89-8.088-18.437l12.552 12.376c5.316 1.461 8.87 4.753 10.662 9.874 1.792 5.12 10.626 15.093 26.502 29.916"/>
    <path fill="#0D1724" d="M124.839 181.417H377.55l25.699 147.728h-252.71z"/>
    <path fill="#F5DD43" d="M304.593 266.03h68.661l10.88 63.441h-68.66z"/>
    <path stroke="#0D1724" stroke-width="1.4" d="m311.945 310.223 27.49-17.407a1 1 0 0 1 1.342.255l10.834 14.822a1 1 0 0 0 1.462.166l24.039-20.836"/>
    <ellipse cx="324.239" cy="280.405" fill="#0D1724" rx="5.75" ry="6.708" transform="rotate(-10 324.239 280.405)"/>
    <path stroke="#FFF" stroke-width="1.2" d="M124.839 181.417H377.55l25.699 147.728h-252.71z"/>
    <path fill="#FFF" d="M147.839 213.042h92.207l9.376 53.667h-92.206z"/>
    <path fill="#0D1724" d="m300.318 173.584 6.597 15.271 24.476-1.446-6.658-13.825z"/>
    <path stroke="#FFF" stroke-width="1.2" d="M279.904 90.41c16.58 3.35 26.627 10.063 30.14 20.138 5.496 15.76 1.917 56.243 36.42 98.534 4.46 5.467 7.08 6.38 9.759 8.598 1.34 1.11 2.74 5.082 4.203 11.917-.636 5.954-1.267 9.24-1.895 9.86a1.244 1.244 0 0 1-2.077-.585l-2.51-10.055-3.528-5.033"/>
    <path fill="#0D1724" stroke="#FFF" stroke-linejoin="round" stroke-width="1.2" d="m358.171 201.424-8.078 31.567-5.25 6.149v-8.413l7.579-30.822z"/>
    <path stroke="#FFF" stroke-width="1.2" d="M284.561 132.363c5.66 8.842 10.29 20.337 13.889 34.486 3.002 11.803 9.854 25.551 20.554 41.246 3.681 5.4 11.006 6.86 16.477 3.286l8.057-5.263"/>
    <path fill="#0D1724" stroke="#FFF" stroke-width="1.2" d="m203.54 106.011 9.342 8.08c7.948 1.554 12.74 2.483 14.376 2.789 3.036.567 4.48.567 4.48-1.915 0-2.334-4.92-16.907-8.315-19.422-3.394-2.515-4.28-5.19-9.456-5.19-2.343 0-5.667 1.57-9.97 4.708a7 7 0 0 0-.456 10.95z"/>
    <path stroke="#FFF" stroke-width="1.2" d="m227.905 117.187-5.75-12.458m-.575 10.973-4.6-9.488m5.175-16.217c1.512-3.018 7.57-5.574 18.173-7.665 9.283-1.832 14.713-6.788 16.292-14.87m30.649 53.834c-2.367 10.45-4.794 17.917-7.281 22.397-3.732 6.721-13.844 22.267-13.844 36.981M424.259 290.06c3.124-6.742 5.227-11.27 6.309-13.586 1.082-2.316 10.45-6.855 28.103-13.617 1.89 1.635 2.834 3.63 2.834 5.984 0 3.532 6.218 5.79 11.656 19.229 5.438 13.438 11.347 41.661 14.832 50.956 2.324 6.197 7.256 16.02 14.797 29.47-17.35 10.975-31.11 17.381-41.285 19.221-10.174 1.84-16.312 2.777-18.414 2.814"/>
    <path stroke="#FFF" stroke-width="1.2" d="M465.814 275.427c27.614 27.893 41.42 45.763 41.42 53.608 0 7.845-3.5 17.241-10.503 28.187m-43.661-80.281c-16.834 3.702-26.934 8.855-30.3 15.46-3.365 6.604-2.357 25.95 3.025 58.037m55.649 88.092c0-17.008 10.168-31.047 5.08-59.996m-50.252 59.243c.599-8.475 1.226-23.02 1.882-43.636m54.018-19.306c1.614 2.448 3.207 6.909 4.778 13.382 2.576 10.618-2.502 29.088-3.95 50.28"/>
    <circle cx="276.717" cy="51.363" r="1.917" fill="#FFF"/>
    <path fill="#FFF" d="M291.08 53.088a1.82 1.82 0 1 0 0-3.64 1.82 1.82 0 0 0 0 3.639z"/>
    <path stroke="#FFF" stroke-linejoin="round" stroke-width="1.2" d="M247.549 80.31c4.34 5.052 8.579 9.018 12.713 11.895 6.202 4.317 22.63 5.184 19.484-2.208-2.097-4.928-2.768-9.18-2.013-12.755 5.569 1.942 9.568 1.247 11.998-2.087 2.477-3.398 2.987-10.622 4.372-19.881.652-4.363 1.962-9.984 0-14.553 2.911-5.435 3.362-12.173-4.31-13.665-1.729-3.568-10.047-8.316-17.029-1.707-6.62-3.05-20.682-3.05-20.682 9.908-.39.973-4.833 6.86-3.716 13.886.555 3.49 3.408 9.776 8.56 18.859"/>
    <path stroke="#FFF" stroke-width="1.2" d="M294.9 50.656c-3.446-1.789-6.237-1.568-8.373.661-.496 2.006.089 5.149 1.756 9.427a2.001 2.001 0 0 1-1.864 2.726h-1.858"/>
    <path stroke="#FFF" stroke-linejoin="round" stroke-width="1.2" d="M256.392 68.002c3.304-1.473 4.956-3.25 4.956-5.33 0-3.122-7.125-8.832-3.288-13.444 2.558-3.075 5.268-1.672 8.13 4.209-1.799-8.603.193-14.062 5.973-16.375 8.672-3.47 15.32 3.66 21.94 3.66"/>
    <path stroke="#FFF" stroke-width="1.2" d="M271.051 53.12c2.021-3.366 5.515-4.208 10.481-2.525"/>
    <path stroke="#FFF" stroke-linejoin="round" stroke-width="1.2" d="M288.593 67.655c-1.757 1.916-3.98 2.856-7.959 2.12"/>
    <path stroke="#FFF" stroke-width="1.2" d="M270.093 47.266c1.918-2.505 5.276-3.208 10.074-2.108m6.217 2.108c1.473-2.216 4.388-3.007 8.748-2.373"/>
    <path fill="#0D1724" stroke="#FFF" stroke-width="1.2" d="M331.267 212.787c1.227 1.701 2.627 4.971 4.2 9.81a7.99 7.99 0 0 0 2.79 3.916c2.817 2.125 4.751 3.496 5.802 4.115 1.078.634 3.03 1.537 5.858 2.71.99.41 2.127-.026 2.587-.993.472-.99.16-2.176-.736-2.808-2.624-1.847-4.174-2.97-4.649-3.37-1.452-1.223-3.36-3.243-5.726-6.06"/>
    <path stroke="#FFF" stroke-width="1.2" d="m214.488 90.354 4.873-.19a10.002 10.002 0 0 1 7.227 2.695c1.345 1.26 2.378 2.143 3.098 2.648.75.526 2.008.942 3.772 1.247a2.596 2.596 0 0 1 1.889 3.697"/>
    <path stroke="#FFF" stroke-linecap="round" stroke-width="1.2" d="M437.801 406.24c8.926-1.998 14.512-7.695 16.757-17.089"/>
    <path stroke="#0D1724" stroke-width="1.4" d="m147.839 213.042 101.583 53.667m-10.035-53.667-82.171 53.667"/>
    <path stroke="#FFF" d="M256.62 213.344c8.098-.818 16.468.877 25.108 5.086 12.96 6.312 16.294 17.665 27.365 21.604 11.072 3.938 24.27-6.684 35.75-.241"/>
    <path stroke="#FFF" stroke-width="1.2" d="M127.458 198.462h168.595"/>
    <ellipse cx="136.062" cy="189.887" fill="#FFF" rx="3.354" ry="3.833" transform="rotate(-10 136.062 189.887)"/>
    <ellipse cx="149.478" cy="189.887" fill="#F5DD43" rx="3.354" ry="3.833" transform="rotate(-10 149.478 189.887)"/>
    <ellipse cx="130.655" cy="138.571" fill="#868B91" rx="4.792" ry="5.75" transform="rotate(-9 130.655 138.571)"/>
    <ellipse cx="162.895" cy="189.887" fill="#868B91" rx="3.354" ry="3.833" transform="rotate(-10 162.895 189.887)"/>
    <ellipse cx="139.438" cy="267.375" fill="#868B91" rx="4.313" ry="4.792" transform="rotate(-10 139.438 267.375)"/>
    <path stroke="#FFF" stroke-width="1.2" d="m105.008 156.094 1.584 8.696h11.086m34.001 0h10.452l-1.577-9.3m-17.399-40.533h10.307l1.285 7.161m-55.541.364-1.283-7.525h11.078"/>
    <path stroke="#979797" stroke-width="1.2" d="M128.365 128.03c8.762 0 18.015 4.355 23.105 11.02-4.681 6.666-10.51 11.021-19.272 11.021-8.763 0-17.087-5.071-23.105-11.02 4.68-6.666 10.509-11.021 19.272-11.021z"/>
    <path stroke="#FFF" d="M160.564 285.307h115.728m-113.539 11.389h94.372m-92.122 11.5H265.75"/>
    <path stroke="#868B91" d="M170.426 128.509h60.145m-57.956 11.389h38.789m-36.539 11.5h45.164"/>
  </g>
</svg>
