<svg xmlns="http://www.w3.org/2000/svg" xmlns:xlink="http://www.w3.org/1999/xlink" width="320" height="392" viewBox="0 0 320 392">
  <defs>
    <path id="a" d="M3.833 3.833H40.25V40.25H3.833z"/>
  </defs>
  <g fill="none" fill-rule="evenodd" transform="translate(-118 -32)">
    <g transform="rotate(-10 649.333 -628.63)">
      <path stroke="#868B91" stroke-width="1.2" d="M9.583 9.583h32.583v32.583H9.583z"/>
      <circle cx="21.083" cy="19.167" r="3.833" fill="#F5DD43"/>
      <path fill="#868B91" stroke="#868B91" stroke-width="1.2" d="m9.583 37.375 8.394-7.904a1 1 0 0 1 1.472.11l3.72 4.737 9.389-8.368a1 1 0 0 1 1.411.081l.034.04 8.164 10.174.005 5.889-32.589.033v-4.792z"/>
      <rect width="112.125" height="51.75" stroke="#868B91" stroke-width="1.2" rx="2"/>
      <path stroke="#868B91" stroke-width="1.2" d="m51.75 14.099 50.79-.406m-50.41 8.166 41.207-.33m-40.979 8.946 45.999-.368"/>
    </g>
    <path fill="#0D1724" stroke="#FFF" stroke-width="1.2" d="m180.923 135.25 236.723-41.74a2 2 0 0 1 2.317 1.622l16.945 96.1a2 2 0 0 1-1.622 2.317L198.562 235.29a1.999 1.999 0 0 1-2.316-1.622L179.3 137.567a2.001 2.001 0 0 1 1.623-2.317z"/>
    <path fill="#FFF" d="M274.49 61.72a1.917 1.917 0 1 1 .002-3.832 1.917 1.917 0 0 1-.002 3.831zm-14.279-.192a1.821 1.821 0 1 1 0-3.642 1.821 1.821 0 0 1 .001 3.642z"/>
    <path stroke="#FFF" stroke-width="1.2" d="M256.339 58.982c3.269-1.122 6.06-.902 8.373.661l-2.143 8.471a2.002 2.002 0 0 0 1.939 2.49h2.292m13.357-9.044c-2.021-3.367-5.515-4.208-10.482-2.525m-6.302 17.655c2.777 1.654 5.326.91 7.645-2.235"/>
    <path fill="#868B91" d="m243.348 147.597 117.972-20.801 6.324 35.864-117.972 20.801z"/>
    <path fill="#F5DD43" d="M279.029 157.849c10.898-1.922 14.931 4.027 27.61 1.791 12.678-2.235 19.192-19.988 35.3-22.828 7.208-1.27 14.377-.78 21.505 1.47l4.295 24.36-106.427 18.767c4.546-14.426 10.452-22.279 17.717-23.56z"/>
    <circle cx="188.612" cy="140.706" r="2.875" fill="#FFF" transform="rotate(-10 188.612 140.706)"/>
    <circle cx="198.993" cy="138.875" r="2.875" fill="#F5DD43" transform="rotate(-10 198.993 138.875)"/>
    <circle cx="208.431" cy="137.211" r="2.875" fill="#868B91" transform="rotate(-10 208.431 137.211)"/>
    <g transform="translate(195.212 148.646)">
      <mask id="b" fill="#fff">
        <use xlink:href="#a"/>
      </mask>
      <use xlink:href="#a" fill="#868B91" transform="rotate(-10 22.042 22.042)"/>
      <path stroke="#FFF" stroke-width="1.2" d="M42.167 36.38c-4.183-6.344-11.202-10.505-19.155-10.505-7.968 0-15 4.177-19.179 10.542" mask="url(#b)" transform="rotate(-10 23 31.146)"/>
      <circle cx="21.083" cy="14.375" r="6.708" stroke="#FFF" stroke-width="1.2" mask="url(#b)" transform="rotate(-10 21.083 14.375)"/>
    </g>
    <path stroke="#FFF" stroke-width="1.2" d="m371.798 125.51 39.639-6.99 11.15 63.233-39.64 6.989zm.067-.012 50.45 56.302m-11.149-63.232-28.219 70.174m-201.651-39.86 228.121-40.224"/>
    <path stroke="#0D1724" stroke-width="1.2" d="M252.731 182.922c4.197-13.067 9.928-20.24 17.193-21.521 10.898-1.922 14.932 4.027 27.61 1.791 12.678-2.235 19.193-19.988 35.3-22.828 10.737-1.893 21.385.12 31.944 6.042"/>
    <path stroke="#FFF" stroke-width="1.2" d="m204.68 204.235 98.193-17.314m-96.862 25.822 117.068-20.642m-115.737 29.151 98.193-17.314"/>
    <g transform="rotate(-10 1606.554 -641.304)">
      <rect width="161" height="28.75" stroke="#979797" rx="2"/>
      <rect width="118.833" height="5.75" x="32.583" y="11.5" stroke="#979797" rx="2.875"/>
      <circle cx="94.875" cy="14.375" r="6.708" fill="#868B91"/>
      <path fill="#F5DD43" d="m23.397 15.243-10.4 5.944a1.001 1.001 0 0 1-1.497-.869V8.432a1 1 0 0 1 1.496-.869l10.401 5.944a1 1 0 0 1 0 1.736z"/>
    </g>
    <path stroke="#868B91" stroke-width="1.2" d="m261.652 386.473-.968 4.185a57.026 57.026 0 0 0-1.295 17.287c.482 6.17.177 11.102-.916 14.799h-54.01c-5.165-13.02 17.732-14.011 26.868-18.688 6.09-3.118 9.524-9.347 10.301-18.687m143.787-24.49-.232-.372a56.99 56.99 0 0 0 16.18 16.852c3.45 2.357 5.864 4.977 7.24 7.858-18.077 25.018-33.406 36.812-45.986 35.382-4.176-8.674 8.965-15.825 12.625-25.414 2.44-6.392.535-13.059-5.715-20"/>
    <path stroke="#868B91" stroke-linejoin="round" stroke-width="1.2" d="M218.883 407.747c-.063 3.59 6.26 5.385 18.969 5.385 10.641 0 17.826-1.593 21.553-4.778m113.215-7.676c-.576 5.638 1.101 7.518 5.032 5.638s11.646-11.567 23.145-29.064"/>
    <path fill="#0D1724" stroke="#FFF" stroke-linecap="square" stroke-width="1.2" d="M332.44 231.936c-8.714 23.241-31.983 48.516-39.398 75.278-5.641 20.361-9.48 46.118-11.517 77.27-25.807 4.424-50.295 2.239-61.823-7.574 6.918-27.078 35.634-113.388 66.205-156.616"/>
    <path stroke="#FFF" stroke-width="1.2" d="M342.866 205.202c1.153 51.281 4.053 81.944 8.701 91.99 4.648 10.044 18.076 29.017 40.283 56.918-18.142 20.839-33.267 31.259-45.375 31.259-8.701-12.942-39.823-63.902-42.842-82.65-.817-5.072-1.324-10.434-1.746-17.02M256.339 52.71c-2.949-10.765 2.857-17.036 17.417-18.814 14.56-1.779 24.516 3.144 29.867 14.767 2.472 8.872 6.812 14.747 13.018 17.625 9.309 4.316 24.395.488 36.542 8.63 8.099 5.429 13.583 14.483 16.454 27.163"/>
    <path fill="#0D1724" d="M189.438 198.368c-4.696 1.786-9.062 2.541-13.099 2.267-1.555 3.835 0 8.374 15.165 6.288-7.975 1.39-11.962 2.837-11.962 4.34 0 2.253 5.976 22.667 9.896 25.478 2.614 1.874 6.56 2.345 11.84 1.413l8.673-6.68a3.001 3.001 0 0 0 .967-3.46l-.57-1.47 1.509-1.82c1-1.209.901-2.984-.227-4.073l-1.281-1.236 3.846-4.104c-.038-3.55-2.401-4.899-7.09-4.049l1.128-2.415c-1.361-2.612-3.267-3.635-5.718-3.07s-5.69 2.394-9.714 5.485"/>
    <path stroke="#FFF" stroke-linecap="round" stroke-linejoin="round" stroke-width="1.2" d="M190.168 198.368c-5.183 1.786-9.792 2.541-13.829 2.267-1.555 3.835 0 8.374 15.165 6.288-7.975 1.39-11.962 2.837-11.962 4.34 0 2.253 5.976 22.667 9.896 25.478 2.614 1.874 6.56 2.345 11.84 1.413h0l8.673-6.68a3.001 3.001 0 0 0 .967-3.46l-.57-1.47h0l1.509-1.82c1-1.209.901-2.984-.227-4.073l-1.281-1.236h0l3.846-4.104c-.038-3.55-2.401-4.899-7.09-4.049l1.128-2.415c-1.361-2.612-3.267-3.635-5.718-3.07s-5.69 2.394-9.714 5.485l-2.633-12.894z"/>
    <path fill="#0D1724" d="M352.061 103.831c28.038 14.074 42.057 25.184 42.057 33.33 0 8.145-10.322 23.264-30.968 45.357-.34 13.03-2.974 21.468-7.9 25.317-4.925 3.85-9.684 6.114-14.277 6.795-3.3-.45-4.951-1.655-4.951-3.614 0-1.96 1.65-6.764 4.951-14.413l-3.262.659c-3.722 8.53-6.898 12.265-9.528 11.205-3.946-1.59-.328-2.35 1.91-9.289 2.24-6.939 1.322-9.707 5.34-13.183 4.02-3.477 6.926-3.307 12.034-6.545 3.405-2.158 9.843-15.23 19.314-39.218l-31.347-16.684-.661 1.204-25.632-13.6 33.485-15.878 11.777 7.314-2.342 1.243z"/>
    <path stroke="#FFF" stroke-linejoin="round" stroke-width="1.2" d="M351.837 103.831c28.187 14.074 42.281 25.184 42.281 33.33 0 8.145-10.322 23.264-30.968 45.357-.34 13.03-2.974 21.468-7.9 25.317-4.925 3.85-9.684 6.114-14.277 6.795-3.3-.45-4.951-1.655-4.951-3.614 0-1.96 1.65-6.764 4.951-14.413l-3.262.659c-3.722 8.53-6.898 12.265-9.528 11.205-3.946-1.59-.328-2.35 1.91-9.289 2.24-6.939 1.322-9.707 5.34-13.183 4.02-3.477 6.926-3.307 12.034-6.545 3.405-2.158 9.843-15.23 19.314-39.218l-31.347-16.684"/>
    <path stroke="#FFF" stroke-linejoin="round" stroke-width="1.2" d="M245.982 124.05c5.27-13.106 8.98-21.113 11.131-24.023 3.545-4.795 9.338-8.233 17.377-10.314l.426-6.745c-6.016 2.717-10.464 2.717-13.346 0-4.323-4.077-6.51-25.082-5.231-29.553.852-2.981 4.447-6.296 10.785-9.946 4.47 7.815 11.386 12.37 20.748 13.666 9.296-5.09 11.144 5.35 3.514 9.985.722 4.103 2.627 10.246 5.715 18.428 7.518-1.346 14.53-1.346 21.038 0 6.507 1.347 17.814 7.44 33.922 18.283-7.564 3.218-13.326 10.192-17.288 20.921l-24.769-12.446"/>
    <path stroke="#FFF" stroke-width="1.2" d="M274.49 89.713c.276 4.124 2.399 6.186 6.369 6.186 3.97 0 9.384-3.45 16.242-10.35"/>
  </g>
</svg>
