<svg xmlns="http://www.w3.org/2000/svg" width="429" height="377" viewBox="0 0 429 377">
  <g fill="none" fill-rule="evenodd" transform="translate(-63 -41)">
    <circle cx="417.32" cy="46.958" r="1.917" fill="#FFF"/>
    <circle cx="424.029" cy="46.958" r="1.917" fill="#FFF"/>
    <circle cx="430.737" cy="46.958" r="1.917" fill="#FFF"/>
    <path stroke="#868B91" stroke-dasharray="6" stroke-width="1.2" d="M164.32 62.576c51.112-15.895 89.764-8.004 115.959 23.674m132.25-35.458c-22.361 1.424-33.542 13.244-33.542 35.458"/>
    <rect width="65.167" height="47.917" x="412.529" y="42.167" stroke="#FFF" stroke-width="1.2" rx="2"/>
    <path stroke="#FFF" stroke-width="1.2" d="M118.32 54.625h46v57.5h-46z"/>
    <path stroke="#868B91" stroke-width="1.2" d="M263.987 86.25h32.583v32.583h-32.583z"/>
    <path stroke="#FFF" stroke-width="1.2" d="M419.237 57.5h24.917v24.917h-24.917z"/>
    <path fill="#FFF" d="M181.57 86.25h65.167v32.583H181.57z"/>
    <path stroke="#FFF" stroke-width="1.2" d="M181.57 136.083h65.167v32.583H181.57zm0 49.834h65.167V218.5H181.57z"/>
    <path fill="#868B91" d="M312.862 86.25h32.583v32.583h-32.583zm-92.958 111.167h32.583V230h-32.583z"/>
    <circle cx="236.195" cy="223.292" r="1" fill="#0D1724" stroke="#0D1724" stroke-width=".5"/>
    <path stroke="#0D1724" stroke-width="1.4" d="M236.195 219.458c0-6.016 5.75-5.874 5.75-11.507a5.747 5.747 0 0 0-5.75-5.743 5.747 5.747 0 0 0-5.75 5.743"/>
    <path fill="#FFF" d="M318.612 82.417h17.25v6.708h-17.25zM132.695 50.792h17.25V57.5h-17.25z"/>
    <path stroke="#FFF" stroke-width="1.2" d="M312.862 135.125h32.583v32.583h-32.583zm49.833-48.875h32.583v32.583h-32.583z"/>
    <path fill="#868B91" d="M362.695 136.083h32.583v32.583h-32.583z" opacity=".4"/>
    <path stroke="#FFF" stroke-width="1.2" d="M263.987 184.958h32.583v32.583h-32.583z"/>
    <path stroke="#868B91" stroke-width="1.2" d="M312.862 184.958h32.583v32.583h-32.583z"/>
    <path stroke="#868B91" stroke-linejoin="round" stroke-width="1.2" d="M88.457 352.493c1.508 6.479 6.216 13.565 14.124 21.257 3.32 6.954 6.335 21.19 9.048 42.707m36.868-66.172 6.222 66.999m-68.946.08c1.563-20.412 2.778-36.701.454-50.961-.773-4.74-2.195-7.385-4.25-14.525m317.188-19.922c3.283 41.577 6.618 69.999 10.003 85.265"/>
    <path stroke="#868B91" stroke-width="1.2" d="M458.293 343.609c-1.201 4.978-3.408 9.281-6.62 12.91v60.684m18.546-76.386v75.93"/>
    <path stroke="#FFF" stroke-linejoin="round" stroke-width="1.2" d="M121.64 162.41c-1.774-5.005-6.817-6.966-8.895-3.483-1.385 2.321-.213 6.98 3.516 13.975 3.88 3.93 3.968 9.227.262 15.894-9.896 3.572-17.251 5.588-29.962 0 7.37-9.535 3.913-21.535 2.59-35.195-.766-7.898 5.35-18.394 16.361-22.107 11.01-3.714 28.69-1.916 32.618 6.453 3.833 8.165-16.49 10.133-16.49 24.462z"/>
    <path stroke="#FFF" stroke-linecap="round" stroke-linejoin="round" stroke-width="1.2" d="M138.275 142.36c1.106 2.511 2.622 7.355 1.634 12.6-.984 5.226 4.949 8.936 4.949 12.907 0 2.103-4.125 3.096-4.089 5.341.053 3.271 2.343 8.355.989 11.906-2.098 5.501-9.894 5.63-23.39.387"/>
    <path stroke="#FFF" stroke-linejoin="round" stroke-width="1.2" d="M127.713 188.84c-1.927 6.35-1.927 11.141 0 14.375"/>
    <circle cx="133.587" cy="162.294" r="2.108" fill="#FFF"/>
    <path stroke="#FFF" stroke-width="1.2" d="M128.831 165.121c.866-4.166 3.734-5.869 8.603-5.108"/>
    <path stroke="#FFF" stroke-linejoin="round" stroke-width="1.2" d="M137.062 178.56c2.443.228 4.008-.146 4.696-1.12m-5.75 145.591c1.274-26.647 1.274-46.356 0-59.127m36.88 9.854c3.718 6.563 4.957 16.864 3.718 30.904"/>
    <path fill="#F5DD43" d="m234.758 261.203 24.899-20.661 25.893 8.622-25.396 22.044z"/>
    <path fill="#0D1724" stroke="#FFF" stroke-linejoin="round" stroke-width="1.2" d="M194.068 299.184c17.654-18.134 28.929-27.981 33.825-29.543 4.896-1.561 10.858-2.054 17.886-1.48 10.618-3.265 16.468-5.201 17.55-5.81a2.116 2.116 0 0 0-1.424-3.923l-14.745 2.74-9.651-1.58c-.19-.79-.068-1.264.365-1.424 3.12-1.154 7.73-.574 10.458-1.546 1.47-.523 2.419-2.092 2.845-4.705h-17.083c-2.693 0-5.319.837-7.516 2.394l-5.967 4.228-29.11 17.424"/>
    <path stroke="#FFF" stroke-linejoin="round" stroke-width="1.2" d="M146.097 279.888c4.024 10.705 7.919 34.135 11.684 70.29h-12.637c-2.257-11.283-5.303-20.332-9.136-27.147-2.066 1.863-4.47 10.912-7.208 27.146-38.132 4.137-59.662 2.73-64.592-4.219 9.866-48.15 9.866-109.218 14.596-126.573 3.153-11.57 9.73-19.33 19.731-23.28 18.854 2.028 32.646 7.047 41.374 15.058 8.729 8.01 19.722 28.875 32.98 62.595h15.23a4 4 0 0 1 3.537 2.131c2.357 4.462 2.987 13.55 1.89 27.264l-16.94 1.509c-9.716 5.368-36.697-28.4-47.934-56.037"/>
    <path fill="#F5DD43" d="m234.758 261.203 3.677-3.051c9.87.079 17.667-.427 23.39-1.519 5.723-1.092 13.631-3.581 23.725-7.469l-25.396 22.044-25.396-10.005zm29.229-126.078h32.583v32.583h-32.583z"/>
    <path stroke="#0D1724" stroke-width="1.4" d="m270.695 151.294 6.043 5.873 13.124-11.5"/>
    <path fill="#0D1724" stroke="#FFF" stroke-linejoin="round" stroke-width="1.2" d="M363.225 216.26c-9.618-4.896-17.736-11.287-24.355-19.174-6.62-7.886-15.289-26.414-26.008-55.582l-12.023-1.884a4.999 4.999 0 0 1-4.226-4.94v-12.14l-13.06-4.622a3.048 3.048 0 0 1-1.91-3.719 2.93 2.93 0 0 1 3.575-2.014l24.897 6.69c3.553 4.71 6.705 9.075 9.455 13.095 2.751 4.02 13.268 18.763 31.55 44.227l53.317 28.719 11.516 6.203c21.033 4.921 31.55 1.951 31.55-8.91 16.048 0 27.671 23 27.671 35.459V338.68c-14.909 6.073-27.913 7.448-39.013 4.125-9.857-2.95-22.98-6.724-39.37-11.32a8 8 0 0 1-5.813-8.358l5.094-62.034a19.999 19.999 0 0 0-7.393-17.217c-12.771-10.28-21.256-18.342-25.454-24.187-1.084-10.076 1.89-20.657 8.922-31.743"/>
    <path stroke="#FFF" stroke-linejoin="round" stroke-width="1.2" d="M447.502 202.208c-3.49-2.976-6.047-7.479-7.667-13.507 3.327-6.694 11.825-7.504 16.563-15.75 3.986-6.936 1.994-17.193-4.107-20.608 1.21-9.474-15.156-27.691-31.143-18.336-4.483 2.623-8.502 7.366-6.748 10.786"/>
    <path stroke="#FFF" stroke-linejoin="round" stroke-width="1.2" d="M429.713 177.836c6.451-3.786 8.711-9.18 6.226-11.753-1.775-1.839-4.135-1.655-7.932 1.269l-3.218-4.148c1.566-5.134 2.715-8.254 3.445-9.36-4.005-2.496-6.665-7.04-4.367-11.5-5.769.146-9.62 1.712-11.955 6.12-.99 1.869-1.403 4.458-3.176 5.994-4.363 3.781-7.463 5.641-9.096 6.59-1.585.92-1.146 2.869 1.318 5.848-.27.5-.527.99-.769 1.467"/>
    <path fill="#FFF" d="M412.029 162.715a2.011 2.011 0 0 1-.823-2.716 1.996 1.996 0 0 1 2.704-.835 2.012 2.012 0 0 1 .823 2.717 1.997 1.997 0 0 1-2.704.834z"/>
    <path stroke="#FFF" stroke-width="1.2" d="M417.18 164.212c-.383-3.683-2.919-5.718-7.607-6.106m-12.58 13.897c.84.885 3.362 1.9 5.723 2.4m8.891-21.062c4.016.355 7.154 2.587 9.413 6.696m-284.316-7.606c-4.282.35-7.764 2.615-10.446 6.792"/>
    <path stroke="#FFF" stroke-linejoin="round" stroke-width="1.2" d="M425.606 171.349c-2.208-.814-7.73 5.155-11.93 5.155-4.198 0-7.536-9.081-13.622-7.822-3.412 4.641-5.44 7.86-6.08 9.656-1.444 4.042.76 9.672 7.695 10.036 4.133.216 10.149-.551 18.046-2.303a4.354 4.354 0 0 0 3.345-3.496c1.125-6.4 2.868-12.939 4.947-15.223"/>
    <path stroke="#EDEDED" stroke-width="1.2" d="M433.147 175.211c2.445 4.265 6.114 7.186 11.007 8.764"/>
    <path stroke="#FFF" stroke-linejoin="round" stroke-width="1.2" d="M416.911 211.118c1.955-5.333-7.168-15.796-6.413-23.66"/>
    <path stroke="#FFF" stroke-linecap="round" stroke-linejoin="round" stroke-width="1.2" d="M474.82 233.833c10.935 33.221 16.403 53.757 16.403 61.606 0 7.85-5.35 17.511-16.049 28.985"/>
    <path stroke="#FFF" stroke-width="1.2" d="M450.975 57.5H471.1"/>
    <path fill="#868B91" d="M454.216 75.708h13.417a3.355 3.355 0 0 1 0 6.709h-13.417a3.355 3.355 0 0 1 0-6.709z"/>
    <path stroke="#0D1724" stroke-width="1.2" d="M189.237 99.188h30.667m-30.667 5.75h19.167"/>
    <path stroke="#FFF" stroke-width="1.2" d="M189.237 149.021h27.792m-27.792 5.75h35.458"/>
    <circle cx="374.195" cy="137.042" r="4.792" fill="#868B91"/>
    <path stroke="#FFF" stroke-width="1.2" d="M125.987 69h14.375m-14.375 29.229h25.875m-25.875-11.5h30.667m-30.667 5.75h19.167M450.975 63.25H471.1M450.975 69H471.1"/>
    <path stroke="#FFF" stroke-linecap="round" stroke-linejoin="round" stroke-width="1.2" d="M98.379 196.028c2.234-.624 4.296-1.876 6.185-3.757"/>
  </g>
</svg>
