<svg xmlns="http://www.w3.org/2000/svg" width="469" height="345" viewBox="0 0 469 345">
  <g fill="none" fill-rule="evenodd" transform="translate(-43 -58)">
    <circle cx="377.583" cy="306.287" r="95.833" stroke="#FFF" stroke-width="1.2"/>
    <rect width="90.083" height="36.417" x="399.625" y="230.578" fill="#868B91" rx="18.208"/>
    <path fill="#868B91" d="m417.833 266.995 6.648-7.871 9.644 7.871-16.292 16.292z"/>
    <circle cx="499.292" cy="136.662" r="11.5" fill="#868B91"/>
    <circle cx="411.125" cy="136.662" r="11.5" fill="#F5DD43"/>
    <circle cx="455.208" cy="98.328" r="11.5" fill="#868B91"/>
    <circle cx="499.292" cy="98.328" r="11.5" stroke="#FFF" stroke-width="1.2"/>
    <path stroke="#FFF" stroke-width="1.2" d="m401.542 98.206 6.042 5.872 13.124-11.5m24.917 43.961 6.043 5.873 13.124-11.5"/>
    <path stroke="#FFF" stroke-width="1.277" d="M355.12 294.208c-.796 2.126-.888 4.306-1.442 6.009-1.392 4.273-3.153 4.994-4.291 6.698-1.27 1.901-.355 3.151 2.745 3.75-1.86 5.546-2.396 9.318-1.607 11.315.789 1.997 4.024 2.996 9.704 2.996 2.334 4.957 2.32 11.312-.042 19.066"/>
    <path stroke="#FFF" stroke-linejoin="round" stroke-width="1.277" d="M356.473 286.779c-4.84 5.262.149 13.653 8.939 21.302 4.643-5.654 8.206-1.155 6.936 1.779-.846 1.955-2.759 4.182-5.738 6.678.41 8.002 7.008 5.954 6.702 15.566-.305 9.61 9.609 8.242 9.609 17.571 0 9.33 8.147 14.492 22.749 14.492h15.524c5.443-12.899-6.129-13.447-9.935-20.128-3.807-6.682-.122-10.774-3.724-16.578-3.602-5.804-12.72-9.867-12.72-16.673 0-6.806-.877-20.25-11.894-26.634s-21.609-2.638-26.448 2.625z"/>
    <path stroke="#FFF" stroke-width="1.2" d="M420.894 364.176c.275.57.52 1.148.733 1.732 2.528 6.9 2.847 15.18.959 24.84"/>
    <path stroke="#FFF" stroke-width="1.277" d="M351.708 345.958c6.5 8.29 17.043 11.202 31.625 8.735"/>
    <path stroke="#FFF" stroke-width="1.2" d="M50.083 300.537h160.5a6 6 0 0 1 6 6v57a6 6 0 0 1-6 6h-160.5a6 6 0 0 1-6-6v-57a6 6 0 0 1 6-6z"/>
    <path stroke="#FFF" stroke-width="1.17" d="M168.812 115.578h47.771v149.5h-149.5v-149.5h53.882"/>
    <path fill="#0D1724" fill-rule="nonzero" stroke="#FFF" stroke-width="1.2" d="M271.75 208.268a.957.957 0 0 1 1.635.677l.001 14.582c18.462 3.989 38.507-1.191 52.856-15.54 22.23-22.23 22.453-58.135.667-80.64l-.667-.677 20.33-20.33c33.682 33.683 33.682 88.294 0 121.976-19.953 19.952-47.248 28.086-73.187 24.4v22.077a.957.957 0 0 1-1.635.678l-32.924-32.924a.958.958 0 0 1 0-1.355l32.924-32.924z"/>
    <path fill="#0D1724" stroke="#FFF" stroke-linecap="round" stroke-linejoin="round" stroke-width="1.2" d="M340.48 394.312c-26.168-33.27-39.252-58.254-39.252-74.948 0-16.695 2.913-38.107 8.737-64.238l.887-27.25a1.56 1.56 0 0 1 1.56-1.51c.858 0 1.577.65 1.663 1.503l1.043 10.321h0l1.545-16.705a2.394 2.394 0 0 1 2.189-2.165 1.79 1.79 0 0 1 1.935 1.845l-.525 15.611h0l3.171-17.743a2.044 2.044 0 0 1 2.226-1.673 1.917 1.917 0 0 1 1.707 2.091l-1.68 17.325h.97l4.467-14.842a2.046 2.046 0 0 1 2.394-1.41 1.737 1.737 0 0 1 1.33 2.065c-.01.046-.023.09-.036.136-2.141 7.056-3.486 12.957-4.034 17.702"/>
    <path stroke="#FFF" stroke-width="1.2" d="M340.208 234.265c0 4.193-1.614 7.403-4.842 9.629-3.228 2.226-6.455 6.732-9.68 13.518-1.313 30.606-1.313 49.211 0 55.814.978 4.919 5.155 13.182 12.531 24.79 4.793 7.542 14.48 10.291 22.52 6.39 7.35 4.458 14.557 5.472 21.622 3.041m-77.609-68.572a106.26 106.26 0 0 0 20.125 1.917"/>
    <path fill="#0D1724" fill-rule="nonzero" stroke="#FFF" stroke-width="1.2" d="M299.417 126.389a.958.958 0 0 1-1.636-.678V111.13c-18.462-3.989-38.508 1.191-52.856 15.54-22.23 22.23-22.453 58.135-.667 80.64l.667.677-20.33 20.33c-33.682-33.683-33.682-88.294 0-121.977 19.952-19.952 47.248-28.085 73.186-24.4V59.864a.958.958 0 0 1 1.636-.678L332.34 92.11a.958.958 0 0 1 0 1.355l-32.924 32.924z"/>
    <path stroke="#FFF" stroke-width="1.2" d="m181.125 265.078 16.563-55.781m30.496-45.822 10.082-11.727a59.989 59.989 0 0 0 11.726-21.08l3.448-10.94"/>
    <path stroke="#FFF" stroke-linecap="round" stroke-width="1.2" d="M204.886 136.662c-3.293 5.255-12.14 12.602-26.542 22.042-9.376.12-14.656-.004-15.839-.374-3.565-1.116-6.045-1.817-7.44-2.103 0-2.928 1.808-6.363 3.374-8.121"/>
    <path fill="#0D1724" stroke="#FFF" stroke-linejoin="round" stroke-width="1.2" d="M113.917 225.224c29.316 33.28 49.4 42.396 60.25 27.349 11.662-16.171 23.186-35.995 34.575-59.472l16.766-23.583a2.035 2.035 0 0 0-.307-2.701 1.76 1.76 0 0 0-2.486.146l-.042.049-6.09 7.373 9.505-16.466a2.248 2.248 0 0 0-.797-3.054 2.357 2.357 0 0 0-3.153.7l-9.294 13.653 8.39-17.368a2.47 2.47 0 0 0-1.15-3.298l-.022-.011a2.606 2.606 0 0 0-3.417 1.147l-8.348 15.916-.934-.73 5.713-15.24a2.08 2.08 0 0 0-1.418-2.741 2.671 2.671 0 0 0-3.135 1.53l-8.113 18.87c-.665-9.738-2.64-15.315-5.925-16.731-.601 10.028-.601 21.044 0 33.048"/>
    <path stroke="#FFF" stroke-linejoin="round" stroke-width="1.2" d="M121.483 183.316c15.002 7.012 29.494 37.515 37.37 47.875 4.96-8.846 15.627-25.522 32.002-50.03l17.442 12.042"/>
    <path stroke="#868B91" stroke-width="1.2" d="M67.083 323.537h126.5"/>
    <path stroke="#F5DD43" stroke-width="1.2" d="M67.083 323.537h88.167"/>
    <path stroke="#868B91" stroke-width="1.2" d="M67.083 346.537h126.5"/>
    <path stroke="#FFF" stroke-width="1.2" d="M67.083 346.537H126.5"/>
    <circle cx="153.333" cy="323.537" r="5.75" fill="#F5DD43"/>
    <circle cx="124.583" cy="346.537" r="5.75" fill="#FFF"/>
    <path stroke="#FFF" stroke-linejoin="round" stroke-width="1.333" d="M132.718 153.995c2.467-8.721.965-14.768-4.508-18.14-3.02-1.862-7.803-6.223-5.068-11.698-3.818-5.211-3.183-13.595 7.472-15.138 1.995-8.17 13.144-13.37 20.9-7.057 3.058-2.445 7.712-5.516 13.935-1.317 3.914 2.641 4.665 8.74 2.144 10.997"/>
    <path stroke="#FFF" stroke-linejoin="round" stroke-width="1.333" d="M144.576 133.975c-4.11-5.149-4.265-10.296-1.41-11.628 2.04-.95 3.922-.055 6.121 3.547 2.165-2.523 4.998-7.002 4.076-11.176 4.08-.788 7.702-3.685 7.22-8.076 4.696 1.94 7.368 4.443 7.897 8.803.224 1.849-.254 4.108.719 5.93 2.393 4.486 5.313 6.993 6.357 8.288 1.013 1.257-.922 2.72-3.887 4.392.064.497.12.98.168 1.449 2.097 6.05 1.951 10.526-.437 13.426-3.583 4.35-18.585-2.66-20.678-4.982"/>
    <path fill="#FFF" d="M163.202 126.832a1.771 1.771 0 0 0 1.534-1.974 1.76 1.76 0 0 0-1.96-1.54 1.772 1.772 0 0 0-1.533 1.975 1.76 1.76 0 0 0 1.96 1.54z"/>
    <path stroke="#FFF" stroke-width="1.333" d="M157.801 127.692c1.325-3.92 4.277-5.225 8.856-3.917m6.659 15.73c-.97.463-3.364.502-5.462.167m-1.298-20.431c-3.63-1.063-7.207-.3-10.73 2.287"/>
    <path stroke="#FFF" stroke-width="1.2" d="m130.287 159.89-19.243 12.995a28.752 28.752 0 0 0-12.288 28.446l9.053 63.747"/>
    <path fill="#FFF" d="m162.23 157.62-1.514 7.448-7.105-2.78c.33-3.345.65-5.787.961-7.325l7.657 2.657zm-29.902-4.692-2.894 7.4 23.012 9.654 1.165-7.693z"/>
    <path fill="#0D1724" stroke="#FFF" stroke-width="1.2" d="m265.388 80.595-.036-.092h3.018a4 4 0 0 1 3.882 3.038l1.635 6.596c0 .005.002.009.003.013a2.346 2.346 0 0 1-1.73 2.832 2.517 2.517 0 0 1-2.995-1.698l-1.179-3.785-.19-.502 1.035 4.96a2.712 2.712 0 0 1-1.984 3.18 2.754 2.754 0 0 1-3.304-1.829l-1.255-3.916-2.034-8.72 1.282-.527a3.997 3.997 0 0 1 3.852.45zm-10.848 6.787 2.652 4.892a4.242 4.242 0 0 0 3.73 2.221 2.006 2.006 0 0 0 1.954-2.461l-2.58-11.097a3 3 0 0 0-3.96-2.135l-5.424 2a6.01 6.01 0 0 0-2.84 2.19c-2.264 3.237-3.397 5.849-3.397 7.835 4.288-1.79 7.576-2.94 9.866-3.445z"/>
    <path stroke="#0D1724" stroke-width="1.2" d="M417.833 253.099h54.625m-54.625-9.583h39.292"/>
    <path stroke="#FFF" stroke-width="1.2" d="m237.073 95.778 1.472-15.275c5.233 0 7.276 3.441 6.13 10.324"/>
  </g>
</svg>
