<svg xmlns="http://www.w3.org/2000/svg" xmlns:xlink="http://www.w3.org/1999/xlink" width="484" height="537" viewBox="0 0 484 537">
  <defs>
    <rect id="c" width="504" height="563" x="0" y="0" rx="12"/>
    <path id="a" d="M0 .5h484v536H0z"/>
  </defs>
  <g fill="none" fill-rule="evenodd">
    <mask id="b" fill="#fff">
      <use xlink:href="#a"/>
    </mask>
    <use xlink:href="#a" fill="#FFF"/>
    <g mask="url(#b)">
      <g transform="translate(-4 -14)">
        <mask id="d" fill="#fff">
          <use xlink:href="#c"/>
        </mask>
        <g mask="url(#d)">
          <path fill="#FFF" stroke="#333" stroke-width=".613" d="M347.47 91.19h136.619v136.619H347.47zm0 236.888h136.619v136.619H347.47zM184.099 91.19h136.619v136.619H184.099z" opacity=".24"/>
          <g transform="translate(190.327 97.418)">
            <circle cx="9.802" cy="9.802" r="9.802" fill="#ED5565"/>
            <path stroke="#FFF" stroke-width="3.267" d="M9.802 4.901v9.802M4.901 9.802h9.802"/>
          </g>
          <path fill="#F5F7FA" d="M363.501 97.418c5.414 0 9.803 4.389 9.803 9.802h-19.605l.004-.274a9.8 9.8 0 0 1 9.798-9.528z"/>
          <path fill="#ED5565" d="M373.304 107.22c0 5.414-4.39 9.803-9.803 9.803-5.412 0-9.802-4.39-9.802-9.803z"/>
          <path fill="#FFF" stroke="#333" stroke-width=".613" d="M183.282 328.078h136.619v136.619H183.282zM19.911 91.19H156.53v136.619H19.911z" opacity=".24"/>
          <g transform="translate(26.14 97.418)">
            <circle cx="9.802" cy="9.802" r="9.802" fill="#4A89DC"/>
            <path fill="#FFD551" d="M19.44 8a9.9 9.9 0 0 1-.083 4.001H.247A9.894 9.894 0 0 1 .165 8z"/>
            <path fill="#FFD551" d="M9.802 0c.066 0 .132 0 .198.002v19.599l-.198.004a9.768 9.768 0 0 1-3.803-.766V.765A9.77 9.77 0 0 1 9.802 0z"/>
          </g>
          <path fill="#FFF" stroke="#333" stroke-width=".613" d="M19.911 328.078H156.53v136.619H19.911z" opacity=".24"/>
          <path fill="#333" d="M286.422 184.534c-19.68-8.139-23.064-11.53-23.609-12.604v-2.676a26.482 26.482 0 0 0 5.019-9.908 8.183 8.183 0 0 0 2.556-4.939 8.35 8.35 0 0 0-1.222-5.614v-7.838c0-10.533-6.109-16.58-16.748-16.58-10.508 0-16.767 6.198-16.767 16.58v7.838a8.361 8.361 0 0 0-1.222 5.614 8.183 8.183 0 0 0 2.556 4.937 26.47 26.47 0 0 0 5.02 9.91v2.676c-.546 1.055-3.91 4.465-23.61 12.604a4.562 4.562 0 0 0-2.745 4.257v3.977c0 1.02.825 1.847 1.843 1.847a1.845 1.845 0 0 0 1.842-1.847v-3.977a.808.808 0 0 1 .45-.735c21.449-8.874 25.095-12.68 25.828-15.224.06-.176.092-.36.094-.546v-3.768a1.94 1.94 0 0 0-.507-1.299 22.728 22.728 0 0 1-4.831-9.46 1.817 1.817 0 0 0-.677-1.053 4.283 4.283 0 0 1-1.616-2.826 4.53 4.53 0 0 1 .864-3.314c.26-.335.398-.747.395-1.17v-8.441c0-8.234 4.643-12.775 13.083-12.775 8.666 0 13.045 4.296 13.045 12.775v8.44c.008.422.146.83.395 1.169a4.456 4.456 0 0 1 .884 3.316 4.295 4.295 0 0 1-1.617 2.826 1.948 1.948 0 0 0-.695 1.055 22.496 22.496 0 0 1-4.813 9.457c-.324.356-.504.82-.507 1.301v3.769c.002.186.034.37.094.546.733 2.562 4.398 6.368 25.827 15.224a.776.776 0 0 1 .433.735v3.975c0 1.025.829 1.856 1.851 1.856 1.023 0 1.852-.83 1.852-1.856v-3.975a4.618 4.618 0 0 0-2.743-4.26l-.002.001zm0 236.889c-19.68-8.14-23.064-11.531-23.609-12.605v-2.676a26.467 26.467 0 0 0 5.019-9.908 8.18 8.18 0 0 0 2.556-4.938 8.351 8.351 0 0 0-1.222-5.615v-7.838c0-10.532-6.109-16.58-16.748-16.58-10.508 0-16.767 6.198-16.767 16.58v7.838a8.363 8.363 0 0 0-1.222 5.615 8.183 8.183 0 0 0 2.556 4.936 26.47 26.47 0 0 0 5.02 9.91v2.676c-.546 1.055-3.91 4.465-23.61 12.605a4.558 4.558 0 0 0-2.745 4.256v3.977c0 1.02.825 1.847 1.843 1.847a1.845 1.845 0 0 0 1.842-1.847v-3.977a.808.808 0 0 1 .45-.735c21.449-8.874 25.095-12.68 25.828-15.224.06-.176.092-.36.094-.546v-3.768a1.935 1.935 0 0 0-.507-1.298 22.74 22.74 0 0 1-4.831-9.46 1.82 1.82 0 0 0-.677-1.054 4.283 4.283 0 0 1-1.616-2.826 4.53 4.53 0 0 1 .864-3.314c.26-.335.398-.747.395-1.17v-8.441c0-8.234 4.643-12.775 13.083-12.775 8.666 0 13.045 4.296 13.045 12.775v8.44c.008.422.146.83.395 1.169a4.457 4.457 0 0 1 .884 3.316 4.295 4.295 0 0 1-1.617 2.826 1.952 1.952 0 0 0-.695 1.055 22.49 22.49 0 0 1-4.813 9.457c-.324.356-.504.82-.507 1.302v3.768c.002.186.034.37.094.546.733 2.563 4.398 6.369 25.827 15.224a.776.776 0 0 1 .433.735v3.975c0 1.025.829 1.856 1.851 1.856 1.023 0 1.852-.83 1.852-1.856v-3.975a4.618 4.618 0 0 0-2.743-4.26l-.002.002zm163.372-236.889c-19.681-8.139-23.065-11.53-23.61-12.604v-2.676a26.482 26.482 0 0 0 5.019-9.908 8.178 8.178 0 0 0 2.556-4.939 8.355 8.355 0 0 0-1.221-5.614v-7.838c0-10.533-6.11-16.58-16.749-16.58-10.508 0-16.767 6.198-16.767 16.58v7.838a8.361 8.361 0 0 0-1.222 5.614 8.18 8.18 0 0 0 2.557 4.937c.953 3.622 2.664 7 5.018 9.91v2.676c-.545 1.055-3.91 4.465-23.609 12.604a4.56 4.56 0 0 0-2.744 4.257v3.977c0 1.02.824 1.847 1.842 1.847a1.845 1.845 0 0 0 1.842-1.847v-3.977a.807.807 0 0 1 .451-.735c21.448-8.874 25.094-12.68 25.828-15.224.06-.176.091-.36.094-.546v-3.768a1.945 1.945 0 0 0-.508-1.299 22.714 22.714 0 0 1-4.83-9.46 1.819 1.819 0 0 0-.678-1.053 4.283 4.283 0 0 1-1.616-2.826 4.525 4.525 0 0 1 .865-3.314c.259-.335.398-.747.394-1.17v-8.441c0-8.234 4.643-12.775 13.083-12.775 8.666 0 13.046 4.296 13.046 12.775v8.44c.007.422.145.83.394 1.169a4.456 4.456 0 0 1 .884 3.316 4.29 4.29 0 0 1-1.617 2.826 1.948 1.948 0 0 0-.695 1.055 22.494 22.494 0 0 1-4.812 9.457c-.324.356-.505.82-.508 1.301v3.769c.002.186.034.37.094.546.733 2.562 4.399 6.368 25.828 15.224a.777.777 0 0 1 .432.735v3.975c0 1.025.829 1.856 1.851 1.856 1.023 0 1.852-.83 1.852-1.856v-3.975a4.618 4.618 0 0 0-2.743-4.26l-.001.001zm0 236.889c-19.681-8.14-23.065-11.531-23.61-12.605v-2.676a26.467 26.467 0 0 0 5.019-9.908 8.175 8.175 0 0 0 2.556-4.938 8.356 8.356 0 0 0-1.221-5.615v-7.838c0-10.532-6.11-16.58-16.749-16.58-10.508 0-16.767 6.198-16.767 16.58v7.838a8.363 8.363 0 0 0-1.222 5.615 8.18 8.18 0 0 0 2.557 4.936c.953 3.622 2.664 7 5.018 9.91v2.676c-.545 1.055-3.91 4.465-23.609 12.605a4.556 4.556 0 0 0-2.744 4.256v3.977c0 1.02.824 1.847 1.842 1.847a1.845 1.845 0 0 0 1.842-1.847v-3.977a.807.807 0 0 1 .451-.735c21.448-8.874 25.094-12.68 25.828-15.224.06-.176.091-.36.094-.546v-3.768a1.94 1.94 0 0 0-.508-1.298 22.726 22.726 0 0 1-4.83-9.46 1.821 1.821 0 0 0-.678-1.054 4.283 4.283 0 0 1-1.616-2.826 4.525 4.525 0 0 1 .865-3.314c.259-.335.398-.747.394-1.17v-8.441c0-8.234 4.643-12.775 13.083-12.775 8.666 0 13.046 4.296 13.046 12.775v8.44c.007.422.145.83.394 1.169a4.457 4.457 0 0 1 .884 3.316 4.29 4.29 0 0 1-1.617 2.826 1.952 1.952 0 0 0-.695 1.055 22.488 22.488 0 0 1-4.812 9.457c-.324.356-.505.82-.508 1.302v3.768c.002.186.034.37.094.546.733 2.563 4.399 6.369 25.828 15.224a.777.777 0 0 1 .432.735v3.975c0 1.025.829 1.856 1.851 1.856 1.023 0 1.852-.83 1.852-1.856v-3.975a4.618 4.618 0 0 0-2.743-4.26l-.001.002z" opacity=".16"/>
          <path fill="#333" d="M26.139 241.185h124.162v13.07H26.139zm0 236.888h124.162v13.07H26.139zm169.906-236.888h112.726v13.07H196.045zm0 236.888h112.726v13.07H196.045zm171.54-236.888h96.389v13.07h-96.389zm0 236.888h96.389v13.07h-96.389z" opacity=".08"/>
          <path fill="#333" d="M122.234 184.534c-19.68-8.139-23.064-11.53-23.61-12.604v-2.676a26.47 26.47 0 0 0 5.02-9.908 8.183 8.183 0 0 0 2.556-4.939 8.35 8.35 0 0 0-1.222-5.614v-7.838c0-10.533-6.109-16.58-16.748-16.58-10.508 0-16.767 6.198-16.767 16.58v7.838a8.361 8.361 0 0 0-1.222 5.614 8.183 8.183 0 0 0 2.556 4.937 26.47 26.47 0 0 0 5.02 9.91v2.676c-.546 1.055-3.91 4.465-23.61 12.604a4.56 4.56 0 0 0-2.745 4.257v3.977c0 1.02.825 1.847 1.843 1.847a1.845 1.845 0 0 0 1.842-1.847v-3.977a.808.808 0 0 1 .45-.735c21.449-8.874 25.095-12.68 25.828-15.224.06-.176.092-.36.094-.546v-3.768a1.94 1.94 0 0 0-.507-1.299 22.728 22.728 0 0 1-4.831-9.46 1.817 1.817 0 0 0-.677-1.053 4.283 4.283 0 0 1-1.616-2.826 4.53 4.53 0 0 1 .864-3.314c.26-.335.398-.747.395-1.17v-8.441c0-8.234 4.643-12.775 13.083-12.775 8.666 0 13.045 4.296 13.045 12.775v8.44c.008.422.146.83.395 1.169a4.456 4.456 0 0 1 .884 3.316 4.295 4.295 0 0 1-1.617 2.826 1.948 1.948 0 0 0-.695 1.055 22.496 22.496 0 0 1-4.813 9.457c-.324.356-.504.82-.507 1.301v3.769c.002.186.034.37.094.546.733 2.562 4.398 6.368 25.827 15.224a.776.776 0 0 1 .433.735v3.975c0 1.025.829 1.856 1.851 1.856 1.023 0 1.852-.83 1.852-1.856v-3.975a4.618 4.618 0 0 0-2.743-4.26l-.002.001zm0 236.889c-19.68-8.14-23.064-11.531-23.61-12.605v-2.676a26.455 26.455 0 0 0 5.02-9.908 8.18 8.18 0 0 0 2.556-4.938 8.351 8.351 0 0 0-1.222-5.615v-7.838c0-10.532-6.109-16.58-16.748-16.58-10.508 0-16.767 6.198-16.767 16.58v7.838a8.363 8.363 0 0 0-1.222 5.615 8.183 8.183 0 0 0 2.556 4.936 26.47 26.47 0 0 0 5.02 9.91v2.676c-.546 1.055-3.91 4.465-23.61 12.605a4.557 4.557 0 0 0-2.745 4.256v3.977c0 1.02.825 1.847 1.843 1.847a1.845 1.845 0 0 0 1.842-1.847v-3.977a.808.808 0 0 1 .45-.735c21.449-8.874 25.095-12.68 25.828-15.224.06-.176.092-.36.094-.546v-3.768a1.935 1.935 0 0 0-.507-1.298 22.74 22.74 0 0 1-4.831-9.46 1.82 1.82 0 0 0-.677-1.054 4.283 4.283 0 0 1-1.616-2.826 4.53 4.53 0 0 1 .864-3.314c.26-.335.398-.747.395-1.17v-8.441c0-8.234 4.643-12.775 13.083-12.775 8.666 0 13.045 4.296 13.045 12.775v8.44c.008.422.146.83.395 1.169a4.457 4.457 0 0 1 .884 3.316 4.295 4.295 0 0 1-1.617 2.826 1.952 1.952 0 0 0-.695 1.055 22.49 22.49 0 0 1-4.813 9.457c-.324.356-.504.82-.507 1.302v3.768c.002.186.034.37.094.546.733 2.563 4.398 6.369 25.827 15.224a.776.776 0 0 1 .433.735v3.975c0 1.025.829 1.856 1.851 1.856 1.023 0 1.852-.83 1.852-1.856v-3.975a4.618 4.618 0 0 0-2.743-4.26l-.002.002z" opacity=".16"/>
          <path fill="#333" d="M46.561 260.789h83.319v13.07H46.561zm0 236.888h83.319v13.07H46.561zM200.13 260.789h104.558v13.07H200.13zm0 236.888h104.558v13.07H200.13zm153.569-236.888h124.162v13.07H353.699zm0 236.888h124.162v13.07H353.699z" opacity=".08"/>
          <g transform="translate(190.327 334.306)">
            <circle cx="9.802" cy="9.802" r="9.802" fill="#ED5565"/>
            <path fill="#F5F7FA" d="M19.605 9.802a9.794 9.794 0 0 1-.558 3.268H.557A9.844 9.844 0 0 1 0 9.802zm-2.497 6.536a9.779 9.779 0 0 1-7.306 3.267 9.778 9.778 0 0 1-7.305-3.267z"/>
            <path fill="#4A89DC" d="M9.802 0v9.802H0l.004-.274A9.8 9.8 0 0 1 9.802 0z"/>
            <path fill="#F5F7FA" d="M17.108 3.266a9.8 9.8 0 0 1 1.939 3.269H9.802V3.267z"/>
          </g>
          <path fill="#ED5565" d="M366.772 334.865a9.806 9.806 0 0 1 0 18.487z"/>
          <path fill="#434A54" d="M360.233 334.864v18.488a9.806 9.806 0 0 1 0-18.488z"/>
          <path fill="#F6D660" d="M363.501 334.306c1.146 0 2.246.197 3.268.558v18.489c-1.022.36-2.122.558-3.268.558s-2.246-.197-3.268-.559v-18.488a9.794 9.794 0 0 1 3.268-.558z"/>
          <path fill="#ED5565" d="M45.211 347.306c-1.326 3.844-4.975 6.605-9.269 6.605a9.804 9.804 0 0 1-9.268-6.605z"/>
          <path fill="#4A89DC" d="M45.186 340.84c.362 1.022.559 2.122.559 3.268s-.197 2.246-.558 3.268h-18.49a9.844 9.844 0 0 1 .001-6.536z"/>
          <path fill="#F5F7FA" d="M35.942 334.306a9.805 9.805 0 0 1 9.244 6.534H26.698a9.806 9.806 0 0 1 9.244-6.534z"/>
          <path fill="#F5DD43" d="M165.005 38.506h86.587v27.773h-86.587z"/>
          <path fill="#0D1724" d="M178.891 48.308h58.814v8.169h-58.814z"/>
          <path fill="#333" d="M270.379 48.308h68.616v8.169h-68.616z" opacity=".24"/>
        </g>
        <path stroke="#E3E3E3" stroke-width="1.05" d="M492 562.475H12a11.438 11.438 0 0 1-8.114-3.361A11.436 11.436 0 0 1 .525 551V12a11.44 11.44 0 0 1 3.36-8.114A11.445 11.445 0 0 1 12 .525h480a11.44 11.44 0 0 1 8.114 3.36A11.442 11.442 0 0 1 503.475 12v539c0 3.169-1.284 6.037-3.361 8.114a11.438 11.438 0 0 1-8.114 3.361z" mask="url(#d)"/>
      </g>
    </g>
  </g>
</svg>
