<svg xmlns="http://www.w3.org/2000/svg" xmlns:xlink="http://www.w3.org/1999/xlink" width="484" height="537" viewBox="0 0 484 537">
  <defs>
    <rect id="c" width="504" height="563" x="0" y="0" rx="12"/>
    <path id="a" d="M0 .5h484v536H0z"/>
  </defs>
  <g fill="none" fill-rule="evenodd">
    <mask id="b" fill="#fff">
      <use xlink:href="#a"/>
    </mask>
    <use xlink:href="#a" fill="#FFF"/>
    <g mask="url(#b)">
      <g transform="translate(-4 -2)">
        <mask id="d" fill="#fff">
          <use xlink:href="#c"/>
        </mask>
        <g mask="url(#d)">
          <path stroke="#F5DD43" stroke-linecap="round" stroke-linejoin="round" stroke-width="4" d="m209 510 5 5 10-10m-15-75 5 5 10-10"/>
          <path fill="#333" d="M0 474h504v1H0z" opacity=".08"/>
          <path stroke="#F5DD43" stroke-linecap="round" stroke-linejoin="round" stroke-width="4" d="m209 350 5 5 10-10"/>
          <path fill="#333" d="M0 393h504v1H0z" opacity=".08"/>
          <path stroke="#D9D9D9" stroke-linecap="round" stroke-linejoin="round" stroke-width="4" d="m222 264-12 12m0-12 12 12"/>
          <path fill="#333" d="M0 312h504v1H0z" opacity=".08"/>
          <path stroke="#F5DD43" stroke-linecap="round" stroke-linejoin="round" stroke-width="4" d="m209 190 5 5 10-10"/>
          <path fill="#333" d="M0 231h504v1H0z" opacity=".08"/>
          <path fill="#333" d="M24 105h95v10H24zm0 81h95v10H24zm0 81h95v10H24zm0 81h95v10H24zm0 81h95v10H24zm0 81h95v10H24z" opacity=".163"/>
          <path stroke="#F5DD43" stroke-linecap="round" stroke-linejoin="round" stroke-width="4" d="m209 110 5 5 10-10"/>
          <path fill="#333" d="M0 150h504v1H0z" opacity=".08"/>
          <text fill="#000" font-family="Montserrat-Regular, Montserrat" font-size="14">
            <tspan x="151.386" y="38">Гипотеза 1</tspan>
          </text>
          <text fill="#000" font-family="Montserrat-Regular, Montserrat" font-size="14">
            <tspan x="267.488" y="38">Гипотеза 2</tspan>
          </text>
          <text fill="#000" font-family="Montserrat-Regular, Montserrat" font-size="14">
            <tspan x="386.544" y="38">Гипотеза 3</tspan>
          </text>
          <path fill="#333" d="M0 69h504v1H0z" opacity=".08"/>
          <path stroke="#F5DD43" stroke-linecap="round" stroke-linejoin="round" stroke-width="4" d="m447 510 5 5 10-10"/>
          <path stroke="#D9D9D9" stroke-linecap="round" stroke-linejoin="round" stroke-width="4" d="m460 424-12 12m0-12 12 12"/>
          <path stroke="#F5DD43" stroke-linecap="round" stroke-linejoin="round" stroke-width="4" d="m447 350 5 5 10-10m-15-75 5 5 10-10m-15-75 5 5 10-10m-15-75 5 5 10-10M328 512l5 5 10-10m-15-75 5 5 10-10"/>
          <path stroke="#D9D9D9" stroke-linecap="round" stroke-linejoin="round" stroke-width="4" d="m341 346-12 12m0-12 12 12"/>
          <path stroke="#F5DD43" stroke-linecap="round" stroke-linejoin="round" stroke-width="4" d="m328 272 5 5 10-10"/>
          <path stroke="#D9D9D9" stroke-linecap="round" stroke-linejoin="round" stroke-width="4" d="m341 186-12 12m0-12 12 12"/>
          <path stroke="#F5DD43" stroke-linecap="round" stroke-linejoin="round" stroke-width="4" d="m328 112 5 5 10-10"/>
        </g>
        <path stroke="#E3E3E3" stroke-width="1.05" d="M492 562.475H12a11.438 11.438 0 0 1-8.114-3.361A11.436 11.436 0 0 1 .525 551V12a11.44 11.44 0 0 1 3.36-8.114A11.445 11.445 0 0 1 12 .525h480a11.44 11.44 0 0 1 8.114 3.36A11.442 11.442 0 0 1 503.475 12v539c0 3.169-1.284 6.037-3.361 8.114a11.438 11.438 0 0 1-8.114 3.361z" mask="url(#d)"/>
      </g>
    </g>
  </g>
</svg>
