<svg xmlns="http://www.w3.org/2000/svg" xmlns:xlink="http://www.w3.org/1999/xlink" width="484" height="522" viewBox="0 0 484 522">
  <defs>
    <path id="a" d="M0 .5h484v521H0z"/>
  </defs>
  <g fill="none" fill-rule="evenodd">
    <mask id="b" fill="#fff">
      <use xlink:href="#a"/>
    </mask>
    <use xlink:href="#a" fill="#FFF"/>
    <g mask="url(#b)">
      <g transform="translate(12 20.5)">
        <rect width="105.003" height="12.115" x=".292" y="69.894" fill="#DDD" rx="6.057"/>
        <rect width="146.538" height="12.115" x=".292" y="89.464" fill="#DDD" rx="6.057"/>
        <rect width="112.004" height="12.115" x=".292" y="109.034" fill="#DDD" rx="6.057"/>
        <rect width="46.668" height="7.455" x=".292" y="150.505" fill="#DDD" rx="3.728"/>
        <rect width="46.668" height="7.455" x=".292" y="195.237" fill="#DDD" rx="3.728"/>
        <rect width="165.205" height="7.455" x=".292" y="161.688" fill="#DDD" rx="3.728"/>
        <rect width="165.205" height="7.455" x=".292" y="206.42" fill="#DDD" rx="3.728"/>
        <rect width="122.271" height="7.455" x=".292" y="172.871" fill="#DDD" rx="3.728"/>
        <rect width="122.271" height="7.455" x=".292" y="217.603" fill="#DDD" rx="3.728"/>
        <path fill="#F5DD43" d="M199.098 0h122.271v164.949H199.098z"/>
        <path fill="#FFF" d="M293.316 14.58h8.748v6.804h-8.748V14.58zm-.972 0c0-.537.435-.972.972-.972h8.748c.537 0 .972.435.972.972v6.804a.972.972 0 0 1-.972.972h-8.748a.972.972 0 0 1-.972-.972V14.58zm8.748 1.944a.972.972 0 1 1-1.944 0 .972.972 0 0 1 1.944 0zm0 3.888h-6.804v-2.126l1.174-.99a.486.486 0 0 1 .654.024l1.303 1.28c.16.156.404.184.595.067l.886-.544c.18-.11.41-.092.57.046l1.622 1.393v.85z"/>
        <path fill="#F5DD43" d="M335.37 27.958h122.271v122.081H335.37z"/>
        <path fill="#FFF" d="M435.228 43.74h8.748v6.804h-8.748V43.74zm-.972 0c0-.537.435-.972.972-.972h8.748c.537 0 .972.435.972.972v6.804a.972.972 0 0 1-.972.972h-8.748a.972.972 0 0 1-.972-.972V43.74zm8.748 1.944a.972.972 0 1 1-1.944 0 .972.972 0 0 1 1.944 0zm0 3.888H436.2v-2.126l1.174-.99a.486.486 0 0 1 .654.024l1.303 1.28c.16.156.404.184.595.067l.886-.544c.18-.11.41-.092.57.046l1.622 1.393v.85z"/>
        <path fill="#F5DD43" d="M335.37 164.017h122.271v164.907H335.37z"/>
        <path fill="#FFF" d="M435.228 185.652h8.748v6.804h-8.748v-6.804zm-.972 0c0-.537.435-.972.972-.972h8.748c.537 0 .972.435.972.972v6.804a.972.972 0 0 1-.972.972h-8.748a.972.972 0 0 1-.972-.972v-6.804zm8.748 1.944a.972.972 0 1 1-1.944 0 .972.972 0 0 1 1.944 0zm0 3.888H436.2v-2.126l1.174-.99a.486.486 0 0 1 .654.024l1.303 1.28c.16.156.404.184.595.067l.886-.544c.18-.11.41-.092.57.046l1.622 1.393v.85z"/>
        <path fill="#F5DD43" d="M199.098 178.928h122.271v122.081H199.098z"/>
        <path fill="#FFF" d="M293.316 201.204h8.748v6.804h-8.748v-6.804zm-.972 0c0-.537.435-.972.972-.972h8.748c.537 0 .972.435.972.972v6.804a.972.972 0 0 1-.972.972h-8.748a.972.972 0 0 1-.972-.972v-6.804zm8.748 1.944a.972.972 0 1 1-1.944 0 .972.972 0 0 1 1.944 0zm0 3.888h-6.804v-2.126l1.174-.99a.486.486 0 0 1 .654.024l1.303 1.28c.16.156.404.184.595.067l.886-.544c.18-.11.41-.092.57.046l1.622 1.393v.85z"/>
        <path fill="#F5DD43" d="M.292 458.693h189.104v137.498H.292z"/>
        <path fill="#FFF" d="M166.444 473.638h8.98v6.975h-8.98v-6.975zm-.998 0c0-.55.446-.996.998-.996h8.98c.552 0 .999.446.999.996v6.975c0 .55-.447.996-.998.996h-8.981a.997.997 0 0 1-.998-.996v-6.975zm8.98 1.993a.996.996 0 1 1-1.995 0 .996.996 0 0 1 1.996 0zm0 3.985h-6.985v-2.18l1.206-1.014a.498.498 0 0 1 .67.025l1.339 1.311c.163.16.415.19.61.07l.91-.558a.5.5 0 0 1 .586.047l1.665 1.428v.871z"/>
        <path fill="#F5DD43" d="M221.328 458.289h237.003v285.458H221.328z" opacity=".32"/>
        <g opacity=".56">
          <rect width="189.104" height="137.498" fill="#333" opacity=".163" rx="3.118" transform="translate(245.278 482.202)"/>
        </g>
        <path fill="#DDD" d="M176.018 414.749h105.003v12.115H176.018zm-20.165-15.904h146.538v12.115H155.853z"/>
      </g>
    </g>
  </g>
</svg>
