<svg xmlns="http://www.w3.org/2000/svg" width="577" height="376" viewBox="0 0 577 376">
  <g fill="none" fill-rule="evenodd" transform="translate(1 1)">
    <path fill="#F7F7F7" d="M18 12h545v330H18z"/>
    <path fill="#0D1724" stroke="#0D1724" stroke-linejoin="round" stroke-width="1.5" d="M219 213.573c0-7.92-1.045-15.806-3.11-23.452l-3.641-13.491H219z"/>
    <path fill="#FFF" d="M127 172h84l4.89 18.12a89.96 89.96 0 0 1 3.11 23.453V256h-84v-42.427c0-7.92-1.045-15.806-3.11-23.452L127 172z"/>
    <path stroke="#F5DD43" stroke-width="6" d="M241 208.994c11.208 8.642 16.813 13.79 16.813 15.444 0 1.654-4.271 5.51-12.813 11.567m12.578-11.567c-90.864-14.508-136.297 5.457-136.297 59.895"/>
    <path stroke="#0D1724" stroke-linejoin="round" stroke-width="1.5" d="M127 172h84l4.89 18.12a89.96 89.96 0 0 1 3.11 23.453V256h-84v-42.427c0-7.92-1.045-15.806-3.11-23.452L127 172z"/>
    <path fill="#FFF" stroke="#0D1724" stroke-linecap="round" stroke-linejoin="round" stroke-width="1.5" d="m574.628 357.714-29.3-73.036c1.664-18.843-1.434-33.442-3.293-43.796-3.125-17.41-8.319-44.712-9.372-57.38-1.052-12.668 3.35-18.963 1.795-23.158-1.554-4.195-10.714-4.568-18.263 9.814-7.392 14.085 2.093 54.36-9.273 70.724-14.145-.625-26.848-6.17-38.111-16.631-5.524-5.132-7.551-18.573-14.97-38.74 6.73-10.82 5.848-18.073 11.043-25.84 7.092-10.602 7.092-25.787 1.046-24.66-5.618 5.272-18.159 19.426-22.572 29.933-4.414 10.507-9.936 16.823-9.18 24.12.503 4.864 3.608 18.507 9.315 40.93l-60.62-59.147c-9.307-7.261-15.546-9.067-18.717-5.419-3.023 3.477 3.757 8.186 18.654 26.507 6.608 8.127 20.269 24.764 40.982 49.91l-67.058-36.475c-7.698-4.043-11.6-1.256-13.429 1.91-1.847 3.2 2.61 3.26 9.228 8.58 6.815 5.475 26.102 19.19 57.862 41.145-25.025-3.866-38.861-3.506-41.51 1.081-3.972 6.881 1.37 6.413 6.065 7.06 6.519.897 26.814 6.009 55.69 12.336l69.332 41.76a3.51 3.51 0 0 1 1.576 1.942l11.873 36.248"/>
    <path stroke="#0D1724" stroke-width="1.5" d="m443.493 229.994 3.962 15.445m-23.662-3.594 10.459 12.15m-23.858 3.01 9.223 7.204"/>
    <path stroke="#333" stroke-linecap="round" stroke-width="1.5" d="M533.08 159.174c-4.185 1.352-6.63 4.458-7.332 9.317-1.053 7.288 5.834 10.125 5.834 10.125"/>
    <path stroke="#333" stroke-width="1.5" d="M467.566 135.033c.686 1.994.619 4.037-.203 6.13-1.324 3.372-4.546 5.941-9.665 7.707"/>
    <path stroke="#333" stroke-linecap="round" stroke-width="1.5" d="M371.315 178.616c2.142-5.82.208-10.465-5.801-13.935m-20.569 40.731c2.975.51 5.269 1.835 6.88 3.972 1.612 2.138 2.202 4.486 1.77 7.045"/>
    <path fill="#FFF" stroke="#0D1724" stroke-linecap="round" stroke-linejoin="round" stroke-width="1.5" d="m63.754 0 18.22 31.814c19.47 3.127 33.236 8.49 41.302 16.088 7.519 7.084 18.915 28.18 26.501 39.45 3.04 4.515 8.754 10.925 17.143 19.228a3 3 0 0 1-.855 4.856c-6.403 2.953-11.833 2.848-16.288-.314-5.302-3.762-16.017-15.711-32.147-35.846 16.552 32.253 28.396 52.54 35.53 60.86 10.703 12.48 20.992 31.497 26.387 42.29 3.128 6.26 3.265 12.388.409 18.387a2.057 2.057 0 0 1-3.41.462l-58.916-68.082c-42.54 6.207-66.845 5.471-72.914-2.207-6.07-7.678-11.862-34.82-17.38-81.427L1 0"/>
    <path stroke="#0D1724" stroke-linecap="round" stroke-width="1.5" d="M158.352 97.5c-3.149 3.995-2.399 8.065 3.148 15"/>
    <path stroke="#0D1724" stroke-width="1.5" d="M166 184.318c4.717-1.329 9.831 1.504 15.344 8.5"/>
    <path fill="#FFF" d="M492.512 36.584c22.085 0 39.988 17.903 39.988 39.988 0 9.338-2.912 17.927-8.736 25.769a67.564 67.564 0 0 0-13.326 40.287v19.437h-35.852v-19.436a67.567 67.567 0 0 0-13.326-40.288c-5.825-7.842-8.737-16.431-8.737-25.769 0-22.085 17.904-39.988 39.989-39.988z"/>
    <path fill="#F5DD43" d="M503.56 37.782c11.775 10.958 16.02 23.978 12.74 39.062-4.921 22.628-36.507 37.105-35.388 65.051l34.7.337c-.195-13.303 4.796-27.528 14.975-42.675 15.268-22.72 5.114-57.186-27.025-61.775z"/>
    <path stroke="#0D1724" stroke-width="1.5" d="M492.512 36.584c22.085 0 39.988 17.903 39.988 39.988 0 9.338-2.912 17.927-8.736 25.769a67.564 67.564 0 0 0-13.326 40.287v19.437h-35.852v-19.436a67.567 67.567 0 0 0-13.326-40.288c-5.825-7.842-8.737-16.431-8.737-25.769 0-22.085 17.904-39.988 39.989-39.988z"/>
    <path fill="#F7F7F7" stroke="#0D1724" stroke-width="1.5" d="M471.024 142.3H514v29.072a7.584 7.584 0 0 1-7.584 7.584h-27.808a7.583 7.583 0 0 1-7.584-7.584V142.3z"/>
    <path stroke="#0D1724" stroke-width="1.5" d="m495.959 141.61 6.894-56.451a6.207 6.207 0 0 1 12.411 0 6.206 6.206 0 0 1-6.205 6.205h-32.996a6.304 6.304 0 0 1-6.303-6.304v-.1a6.205 6.205 0 0 1 12.41.001l6.894 56.65"/>
    <path fill="#0D1724" d="M480.225 179.056h25.51v1.38a5.516 5.516 0 0 1-5.515 5.515h-14.48a5.517 5.517 0 0 1-5.516-5.516v-1.379z"/>
    <path fill="#F5DD43" d="m298.76 263.538 4.243-11.314 9.9 9.9-7.779 7.778z"/>
    <path stroke="#0D1724" stroke-linejoin="round" stroke-width="1.5" d="m321.388 305.964 27.577-27.577 67.882 73.54-21.92 21.92z"/>
    <path fill="#0D1724" stroke="#0D1724" stroke-linejoin="round" stroke-width="1.5" d="m303.71 271.316 10.607-10.606 19.091 14.849 15.557 2.828-27.577 27.577-2.829-15.556-14.85-19.092z"/>
    <path fill="#F5DD43" d="M187 6h80v75.556L221.618 86H187z"/>
    <path stroke="#0D1724" stroke-linecap="round" stroke-width="1.5" d="m225.156 86 33.85-13.873L266 82"/>
    <path stroke="#0D1724" stroke-width="1.5" d="M201 26.5h41m-41 12.012h49"/>
    <g stroke-width="1.5" transform="translate(37 247)">
      <circle cx="37" cy="36" r="35" fill="#333" stroke="#333"/>
      <circle cx="35" cy="35" r="35" fill="#F7F7F7" stroke="#0D1724"/>
      <circle cx="35" cy="24.889" r="12.444" fill="#FFF" stroke="#0D1724"/>
      <path stroke="#0D1724" d="M60.667 58.333c-5.332-8.405-14.835-14-25.67-14-10.831 0-20.331 5.591-25.664 13.991"/>
    </g>
    <path stroke="#0D1724" stroke-linecap="round" stroke-linejoin="round" stroke-width="1.5" d="M210 280h66v52h-66z"/>
    <path fill="#0D1724" fill-rule="nonzero" d="m329.484 216.392.04 1.499c-1.653.045-3.272.06-4.855.043l-1.18-.018.03-1.5c1.932.04 3.921.03 5.965-.024zm-17.83-.903c1.583.229 3.216.416 4.898.563l1.015.083-.114 1.495a91.323 91.323 0 0 1-5.041-.522l-.973-.135.214-1.484zm29.748.11.153 1.492c-1.638.168-3.247.31-4.827.429l-1.18.083-.101-1.496c1.94-.131 3.925-.3 5.955-.508zm-41.295-2.793c1.552.523 3.17.99 4.855 1.4l.849.2-.336 1.463a61.655 61.655 0 0 1-5.045-1.378l-.802-.264.48-1.421zm-10.619-5.136a40.546 40.546 0 0 0 4.443 2.581l.679.332-.649 1.353a42.937 42.937 0 0 1-4.684-2.61l-.625-.411.836-1.245zm-8.552-8.089a33.933 33.933 0 0 0 3.374 3.873l.53.512-1.03 1.09a35.383 35.383 0 0 1-3.61-3.968l-.466-.61 1.202-.897zm-5.364-10.355a39.697 39.697 0 0 0 1.965 4.78l.325.644-1.334.688a40.775 40.775 0 0 1-2.12-4.893l-.257-.738 1.42-.481zm-2.39-11.603c.166 1.744.4 3.428.7 5.052l.157.808-1.47.296a57.372 57.372 0 0 1-.79-5.126l-.09-.888 1.494-.142zm-1.472-12.056 1.489.184a42.982 42.982 0 0 0-.318 5.25v.32l.002.32-1.5.013-.002-.653c0-1.845.11-3.656.33-5.434zm3.232-11.778 1.374.603a40.483 40.483 0 0 0-1.738 4.739l-.232.81-1.446-.398a41.943 41.943 0 0 1 2.042-5.754zm6.379-10.4 1.167.942a46.94 46.94 0 0 0-2.973 4.112l-.444.706-1.277-.787a48.045 48.045 0 0 1 3.527-4.973zm8.6-8.542.944 1.166a60.367 60.367 0 0 0-3.721 3.271l-.698.679-1.055-1.067a61.582 61.582 0 0 1 4.53-4.049zm39.08 1.344a58 58 0 0 0 4.919.412l.987.032-.036 1.5a59.706 59.706 0 0 1-5.056-.337l-1.004-.12.19-1.487zm17.689-.555.304 1.469c-1.646.34-3.368.6-5.14.776l-.89.08-.123-1.495a48.644 48.644 0 0 0 5.849-.83zm-29.146-2.24a45.567 45.567 0 0 0 4.805 1.525l.838.21-.35 1.458a48.48 48.48 0 0 1-5.03-1.496l-.797-.295.534-1.402zm39.934-2.076.876 1.218c-1.415 1.018-3.083 1.912-4.966 2.673l-.52.204-.536-1.4c1.982-.76 3.713-1.664 5.146-2.695zm-57.48-3.307.742 1.303a78.786 78.786 0 0 0-4.074 2.483l-.98.65-.838-1.244a78.94 78.94 0 0 1 5.15-3.192zm7.465-.568a27.278 27.278 0 0 0 4.15 3.079l.582.346-.752 1.297a29.584 29.584 0 0 1-4.493-3.173l-.496-.438 1.009-1.11zm55.83-6.156c.251.607.382 1.25.387 1.93a10 10 0 0 1-.924 4.255l-.16.33-1.338-.677a8.489 8.489 0 0 0 .922-3.902 3.598 3.598 0 0 0-.191-1.144l-.082-.216 1.385-.576zm-52.435 1.482.564 1.39a95.48 95.48 0 0 0-4.373 1.905l-1.069.506-.65-1.352a96.063 96.063 0 0 1 5.528-2.449zm-10.577-4.64a55.515 55.515 0 0 0 2.721 4.105l.594.802-1.197.903a57.4 57.4 0 0 1-2.88-4.183l-.524-.856 1.286-.771zm22.016.76.4 1.445a103.5 103.5 0 0 0-4.564 1.374l-1.13.376-.482-1.421c1.908-.647 3.837-1.24 5.776-1.775zm11.833-2.539.225 1.483a98.31 98.31 0 0 0-4.676.83l-1.182.247-.315-1.467c2.001-.43 3.99-.795 5.948-1.093zm18.16-.595c2.144.274 4.034.7 5.624 1.27l.391.146-.54 1.4c-1.428-.552-3.164-.976-5.161-1.26l-.505-.068.19-1.488zm-6.09-.367-.004 1.5c-1.611-.005-3.3.055-5.05.18l-.88.067-.123-1.495a71.117 71.117 0 0 1 6.057-.252zm-50.736-8.025a44.694 44.694 0 0 0 1.73 4.744l.343.782-1.368.615a47.007 47.007 0 0 1-1.884-4.885l-.257-.823 1.436-.433zm-3.232-11.644 1.5.006c-.006 1.679.1 3.357.315 5.032l.116.836-1.483.223a40.139 40.139 0 0 1-.448-6.097zm1.932-12.059 1.428.46a39.043 39.043 0 0 0-1.255 5.004l-.122.718-1.481-.24c.32-1.99.797-3.972 1.43-5.942zm5.269-10.979 1.26.814a48.245 48.245 0 0 0-2.535 4.406l-.367.74-1.35-.653a49.422 49.422 0 0 1 2.992-5.307zm7.598-9.446 1.078 1.043c-.308.32-.613.64-.924.972a64.397 64.397 0 0 0-2.451 2.772l-.574.7-1.167-.944a65.425 65.425 0 0 1 3.097-3.553c.316-.339.627-.665.941-.99zm9.04-8.052.913 1.19a80.813 80.813 0 0 0-3.691 3.006l-.892.782-.998-1.12a82.65 82.65 0 0 1 4.668-3.858zm10.103-6.662.738 1.306a87.11 87.11 0 0 0-4.086 2.455l-.992.644-.825-1.253a88.598 88.598 0 0 1 5.165-3.152zm10.916-5.267.567 1.388a98.329 98.329 0 0 0-4.375 1.912l-1.066.505-.65-1.351a98.506 98.506 0 0 1 5.524-2.454zm11.398-3.933.414 1.442c-1.55.444-3.071.915-4.567 1.412l-1.117.378-.489-1.418a114.363 114.363 0 0 1 5.76-1.814zm63.021-9.99.097.003c.111.01.218.044.313.1l10.08 5.977a.673.673 0 0 1-.108 1.222l-10.974 4.112a.732.732 0 0 1-.93-.39.687.687 0 0 1-.048-.313l.894-10.088c.033-.377.38-.655.773-.62zm-51.255 7.212.279 1.474a135.06 135.06 0 0 0-4.4.906l-1.44.33-.343-1.46c1.93-.454 3.899-.871 5.904-1.25zm11.956-1.769.164 1.491c-1.506.165-2.994.348-4.462.55l-1.463.209-.218-1.484c1.96-.289 3.953-.544 5.98-.766zm12.04-.907.065 1.498c-1.513.066-3.01.148-4.49.247l-1.475.104-.112-1.496c1.975-.147 3.979-.265 6.012-.353zm18-.03c1.484.054 2.982.122 4.493.204l1.516.086-.09 1.498c-1.511-.09-3.01-.168-4.494-.23l-1.48-.06.054-1.499zm-7.555-.162 1.52.013-.018 1.5a233.279 233.279 0 0 0-4.5-.01l-1.48.017-.021-1.5c1.485-.022 2.985-.028 4.5-.02z"/>
    <path fill="#FFF" stroke="#0D1724" stroke-linecap="round" stroke-linejoin="round" stroke-width="1.5" d="M493.5 26V4m51 74h22m-29.083-26.067 19.053-11m-37.537-7.85 11-19.053M240.448 297.107l2.551 2.518 2.553-2.518a7.343 7.343 0 0 1 10.12-.184l.192.184h0l.068.068a7.147 7.147 0 0 1-.068 10.107h0L242.974 320l-10.312-10.175.025-.026-2.551-2.517a7.147 7.147 0 0 1-.068-10.107l.068-.068h0a7.342 7.342 0 0 1 10.312 0z"/>
    <path stroke="#0D1724" stroke-width="1.5" d="M147 201.5h61m-61 32h60m-60-16h49"/>
    <path fill="#F7F7F7" stroke="#0D1724" stroke-width="1.5" d="M18 210c12-13.373 18-24.706 18-34 0-9.941-8.059-18-18-18s-18 8.059-18 18c0 9.294 6 20.627 18 34z"/>
    <circle cx="18" cy="176" r="7" fill="#F7F7F7" stroke="#0D1724" stroke-width="1.5"/>
    <path stroke="#0D1724" stroke-dasharray="6" stroke-linejoin="round" stroke-width="1.5" d="M18 210h36.116C64.546 210 73 201.546 73 191.116c0-10.429 8.454-18.883 18.884-18.883h22.093"/>
  </g>
</svg>
