<svg xmlns="http://www.w3.org/2000/svg" width="229" height="307" viewBox="0 0 229 307">
  <g fill="none" fill-rule="evenodd" transform="translate(1 1)">
    <rect width="122" height="122" x="106" y="184" fill="#F5DD43" rx="3.697"/>
    <rect width="122" height="122" x="96" y="174" stroke="#0D1724" stroke-width="1.386" rx="5.545"/>
    <path fill="#FFF" stroke="#0D1724" stroke-width="1.5" d="m159.937 260.028-20.581 12.92a2 2 0 0 1-3.003-2.181l5.928-23.567a1.998 1.998 0 0 0-.657-2.022l-18.649-15.581a2.002 2.002 0 0 1 1.148-3.531l24.245-1.644a1.998 1.998 0 0 0 1.72-1.25l9.056-22.55a2 2 0 0 1 3.711-.001l9.057 22.551a1.998 1.998 0 0 0 1.72 1.25l24.245 1.644a2 2 0 0 1 1.148 3.531l-18.649 15.58a1.998 1.998 0 0 0-.657 2.023l5.928 23.567a1.999 1.999 0 0 1-3.003 2.182l-20.58-12.921a1.997 1.997 0 0 0-2.127 0z"/>
    <path fill="#0D1724" stroke="#0D1724" stroke-width="1.5" d="M153 215.921v48.461l-13.644 8.567a2.001 2.001 0 0 1-3.003-2.182l5.928-23.567a1.998 1.998 0 0 0-.657-2.022l-18.649-15.581a2.002 2.002 0 0 1 1.148-3.531l24.245-1.644a1.998 1.998 0 0 0 1.72-1.25l2.912-7.251z"/>
    <path stroke="#0D1724" stroke-width="1.5" d="M150.628 21H188a5 5 0 0 1 5 5v148M13 39.239V30a6 6 0 0 1 6-6h36"/>
    <path fill="#FFF" stroke="#0D1724" stroke-width="1.5" d="m117.676 7.2 2.114 2.903a10.441 10.441 0 0 0 8.442 4.297h16.503A6.265 6.265 0 0 1 151 20.665V36H55V20.665a6.265 6.265 0 0 1 6.265-6.265h16.503c3.339 0 6.477-1.597 8.442-4.297L88.324 7.2A17.497 17.497 0 0 1 102.47 0h1.058a17.497 17.497 0 0 1 14.147 7.2z"/>
    <path fill="#0D1724" stroke="#0D1724" stroke-width="1.5" d="M47 70h12v12H47zm0 38h12v12H47zM13 39v209a6 6 0 0 0 6 6h76v13H6a6 6 0 0 1-6-6V45a6 6 0 0 1 6-6h7z"/>
    <path stroke="#0D1724" stroke-width="1.5" d="M47 146h12v12H47zm0 38h12v12H47zm24-69.5h70m-70-38h90M71 152h82m-82 38.5h25"/>
  </g>
</svg>
