<svg xmlns="http://www.w3.org/2000/svg" width="357" height="217" viewBox="0 0 357 217">
  <g fill="none" fill-rule="evenodd">
    <path fill="#F5DD43" d="m349.476 162.442-18.424-10.437a124.173 124.173 0 0 1-47.163-47.421l-23.566-42.132c-3.178-5.683-10.36-7.715-16.044-4.542-16.166 9.025-29.552 11.115-40.16 6.271-19.087-8.716-4.17-39.666-12.8-42.654-8.628-2.987-29.885 30.148-45.814 50.768-3.211 19.262 5.04 24.34 23.938 37.876 18.897 13.536 103.89 79.824 161.194 79.824h11.577c8.137 0 14.733-6.596 14.733-14.733a14.734 14.734 0 0 0-7.47-12.82z"/>
    <path stroke="#0D1724" stroke-width="1.5" d="m339.957 162.442-18.424-10.437a124.16 124.16 0 0 1-47.163-47.421l-23.566-42.132c-3.179-5.683-10.36-7.715-16.045-4.542-16.165 9.025-29.551 11.115-40.159 6.271-19.088-8.716-4.17-39.666-12.8-42.654-8.628-2.987-29.885 30.148-45.814 50.768-3.212 19.262 5.04 24.34 23.938 37.876 18.897 13.536 103.89 79.824 161.194 79.824h11.577c8.137 0 14.733-6.596 14.733-14.733a14.735 14.735 0 0 0-7.471-12.82zM155.54 46.192c16.974 13.945 22.324 38.084 16.054 72.418"/>
    <path stroke="#0D1724" stroke-width="1.5" d="M283.564 118.504c4.256 13.145-.503 20.36-14.276 21.643-13.774 1.284-30.622 4.839-50.543 10.666"/>
    <path stroke="#0D1724" stroke-width="1.5" d="m135.999 72.295-23.469 22.12c-6.443 11.853.614 24 21.171 36.44 30.835 18.662 39.41 14.837 67.312 30.13s45.424 37.745 105.09 37.745c31.197 0 44.85-6.537 40.959-19.613"/>
    <path stroke="#0D1724" stroke-linejoin="round" stroke-width="1.5" d="m266.512 123.707 11.956-11.957-20.768-.553 13.13-13.13h-18.97l10.321-14.355h-18.584"/>
    <path stroke="#0D1724" stroke-width="1.5" d="M171.954 26.437c3.227-19.306 7.707-27.622 13.439-24.95 5.731 2.674 1.252 10.99-13.44 24.95zm48.92 37.444c8.131-7.78 14.126-28.8 20.982-21.472 4.57 4.886 8.667 13.519 12.289 25.899"/>
    <path fill="#F4F4F4" stroke="#0D1724" stroke-width="1.5" d="M137.224 182.661v-8.438l-10.261-3.42-2.395-5.815 4.675-9.692-5.93-5.93-9.577 4.79-5.815-2.395-3.649-10.148h-8.437l-3.307 10.262-5.93 2.395-9.691-4.675-5.93 5.929 4.79 9.578-2.395 5.815-10.148 3.649v8.437l10.262 3.42 2.395 5.816-4.675 9.692 5.93 5.929 9.577-4.79 5.815 2.395 3.649 10.148h8.437l3.307-10.262 5.929-2.394 9.692 4.675 5.929-5.93-4.903-9.577 2.509-5.815 10.147-3.649zm-37 11.952c-8.863 0-16-7.11-16-15.942s7.137-16.058 16-16.058c8.864 0 16 7.111 16 15.943 0 8.831-7.136 16.057-16 16.057z"/>
    <path fill="#0D1724" d="m194.224 185.97-7.35-2.45-1.714-4.166 3.348-6.941-4.247-4.247-6.86 3.43-4.164-1.715-2.613-7.268h-6.044l-2.368 7.35-4.246 1.715-6.942-3.348-4.246 4.246 3.43 6.86-1.715 4.165-7.269 2.613v6.043l7.35 2.45 1.715 4.165-3.348 6.942 4.246 4.246 6.86-3.43 4.165 1.715 2.613 7.268h6.044l2.368-7.35 4.246-1.714 6.942 3.348 4.246-4.247-3.511-6.86 1.796-4.164 7.268-2.614v-6.043zm-26.5 14.603c-6.348 0-11.459-5.093-11.459-11.419 0-6.325 5.111-11.5 11.46-11.5 6.347 0 11.459 5.093 11.459 11.418 0 6.326-5.112 11.5-11.46 11.5z"/>
    <path stroke="#0D1724" stroke-width="1.5" d="M95.662 95.293H34.969c-6.985 0-12.647-5.662-12.647-12.646C22.322 75.662 27.984 70 34.97 70h14.285m46.407 44.947H0"/>
  </g>
</svg>
