<svg xmlns="http://www.w3.org/2000/svg" width="328" height="315" viewBox="0 0 328 315">
  <g fill="none" fill-rule="evenodd" transform="translate(1 1)">
    <rect width="132" height="232" x="194" y="12" fill="#0D1724" stroke="#0D1724" stroke-width="1.5" rx="18"/>
    <rect width="132" height="232" y="81" fill="#0D1724" stroke="#0D1724" stroke-width="1.5" rx="18"/>
    <path fill="#FFF" stroke="#0D1724" stroke-width="1.5" d="M18 67h96c9.941 0 18 8.059 18 18v200c0 9.941-8.059 18-18 18H18c-9.941 0-18-8.059-18-18V85c0-9.941 8.059-18 18-18zM212 0h96c9.941 0 18 8.059 18 18v198c0 9.941-8.059 18-18 18h-96c-9.941 0-18-8.059-18-18V18c0-9.941 8.059-18 18-18z"/>
    <path stroke="#0D1724" stroke-width="1.5" d="M132 233c17.12 0 31-13.88 31-31V102c0-17.12 13.88-31 31-31"/>
    <circle cx="59" cy="132" r="45" fill="#F5DD43"/>
    <circle cx="66" cy="139" r="45" stroke="#0D1724" stroke-width="1.5"/>
    <circle cx="66" cy="126" r="16" stroke="#0D1724" stroke-width="1.5"/>
    <rect width="70" height="18" x="23" y="258.141" stroke="#0D1724" stroke-width="1.5" rx="9"/>
    <rect width="18" height="18" x="286" y="120" fill="#F5DD43" rx="9"/>
    <rect width="18" height="18" x="286" y="153" fill="#F5DD43" rx="9"/>
    <rect width="18" height="18" x="286" y="186" fill="#F5DD43" rx="9"/>
    <circle cx="194" cy="71" r="8" fill="#0D1724"/>
    <path stroke="#0D1724" stroke-width="1.575" d="M99 169c-6.854-10.806-19.073-18-33.004-18-13.926 0-26.14 7.188-32.996 17.988"/>
    <path fill="#FFF" stroke="#0D1724" stroke-width="1.5" d="M217 22h87v70h-87z"/>
    <path stroke="#0D1724" stroke-width="1.5" d="m217 22 87 70m0-70-87 69M23 205.859h86M23 225h76m118-94h55m-55 31h42m-42 33h52"/>
  </g>
</svg>
