<svg xmlns="http://www.w3.org/2000/svg" width="244" height="350" viewBox="0 0 244 350">
  <g fill="none" fill-rule="evenodd">
    <path fill="#F5DD43" d="M114 57.843c32.033 0 58 25.967 58 58 0 13.544-4.224 26.002-12.671 37.375A97.993 97.993 0 0 0 140 211.65v21.192H88v-21.19a97.997 97.997 0 0 0-19.328-58.435C60.224 141.845 56 129.387 56 115.843c0-32.033 25.967-58 58-58z"/>
    <path stroke="#0D1724" stroke-width="1.5" d="M122 57.843c32.033 0 58 25.967 58 58 0 13.544-4.224 26.002-12.671 37.375A97.993 97.993 0 0 0 148 211.65v21.192H96v-21.19a97.997 97.997 0 0 0-19.328-58.435C68.224 141.845 64 129.387 64 115.843c0-32.033 25.967-58 58-58z"/>
    <path fill="#FFF" stroke="#0D1724" stroke-width="1.5" d="M87 195.843h70v25H87z"/>
    <path fill="#FFF" stroke="#0D1724" stroke-width="1.5" d="M32 219h180v130H32z"/>
    <path stroke="#0D1724" stroke-width="1.5" d="m117 195.843-10-76.713a9 9 0 1 0-9 9h47.857a9.143 9.143 0 0 0 9.143-9.144v-.143a9 9 0 0 0-18 0l-10 77"/>
    <path stroke="#0D1724" stroke-width="1.5" d="M42.7 119.843 4.157 88.267l49.167-8.074-17.591-46.617L82.35 51.167 90.424 2 122 40.543 153.576 2l8.074 49.167 46.617-17.591-17.591 46.617 49.167 8.074-38.543 31.576 38.543 31.576-49.167 8.074M122.5 219v130.157"/>
    <path fill="#FFF" stroke="#0D1724" stroke-width="1.5" d="M32 219 2 269h90l30-50z"/>
    <path fill="#0D1724" stroke="#0D1724" stroke-width="1.5" d="M212 219v62h-75l-15-62z"/>
    <path fill="#FFF" stroke="#0D1724" stroke-width="1.5" d="m212 219 30 50h-90l-30-50z"/>
  </g>
</svg>
