<svg xmlns="http://www.w3.org/2000/svg" width="272" height="271" viewBox="0 0 272 271">
  <g fill="none" fill-rule="evenodd" transform="translate(1)">
    <path fill="#F5DD43" d="M73.516 204.992c-2.983-2.37-4.462-4.29-4.437-5.76.55-31.58 24.446-59.78 54.573-65.953l29.612 27.818 29.611-27.818c13.936 2.323 53.728 18.875 54.654 67.076v7.807H82.602c-3.3 0-6.502-1.117-9.086-3.17z"/>
    <rect width="198" height="198" x="62" y="10" stroke="#0D1724" stroke-width="1.5" rx="22.471"/>
    <path stroke="#0D1724" stroke-width="1.5" d="M198 208v37.214c0 13.689-9.863 24.786-22.029 24.786H22.03C9.863 270 0 258.903 0 245.214V94c0-12.15 9.85-22 22-22h40.346"/>
    <path fill="#0D1724" stroke="#0D1724" stroke-width="1.5" d="M83 208h115v20z"/>
    <path stroke="#0D1724" stroke-width="1.5" d="M77 206v-13.865c0-33.112 23.388-60.738 54.482-67.135L161 152.842 190.518 125c13.892 2.324 53.558 18.89 54.482 67.135V206M195.958 42.476v31.108c0 18.616-15.09 33.707-33.706 33.707h-2.247c-18.615 0-33.706-15.091-33.706-33.707V30.471"/>
    <path fill="#FFF" stroke="#0D1724" stroke-width="1.5" d="M179.068 46.83H157.75c-10.674 0-20.769 1.123-31.452-15.359 0-11.95 8.33-22.283 20.008-24.819l25.781-5.599a4 4 0 0 1 4.849 3.909v8.381c12.752 0 19.021 13.01 19.021 23.516v26.86c0-9.328-7.562-16.89-16.89-16.89z"/>
    <path fill="#0D1724" fill-rule="nonzero" d="m37.75 228.89-5.75 12-5.75-12h11.5zm-5-15.958v10h-1.5v-10h1.5zm0-20v10h-1.5v-10h1.5zm0-20v10h-1.5v-10h1.5zm.718-20.077 1.455.363a73.056 73.056 0 0 0-1.61 8.648l-.127 1.097-1.491-.162c.367-3.366.96-6.686 1.773-9.946zm7.51-18.754 1.303.742a72.82 72.82 0 0 0-3.88 7.896l-.418 1.02-1.392-.56a74.409 74.409 0 0 1 4.386-9.098zm12.188-15.98 1.06 1.062a73.657 73.657 0 0 0-5.842 6.58l-.674.87-1.193-.909a75.168 75.168 0 0 1 6.65-7.603zm16.089-12.23.738 1.305a73.23 73.23 0 0 0-7.386 4.784l-.882.66-.907-1.194a74.871 74.871 0 0 1 8.437-5.556zm18.727-7.455.36 1.456a72.742 72.742 0 0 0-8.4 2.628l-1.024.4-.555-1.394a74.102 74.102 0 0 1 9.619-3.09zM108 96.25v1.5h-2c-2.278 0-4.543.104-6.79.31l-1.122.112-.16-1.491a75.219 75.219 0 0 1 6.911-.422L106 96.25h2z"/>
    <path fill="#0D1724" d="m245.008 75.123 24.79 10.197a.678.678 0 0 1 .036 1.239l-9.642 4.633-4.634 9.642a.678.678 0 0 1-1.238-.036l-10.197-24.79a.678.678 0 0 1 .885-.885z"/>
    <path fill="#0D1724" d="m255.892 89.77 2.878-2.878 11.917 11.917a.679.679 0 0 1 0 .96l-1.918 1.918a.679.679 0 0 1-.96 0L255.892 89.77z"/>
  </g>
</svg>
