<svg xmlns="http://www.w3.org/2000/svg" width="209" height="317" viewBox="0 0 209 317">
  <g fill="none" fill-rule="evenodd" transform="translate(1 1)">
    <path stroke="#333" stroke-width="1.5" d="M57.032 66.045C40.454 80.703 30 102.131 30 126v157m83.53.025C158.75 263.208 190 218.067 190 166v-40c0-23.847-10.434-45.257-26.986-59.914"/>
    <path stroke="#333" stroke-width="1.5" d="M52.979 283.066C62.552 265.697 68 245.735 68 224.5c0-34.854-14.676-66.281-38.186-88.437"/>
    <path fill="#F5DD43" d="M8 289h172v26H8a8 8 0 0 1-8-8v-10a8 8 0 0 1 8-8z"/>
    <path stroke="#0D1724" stroke-width="1.5" d="M8 283h172l26 13-26 13H8a8 8 0 0 1-8-8v-10a8 8 0 0 1 8-8z"/>
    <path fill="#0D1724" stroke="#0D1724" stroke-width="1.5" d="m193 289.5 13 6.5-13 6.5v-13zM8 283h11v26H8a8 8 0 0 1-8-8v-10a8 8 0 0 1 8-8z"/>
    <circle cx="72" cy="118" r="9" fill="#0D1724" stroke="#0D1724" stroke-width="1.5"/>
    <path stroke="#333" stroke-width="1.5" d="M72 91c11.088 0 20.614 6.683 24.771 16.241l.529 1.309c.092.246 4.325 12.396 12.7 36.45H72c-14.763 0-26.758-11.848-26.996-26.554L45 118c0-14.912 12.088-27 27-27z"/>
    <path fill="#F5DD43" d="M94.183 4.5 176.988 29 153 36.587V66H57V33.953l.533-.137L28 24.809 94.183 4.5z"/>
    <path stroke="#333" stroke-width="1.5" d="M163 33.953V66H57V33.953"/>
    <path stroke="#333" stroke-linejoin="round" stroke-width="1.5" d="M28 24.809 109.183 0l82.805 24.809L110.596 50z"/>
    <circle cx="148" cy="118" r="9" fill="#0D1724" stroke="#0D1724" stroke-width="1.5" transform="matrix(-1 0 0 1 296 0)"/>
    <path stroke="#333" stroke-width="1.5" d="M148 91c-11.088 0-20.614 6.683-24.771 16.241l-.529 1.309c-.092.246-4.325 12.396-12.7 36.45h38c14.763 0 26.758-11.848 26.996-26.554L175 118c0-14.912-12.088-27-27-27z"/>
    <path fill="#0D1724" stroke="#0D1724" stroke-linejoin="round" d="m117.311 123-7.565 22-7.101-22z"/>
    <path stroke="#0D1724" stroke-linecap="round" stroke-linejoin="round" stroke-width="1.6" d="M103 315c4.078 0 7.385-7.163 7.385-16s-3.307-16-7.385-16m12.308 32c4.078 0 7.384-7.163 7.384-16s-3.306-16-7.384-16m12.307 32c4.079 0 7.385-7.163 7.385-16s-3.306-16-7.385-16"/>
  </g>
</svg>
