<svg xmlns="http://www.w3.org/2000/svg" width="172" height="53" viewBox="0 0 172 53">
  <path fill="#D9D9D9" d="M.139.139v52.726h52.726V.14H.14zm46.773.931-15.714 9.114c-.047-.048-.047-.093-.094-.14l12.878-9.02h2.93v.046zm-4.788 0L30.5 9.207c-.046-.046-.046-.093-.093-.093l9.439-8.044h2.278zm-3.905 0-8.51 7.208-.092-.094 6.926-7.115h1.673l.003.001zm-9.254 0L26.27 5.674c-.047-.047-.093-.047-.139-.093l2.091-4.556h.744v.045zm-1.86 0L25.2 5.162c-.045 0-.092-.046-.139-.046l1.442-4.047h.604v.001zm-2.23 0h.511l-1.303 3.718c-.045 0-.092-.045-.139-.045l.93-3.674v.001zm-5.162 0v3.161h-.139l-.279-3.16h.418zm-1.488 0 .28 3.255h-.14l-.604-3.255h.465-.001zm-1.534 0 .652 3.442c-.047 0-.093.045-.14.045l-.977-3.487h.465zm-6.369 0 2.929 5.161c-.047.047-.094.047-.094.094l-3.672-5.21h.836V1.07h.001zm-2.14 0 4.093 5.81c-.046.047-.092.047-.092.094L7.16 1.07h1.023zm-2.417 0 5.626 6.603-.093.093L4.417 1.07h1.348v.001zM1.07 6.648l7.58 4.417c0 .047-.047.094-.094.14L1.07 7.997V6.648zm11.066 22.225c-.185-.186-.511-.605-.744-.79 2.325-2.046 5.951-2.697 7.207-2.976-.465.418-1.627 1.58-1.627 1.58s-2.372.28-4.836 2.186zm3.813-1.023c-1.349 1.394-1.906 2.185-2.324 2.743-.234-.278-.466-.604-.699-.837.93-.93 2.186-1.627 3.022-1.906h.001zm-4.188 16.83c.885.744 2.14.836 3.07.28-.884 1.068-2.511 1.207-3.58.324-1.07-.883-1.21-2.51-.326-3.58-.372 1.023-.047 2.232.836 2.976zm.977-1.162c.697.557 1.627.65 2.371.279 0 .045-.046.045-.046.092a1.995 1.995 0 0 1-2.837.234 1.995 1.995 0 0 1-.232-2.838c0-.045.046-.045.046-.045-.232.79 0 1.672.698 2.278zm.186-2.465c.046.511.326.976.744 1.349.418.371.93.51 1.441.51a1.476 1.476 0 0 1-1.906.047 1.5 1.5 0 0 1-.28-1.906zm-2.558.14a3.31 3.31 0 0 0 .419 4.65 3.31 3.31 0 0 0 4.649-.419c.094-.093.14-.187.234-.28a3.572 3.572 0 0 1-.885 1.953c-1.394 1.627-3.813 1.86-5.439.465-1.627-1.395-1.86-3.813-.465-5.44a4.028 4.028 0 0 1 1.767-1.208l-.28.279zm-2.79 7.345 1.07-.092c.326.278.745.51 1.117.698-1.255.045-2.372.139-3.116.278.047-.278.093-.51.14-.79l.79-.094zm-.603-.883a43.6 43.6 0 0 1 .28-1.162c.185.418.37.79.65 1.116l-.326.046h-.604zm1.301-7.765c-.092-.371-.51-1.348-.604-1.533 0 0 .837-.233 1.442-.233-.234.418-.605 1.116-.837 1.766zm-1.022-2.37c-.186-.326-.326-.558-.512-.884 0 0 1.581-.837 3.44-.604-.138.28-.511.976-.511.976-.65 0-1.813.233-2.417.512zm-1.07-1.72c-.185-.327-.325-.466-.51-.792 1.766-.975 4.602-1.162 5.671-.975-.232.372-.418.604-.65.975-1.395-.138-3.162.094-4.511.791zm-1.116-1.58c-.185-.234-.418-.559-.604-.791 1.534-.93 4.742-1.534 7.997-1.07-.233.28-.419.652-.558.837-2.742-.279-5.3.28-6.835 1.024zm-1.301-1.58c-.28-.28-.512-.512-.79-.745 2.882-1.627 7.485-1.767 8.973-1.627.233.28.93 1.162.93 1.162-3.813-.652-7.486.186-9.114 1.21h.001zm-1.627-1.442c-.338-.252-.68-.5-1.024-.744 2.14-1.116 6.23-2.046 9.16-2.046.28.28.557.65.837.93-3.07.139-6.37.557-8.973 1.86zm8.554-3.813a15.106 15.106 0 0 0-.883-.79c1.116-.884 5.347-2.79 8.973-3.255.234.14.744.51.883.651-1.906.325-6.322 1.301-8.973 3.395v-.001zM4.51 22.829a31.831 31.831 0 0 1 8.043-2.977c.372.187.791.373 1.163.559-2.79.697-5.347 1.535-8.09 2.976l-.186.092c-.372-.185-.697-.371-1.07-.558l.14-.092zm-1.255-.326c-.559-.233-.837-.28-1.302-.465a33.764 33.764 0 0 1 7.95-3.255c.465.186.93.326 1.395.559-2.558.65-6.09 1.952-8.043 3.16zm11.623-1.488c.233.14.604.326.883.466-2.743.557-5.997 1.813-8.508 3.16-.326-.185-.605-.417-.93-.603 2.697-1.442 6.323-2.743 8.555-3.022v-.001zm1.999 1.116c.279.186.558.372.836.512-2.927.372-6.926 2.138-8.647 3.3-.326-.278-.604-.465-.976-.743 2.371-1.395 6.882-3.069 8.787-3.069zm2.418.419c.883-.559 2.929-1.628 4.975-2-.652.419-2.65 1.72-3.952 2.79-.233-.14-.79-.651-1.023-.79zm-1.023-.698c-.278-.186-.79-.511-1.07-.697 3.302-1.999 8.09-2.977 10.694-2.929-.371.185-1.441.79-1.766 1.022-2.976.234-6.556 1.58-7.858 2.604zm-2.184-1.348c-.326-.186-.651-.373-.976-.512 3.905-2.418 8.787-3.207 10.228-3.3.233.093 1.442.558 1.673.651-1.766.139-7.577 1.069-10.925 3.161zm-1.953-1.023c-.325-.14-.604-.28-.93-.418 1.442-1.024 6.138-3.07 9.3-3.395.278.093 1.347.466 1.626.558-2.743.094-7.485 1.674-9.996 3.255zm-2.09-.93a12.27 12.27 0 0 0-1.164-.465c1.488-.977 6.694-3.208 8.694-3.44l1.395.465c-2.604.418-6.882 2.185-8.927 3.44h.001zm-2.374-.93c-.418-.139-.883-.28-1.3-.418 1.254-.604 5.672-2.883 8.321-3.302.419.094.977.234 1.395.326-2.464.512-7.253 2.743-8.416 3.395v-.001zm-2.602-.79c-.512-.14-.977-.279-1.488-.372 2.462-1.489 7.949-3.347 7.949-3.347.465.092.977.232 1.442.325-.512.093-6.37 2.464-7.904 3.394zm-2.93-.652c-.557-.092-1.116-.184-1.72-.278 1.628-.79 4.603-2.511 7.625-3.441l1.534.28c-3.022.882-6.23 2.789-7.439 3.44zM1.07 9.114l3.813 1.673c-2.325-.184-3.813-.139-3.813-.139V9.114zm0 3.302 1.627-.837c.606 0 1.303.092 1.86.14-1.44.603-2.696 1.254-3.532 1.672v-.975h.045zm0 2.045a67.376 67.376 0 0 1 5.394-2.51c.652.092 1.254.139 1.86.232-3.07 1.116-6.138 2.79-7.3 3.394V14.46h.046zm0 2.278 1.488.186a20.8 20.8 0 0 0-1.488.652v-.838zm0 1.58c.977-.418 1.907-.836 2.883-1.208.512.093 1.07.186 1.58.325-1.533.559-2.975 1.07-4.463 1.86v-.976zm0 2.046c.465-.325 3.952-1.952 5.999-2.51.465.14.975.279 1.44.42-2.975.882-6.277 2.602-7.439 3.16v-1.07zm0 2.418a9.68 9.68 0 0 1 1.488.559c-.558.092-1.023.232-1.488.324v-.883zm0 1.767c.744-.185 1.72-.558 2.977-.651.371.186.79.418 1.162.605-2.186.278-3.209.65-4.139.975v-.93zm0 1.906c1.023-.371 2.65-.977 5.347-1.209.418.28.697.465 1.07.744-2.465.094-5.301 1.07-6.37 1.488v-1.023H1.07zm0 1.953c2.186-1.07 5.486-1.674 7.392-1.627.28.232.606.512.885.79-1.58-.093-6.37.836-8.277 1.86v-1.023zm0 3.347c.094.047.93.652 1.21.977-.419.047-.837.14-1.21.279v-1.255zm0 2.186c.512-.233 1.442-.326 2.092-.372.234.278.465.51.698.79-.883 0-1.999.14-2.79.373v-.791zm0 1.766c.837-.325 2.418-.51 3.487-.465.234.28.418.605.605.885-1.254 0-2.976.232-4.092.603v-1.023zm0 2c1.117-.465 3.301-.697 4.65-.652.186.28.372.699.511.977-1.534-.092-3.813.093-5.16.512v-.837zm0 1.813c1.303-.512 4.092-.604 5.626-.465.14.326.326.744.465 1.07-1.766-.14-4.603-.093-6.044.418L1.07 39.52v.001zm0 1.907c1.256-.373 4.417-.698 6.51-.094-.14.373-.279.652-.372.977-1.766-.418-4.138-.372-6.138.093v-.976zm0 1.906c1.07-.326 3.766-.744 5.859-.047l-.28.837c-1.44-.512-3.813-.372-5.579.047v-.837zm3.952 8.647H1.07v-.975s3.58-.094 4.14-.047c-.048.325-.094.465-.188 1.022zm.28-2.045c-.372-.047-3.86 0-4.232.093v-1.07c.326-.092 3.395-.278 4.417-.092-.045.232-.184.93-.184 1.07l-.002-.001zm.372-2c-1.627-.233-4.092-.046-4.604 0v-1.023c.744-.139 3.907-.324 4.836 0-.186.698-.093.326-.233 1.024h.001zm-4.605-1.954v-.93c1.117-.232 3.813-.464 5.347.047-.093.372-.185.652-.278.977-1.024-.373-3.907-.28-5.068-.094zm13.39 5.998H6.323l.047-.278c1.348-.234 5.95-.559 8.136 0l-.046.278zm.093-.976c-2.184-.697-6.509-.372-8.136-.14.046-.232.046-.465.093-.697 1.627-.372 6.091-.557 8.137.093 0 .233-.047.512-.094.744zm.234-1.441c-.418-.186-.885-.186-1.442-.28a4.371 4.371 0 0 0 1.628-.93c-.094.605-.14.977-.187 1.21zm11.901 2.417H15.53c.046-.185.046-.278.046-.278 1.07-.28 3.395-.559 5.533-.559 2 0 4.464.326 5.58.604v.234-.001zm.14-1.07c-.884-.278-2.883-.651-5.672-.651-2.557-.045-4.464.234-5.44.558.046-.418.093-.65.14-1.022.697-.185 2.696-.605 5.579-.465 2.65.14 4.974.698 5.486.884a3.164 3.164 0 0 0-.092.697zm6.51-27.477a21.83 21.83 0 0 0-1.07.836c-.372-.325-.698-.603-1.07-.836.372-.28.745-.604 1.163-.883.28.232.65.558.977.883zm-.14-1.534c.418-.28.836-.558 1.254-.791.326.28.605.605.931.93-.373.234-.79.512-1.162.744-.326-.28-.652-.604-1.024-.883zm-1.814 3.022c-.325.28-.697.557-1.023.883-.376-.28-.764-.543-1.162-.79.372-.325.744-.605 1.117-.93.371.233.743.511 1.068.836v.001zm-1.813 1.58a8.62 8.62 0 0 0-.93.93c-.418-.279-.836-.511-1.254-.744.139-.139.231-.279.371-.371.185-.186.419-.373.651-.605.372.233.79.511 1.162.79zm-1.674 1.721c-.326.325-.604.651-.883.976a34.473 34.473 0 0 0-1.348-.65c.325-.372.65-.698.976-1.071.372.234.836.466 1.255.745zm-1.627 1.86c-.28.325-.558.698-.836 1.022a32.484 32.484 0 0 0-1.442-.604c.28-.372.604-.744.883-1.115.465.232.93.418 1.395.697zm-1.441 1.86c-.233.325-.512.697-.745 1.022a20.013 20.013 0 0 0-1.533-.512c.232-.371.511-.743.79-1.115.465.233.976.418 1.489.605h-.001zm-1.349 1.952-.697 1.115c-.604-.184-1.162-.324-1.58-.371.232-.418.464-.79.744-1.21.465.141 1.022.28 1.533.466zm-1.209 2.092c-.232.373-.418.791-.65 1.162a15.862 15.862 0 0 0-1.673-.279l.696-1.254c.373.046.93.185 1.627.371zm-1.115 2.14c-.19.362-.36.734-.512 1.115-.65-.093-1.255-.14-1.72-.186.185-.418.372-.79.558-1.21a25 25 0 0 1 1.674.28zm-.977 2.138c-.186.418-.325.836-.465 1.21-.697-.048-1.301-.094-1.766-.048.139-.418.325-.883.512-1.302.418 0 1.022 0 1.72.14zm-1.209 4.464c0 .418.094.836.187 1.254-1.117 0-2 .094-2.604.186.092-.465.233-.883.325-1.348.418-.047 1.162-.139 2.092-.092zm.605 2.278c.233.418.557.836.93 1.162-2.045-.047-3.58.186-4.464.418.094-.465.14-.883.233-1.348a16.438 16.438 0 0 1 3.301-.234v.002zm7.44 2.371c-.234-.093-.56-.187-.93-.326.418-.186.789-.465 1.115-.744a8.8 8.8 0 0 0-.186 1.07zm-.141-2.28c-1.395 1.628-3.813 1.86-5.439.466-1.627-1.395-1.86-3.813-.465-5.44a4.028 4.028 0 0 1 1.766-1.208l-.279.279a3.31 3.31 0 0 0 .418 4.65 3.31 3.31 0 0 0 4.65-.419c.093-.093.14-.187.233-.28-.14.698-.418 1.396-.884 1.953zm-3.022-2.416c.884.744 2.14.836 3.069.28-.883 1.068-2.51 1.207-3.58.324-1.07-.883-1.209-2.51-.325-3.58-.372 1.023-.047 2.232.836 2.976zm.977-1.162c.697.557 1.627.65 2.371.279 0 .045-.047.045-.047.092a1.995 1.995 0 0 1-2.836.234 1.995 1.995 0 0 1-.233-2.838c0-.045.047-.045.047-.045-.232.79 0 1.672.698 2.278zm.185-2.465c.047.511.326.976.744 1.349.419.371.93.51 1.442.51a1.476 1.476 0 0 1-1.907.047 1.5 1.5 0 0 1-.279-1.906zM39.055 51.98H27.803c0-.185.047-.325.047-.325 1.023-.234 3.627-.558 5.44-.558 1.766 0 4.742.372 5.812.652-.047 0-.047.092-.047.23zm.093-.976a24.644 24.644 0 0 0-5.858-.79c-2.51-.047-4.37.232-5.394.558.047-.373.094-.605.14-.977.79-.233 2.697-.744 5.44-.605 2.79.187 4.928.559 5.765.885a6.301 6.301 0 0 0-.093.93zm3.162-24.55c-.315.223-.61.472-.884.745a19.402 19.402 0 0 0-1.115-.93c.325-.28.65-.558.975-.79.326.325.698.651 1.024.976zm-.14-1.626c.325-.233.698-.465 1.023-.698.326.326.605.652.883 1.024-.325.185-.604.418-.93.65l-.975-.976zm-1.581 3.068c-.286.24-.55.505-.79.791a19.83 19.83 0 0 0-1.209-.884c.28-.278.604-.557.883-.836.373.279.744.603 1.116.93zm-1.534 1.534c-.28.28-.512.559-.744.837-.424-.28-.858-.544-1.302-.79.28-.325.558-.604.837-.93.373.28.79.558 1.209.883zm-1.442 1.674c-.232.326-.511.652-.744.977-.47-.252-.95-.485-1.44-.698.278-.371.557-.697.836-1.07.465.234.883.512 1.348.791zm-1.394 1.813-.558.837a11.138 11.138 0 0 0-1.488-.603c.186-.326.418-.605.652-.931l1.394.697zm-1.163 1.768c-.185.324-.371.65-.604.976-.605-.233-1.115-.372-1.58-.511.232-.373.418-.744.65-1.07.465.14.977.326 1.534.605zm-1.07 1.906c-.184.325-.325.65-.51 1.022-.652-.185-1.21-.279-1.628-.371l.559-1.116c.418.093.93.278 1.58.465zm-.975 1.999c-.175.363-.33.736-.465 1.116-.652-.14-1.255-.186-1.721-.233.187-.418.326-.79.512-1.209.418.047.976.14 1.674.326zm-.883 2.092c-.145.334-.27.675-.373 1.024-.697-.094-1.301-.094-1.766-.14l.418-1.116c.418.047.976.093 1.72.232zm-1.024 4.231c0 .372.094.745.186 1.07-1.069 0-1.952.046-2.603.14.093-.419.185-.791.278-1.21.465-.046 1.21-.046 2.14 0zm.605 2.14c.233.418.558.836.93 1.162-2-.047-3.534.184-4.465.418.094-.465.187-.977.28-1.442.605-.046 1.767-.185 3.255-.139zm7.578 2.277a12.94 12.94 0 0 0-1.115-.279c.465-.232.883-.558 1.254-.883-.045.371-.045.744-.139 1.162zm-.326-2.232c-1.394 1.627-3.813 1.86-5.439.465-1.627-1.395-1.86-3.813-.465-5.44a4.028 4.028 0 0 1 1.767-1.208l-.28.279a3.31 3.31 0 0 0 .419 4.65 3.31 3.31 0 0 0 4.65-.419c.093-.093.14-.187.233-.28-.14.698-.418 1.396-.885 1.953zM35.94 44.68c.885.744 2.14.836 3.07.28-.884 1.068-2.511 1.207-3.58.324-1.07-.883-1.21-2.51-.326-3.58-.326 1.023-.047 2.232.836 2.976zm.977-1.162c.697.557 1.627.65 2.371.279 0 .045-.046.045-.046.092a1.995 1.995 0 0 1-2.837.234 1.995 1.995 0 0 1-.232-2.838c0-.045.047-.045.047-.045-.233.79 0 1.672.697 2.278zm.186-2.465c.046.511.326.976.744 1.349.418.371.93.51 1.441.51a1.476 1.476 0 0 1-1.906.047 1.5 1.5 0 0 1-.28-1.906zM51.98 51.98H40.124l.047-.185c1.023-.28 3.579-.652 5.858-.605 1.86 0 4.603.465 5.95.698v.092zm0-.883c-.698-.233-3.161-.837-6.277-.837-2.603-.046-4.51.28-5.486.557.047-.278.047-.65.094-.93.79-.232 2.696-.557 5.486-.51 3.813.092 5.72.743 6.183.883v.837zm-3.346-19.528c-.233.326-.652.837-.883 1.163-.418-.325-.836-.651-1.256-.93.28-.372.744-.93 1.024-1.302.371.372.743.698 1.115 1.07zm-.465-1.86c.325-.371.837-.836 1.163-1.162l.976 1.116-1.023 1.023a11.964 11.964 0 0 0-1.116-.977zm-.976 3.952c-.186.326-.465.791-.652 1.116-.464-.278-.929-.557-1.394-.79.186-.372.557-.883.744-1.254.465.278.883.602 1.302.928zm-1.116 2.046c-.14.326-.418.836-.558 1.162a11.198 11.198 0 0 0-1.534-.697l.65-1.301c.5.243.982.523 1.442.836zm-.977 2.14c-.139.325-.232.65-.371.975a36.341 36.341 0 0 0-1.674-.558c.139-.371.325-.743.465-1.116a9.55 9.55 0 0 1 1.58.698v.001zm2.929 6.834c.884.744 2.14.836 3.069.28-.883 1.068-2.51 1.207-3.58.324-1.07-.883-1.208-2.51-.325-3.58-.326 1.023-.047 2.232.836 2.976zm.977-1.162c.697.557 1.627.65 2.371.279 0 .045-.047.045-.047.092a1.995 1.995 0 0 1-2.836.234 1.995 1.995 0 0 1-.232-2.838c0-.045.046-.045.046-.045-.232.79.047 1.672.698 2.278zm.185-2.465c.047.511.326.976.745 1.349.418.371.93.51 1.441.51a1.476 1.476 0 0 1-1.906.047 1.5 1.5 0 0 1-.28-1.906zm-2.557.14a3.31 3.31 0 0 0 .418 4.65 3.31 3.31 0 0 0 4.65-.419c.093-.093.14-.187.234-.28a3.572 3.572 0 0 1-.885 1.953c-1.395 1.627-3.813 1.86-5.439.465-1.627-1.395-1.86-3.813-.465-5.44a4.028 4.028 0 0 1 1.766-1.208l-.279.279zm-2.231-1.395c-.093.325-.186.604-.28.93-.697-.186-1.3-.326-1.765-.373.139-.371.232-.743.371-1.115.418.14 1.023.326 1.674.558zm-.604 1.952-.28.977c-.743-.14-1.347-.186-1.859-.233.087-.378.195-.75.325-1.115.465.093 1.07.185 1.814.371zm-.465 3.999c.092.326.185.652.325.93a15.836 15.836 0 0 0-2.882.14c.045-.373.139-.744.184-1.162.513 0 1.304 0 2.373.092zm1.022 2.045c.234.28.512.559.837.791-2.185-.047-3.812.14-4.742.372.047-.372.093-.651.139-1.022.558-.094 1.907-.28 3.766-.14zm7.626-6.183a4.822 4.822 0 0 0-3.86-1.906c-1.115 0-2.092.372-2.928.976 1.627-5.02 4.044-8.88 6.787-11.02v11.95h.001zm0-13.296c-.326.231-.511.278-.837.557-.326-.373-.604-.744-.93-1.07.371-.325 1.162-.883 1.766-1.069v1.58l.001.002zm0-2.744c-5.16 2.418-9.299 8.74-11.439 17.109a4.898 4.898 0 0 0-4.509-2.975c-.977 0-1.906.279-2.696.79 3.72-9.252 10.647-15.854 18.643-17.575v2.65h.001zm-7.858-1.999c.372-.187.697-.373 1.07-.558.278.325.51.697.743 1.023l-.976.557a8.093 8.093 0 0 0-.836-1.022h-.001zm2.045-1.023c.418-.186.791-.372 1.21-.512.233.326.418.697.651 1.023-.372.14-.744.325-1.117.512a8.221 8.221 0 0 0-.744-1.023zm2.233-.884c.324-.14.697-.233 1.022-.325.187.325.373.697.512 1.023-.325.092-.651.186-.93.325a7.4 7.4 0 0 0-.604-1.023zm3.579.186a7.38 7.38 0 0 0-.975.233 10.49 10.49 0 0 0-.512-1.024c.371-.139 1.116-.278 1.488-.371v1.162h-.001zm0-2.139C41.241 21.434 32.268 30.5 28.456 42.821c-.744-1.813-2.512-3.115-4.557-3.115-.977 0-1.907.279-2.65.79 5.346-12.926 17.2-21.852 30.73-23.06v2.277h.002zm-16.598.837c.419-.232.79-.464 1.21-.651l.836.977c-.372.185-.744.418-1.116.651a19.772 19.772 0 0 0-.93-.976v-.001zm2.185-1.208c.418-.234.836-.418 1.302-.605.233.326.512.651.745.976-.419.186-.791.373-1.21.605a7.81 7.81 0 0 1-.836-.976h-.001zm2.28-1.024c.417-.185.882-.371 1.3-.511.233.326.419.652.652.976-.42.186-.837.326-1.256.512a8.868 8.868 0 0 0-.697-.977zm2.324-.93c.465-.138.883-.324 1.348-.464.186.326.371.651.557 1.023-.418.139-.883.28-1.301.418-.186-.326-.418-.652-.604-.976zm2.417-.744c.465-.139 1.07-.278 1.535-.418.139.326.324.652.465.977-.418.093-1.024.279-1.489.371-.185-.278-.326-.604-.511-.93zm2.743-.65c.465-.093 1.07-.233 1.535-.28.139.326.279.652.371.977-.418.094-1.07.186-1.488.28l-.418-.977zm4.649.372c-.465.046-1.069.093-1.534.185-.093-.325-.232-.65-.371-.976.465-.046 1.44-.232 1.906-.279v1.07h-.001zm0-2.092c-9.344.698-18.133 4.65-24.967 11.251-4.928 4.835-8.6 10.74-10.646 17.25a4.926 4.926 0 0 0-4.56-3.07 5 5 0 0 0-2.604.745c2.558-6.138 6.696-11.763 12.135-16.367 8.37-7.113 19.203-11.297 30.64-11.901v2.09l.002.002zm0-3.301c-9.81.836-17.388 3.858-18.83 4.323l-.046-.185c6.463-2.697 15.576-5.162 18.876-5.72v1.582zm0-2.977c-5.114 1.442-14.552 4.465-19.155 6.046 0 0-.046-.094-.046-.14l19.2-7.346v1.441h.001zm0-2.788-20.364 7.95c.326.884.512 1.673.652 2.65-1.07.465-2.14 1.07-3.162 1.627-6.044-3.022-12.6-5.067-19.574-6.09l.418-.698-8.88-5.253v-4.37H2.93l8.369 8.181a12.838 12.838 0 0 1 3.441-2.65l-3.162-5.532h3.58l1.347 4.789c1.21-.372 2.464-.604 3.813-.604h.51V1.023h2.977L22.69 5.44a11.06 11.06 0 0 1 4.045 1.629l3.534-6.045h4.882l-6.974 7.113a12.275 12.275 0 0 1 2.743 3.44L49.05 1.07h2.929v4.14l.001-.002zm-32.64 37.287-.278 1.116c-.745 0-1.442 0-1.907.047.14-.419.28-.837.418-1.21.418 0 1.024 0 1.768.047zm12.042.234c-.139.371-.185.65-.232 1.114a12.307 12.307 0 0 0-1.86 0c.094-.418.233-.79.372-1.208.372 0 .976.046 1.72.093v.001zm11.856 1.02c-.046.141-.046.235-.046.374 0 .14-.047.326-.047.465v.046a9.98 9.98 0 0 0-1.999-.046c.094-.372.14-.698.233-1.07.465.047 1.115.093 1.86.233v-.001zm8.74 5.72c-.37-.139-.882-.279-1.672-.465.232-.092.604-.324.93-.603.278-.234.557-.559.743-.791v1.86zm18.366-35.22v7.485c0 1.86.28 3.161.836 3.905.559.745 1.489 1.116 2.791 1.116.512 0 1.07-.094 1.766-.233.652-.185 1.303-.418 1.86-.79V14.248h4.325V40.61h-4.325V29.498c-.65.326-1.395.558-2.231.744-.836.186-1.627.232-2.465.232-2.278 0-3.997-.651-5.16-1.953-1.162-1.301-1.72-3.393-1.72-6.369v-7.904h4.323zm35.661 3.905v22.41h-4.323v-22.41H95.87v-3.952h15.947v3.952h-5.812zm31.337 22.456V18.2h-7.16v22.41h-4.323V14.248h15.808V40.61h-4.325zm18.226-5.904a6.74 6.74 0 0 1 .883-.28c.372-.093.744-.232 1.163-.371.418-.14.79-.28 1.162-.418.371-.14.652-.234.883-.326.186 1.07.652 1.906 1.395 2.51.744.604 1.58.883 2.604.883 1.115 0 2.045-.371 2.65-1.115.651-.744.976-1.72.976-2.929 0-.558-.046-1.07-.185-1.535-.093-.465-.326-.883-.605-1.254-.279-.373-.652-.652-1.115-.885-.465-.232-1.024-.325-1.721-.325h-2.046V24.99h2.091c1.07 0 1.907-.326 2.512-.93.604-.652.93-1.535.93-2.743 0-.977-.28-1.768-.883-2.325-.559-.605-1.395-.884-2.465-.884-1.022 0-1.907.326-2.557.93-.651.605-1.116 1.395-1.395 2.371l-3.998-1.441c.419-1.813 1.348-3.255 2.697-4.324 1.394-1.07 3.115-1.58 5.3-1.58 2.465 0 4.324.604 5.626 1.766 1.301 1.162 1.953 2.929 1.953 5.208 0 .418-.047.93-.14 1.488a6.528 6.528 0 0 1-.465 1.626c-.233.558-.512 1.07-.93 1.535a3.501 3.501 0 0 1-1.488 1.069v.139a4.244 4.244 0 0 1 1.581 1.023c.419.465.744.93 1.022 1.489.234.557.419 1.115.512 1.72.094.604.14 1.162.14 1.72 0 1.301-.187 2.464-.605 3.44-.371.977-.93 1.813-1.673 2.464-.698.652-1.581 1.162-2.558 1.535-1.066.346-2.18.519-3.3.512-2.186 0-3.952-.559-5.394-1.628-1.441-1.07-2.232-2.511-2.558-4.465l.001.002z"/>
</svg>
