<svg xmlns="http://www.w3.org/2000/svg" width="129" height="42" viewBox="0 0 129 42">
  <path fill-rule="evenodd" d="M5.95 24.194c-.483-.437-2.264 1.117-2.773 1.005-.51-.112-.012-1.396-.463-1.317-.612.105-.775 1.565-1.324 1.678C.504 25.9 0 24.547 0 22.933c0-1.613.563-3.372 2.482-4.499 1.92-1.125 4.76-1.412 6.965-.659 2.092-1.141 4.845-4.453 10.975-4.608 6.131-.155 8.426 2.967 9.73 2.22 1.303-.748 1.744-2.434 1.46-3.692-.543-2.412-1.596-3.723-2.44-5.87-.528-1.348-.557-3.128.11-4.433.298-.58 1.025-1.256 2.12-1.38 1.096-.125 1.384.813 2.151 1.069.767.256 2.405.413 2.533 1.009.128.595-1.838 1.063-2.284 1.014-1.044-.114-1.702.602-1.646 1.867.068 1.608.439 2.182 1.893 4.471 1.455 2.29 1.442 6.096-.416 8.752-.586.776-1.21 1.435-1.623 2.322-.333.71 0-.722 0 2.115s-1.403 4.202-3.237 4.801c-2.468.808-4.6.505-6.78.244-3.017-.363-5.377-.32-6.61 0-1.067.278-4.41 2.2-4.82 3.094-.219.483-1.398 5.507-1.614 6.61-.089.455-.039 1.36-.245 1.762-.226.447-2.976 2.214-3.91 2.577-.43.168-1.298.382-1.401.228-.609-.713-.607-.879 1.161-2.18-.617-1.305 1.165-1.624 1.688-2.267.572-.7 1.61-8.325 1.965-9.318.356-.993 1.744-1.335 2.306-2.218-.266-.313-.634-.146-1.61.132-.836.24-2.583.875-2.954.558-.37-.318.482-2.023 0-2.46m16.002 8.3c-.068-.65.32-3.857.32-3.857s.78.133 1.532.217c.752.085 1.963.152 1.963.152s-.653 2.406-.274 2.955c.876 1.27 5.665 4.404 6.763 5.662.551.56 1.112 1.102 1.797 1.591.485.42 2.049.468 2.46.888.275.303.611 1.187.443 1.346-.116.11-2.485.162-2.903.086-.452 0-.994-.444-.994-.444s-.336.358-.803.105c-.824-.419-.701-1.281-1.182-1.98-.275-.28-4.299-2.977-6.892-4.468-2.225-1.279-2.126-1.26-2.23-2.253m63.532 6.245h-2.75V24.213h2.75v5.357a3.959 3.959 0 0 1 3.226-1.612c2.663 0 4.633 2.091 4.633 5.51 0 3.528-1.992 5.532-4.633 5.532-1.256 0-2.404-.566-3.226-1.612v1.35zm0-3.376c.476.675 1.472 1.176 2.381 1.176 1.58 0 2.642-1.241 2.642-3.07 0-1.808-1.061-3.05-2.642-3.05-.91 0-1.905.523-2.381 1.22v3.724zm-5.478 3.376h-2.75V37.41a4.96 4.96 0 0 1-3.68 1.59c-2.295 0-3.377-1.263-3.377-3.31v-7.47h2.749v6.38c0 1.46.758 1.94 1.927 1.94 1.061 0 1.905-.589 2.381-1.199V28.22h2.75v10.519zM66.69 39c-1.927 0-2.944-1.002-2.944-2.896V24.212h2.75v11.151c0 .675.346 1.176.952 1.176.411 0 .801-.152.953-.327l.584 2.113c-.411.37-1.169.675-2.295.675zm-10.983 0C51.356 39 48 35.951 48 31.486c0-4.486 3.356-7.513 7.707-7.513 3.161 0 5.002 1.72 6.02 3.55l-2.642 1.307c-.606-1.176-1.905-2.113-3.378-2.113-2.64 0-4.546 2.025-4.546 4.77 0 2.744 1.905 4.769 4.546 4.769 1.473 0 2.772-.936 3.378-2.112l2.641 1.284C60.71 37.236 58.868 39 55.707 39zm67.729-15.791c-1.754 0-3.161-.501-4.373-1.568l1.234-1.982c.757.914 2.035 1.285 3.139 1.285 1.775 0 2.814-1.22 2.814-2.7v-1.09a4.96 4.96 0 0 1-3.68 1.59c-2.295 0-3.378-1.263-3.378-3.31V8.42h2.75v5.924c0 1.459.758 1.938 1.927 1.938 1.06 0 1.905-.588 2.381-1.198V8.421H129v9.822c0 3.158-2.23 4.966-5.564 4.966zm-9.288-4.269h-2.75V8.421h2.75v1.416c.758-.915 2.035-1.677 3.334-1.677v2.7a3.492 3.492 0 0 0-.758-.065c-.91 0-2.122.523-2.576 1.198v6.947zm-7.383-6.272c-.087-1.002-.78-2.243-2.598-2.243-1.71 0-2.446 1.198-2.555 2.243h5.153zM104.34 19.2c-3.183 0-5.586-2.156-5.586-5.531 0-3.05 2.252-5.51 5.413-5.51 3.14 0 5.24 2.352 5.24 5.771v.653h-7.773c.195 1.285 1.234 2.353 3.01 2.353.887 0 2.1-.37 2.77-1.024l1.235 1.83c-1.04.958-2.685 1.458-4.309 1.458zm-10.349-.26h-2.966l-4.2-10.52h2.944l2.728 7.318 2.75-7.318h2.945l-4.2 10.52zm-11.15 0h2.75V8.42h-2.75v10.52zm1.364-11.652c-.887 0-1.623-.74-1.623-1.655S83.318 4 84.205 4c.91 0 1.646.719 1.646 1.634a1.65 1.65 0 0 1-1.646 1.655zM79.334 19.2c-1.927 0-2.944-1.001-2.944-2.896V4.414h2.75v11.15c0 .675.345 1.177.952 1.177.411 0 .8-.153.952-.327l.585 2.112c-.411.37-1.169.675-2.295.675zm-7.578-6.533c-.086-1.002-.78-2.243-2.597-2.243-1.711 0-2.447 1.198-2.555 2.243h5.152zM69.332 19.2c-3.183 0-5.586-2.156-5.586-5.531 0-3.05 2.251-5.51 5.413-5.51 3.138 0 5.239 2.352 5.239 5.771v.653h-7.773c.195 1.285 1.234 2.353 3.01 2.353.887 0 2.1-.37 2.77-1.024l1.235 1.83c-1.04.958-2.685 1.458-4.308 1.458zM54.63 16.218c2.858 0 4.525-2.07 4.525-4.552 0-2.548-1.559-4.53-4.503-4.53H52.01v9.082h2.62zm.022 2.722h-5.716V4.414h5.694c4.525 0 7.664 2.896 7.664 7.252 0 4.4-3.14 7.274-7.642 7.274z" opacity=".15"/>
</svg>
