<svg xmlns="http://www.w3.org/2000/svg" width="179" height="24" viewBox="0 0 179 24">
  <g fill="#D9D9D9">
    <path d="M101.252 23.13 95.074 0H0v23.13zm32.259-16.884h6.474V23.13h6.94V6.246h6.476V0h-19.89zm34.694 10.638c-4.328 0-7.174-1.547-7.174-5.317 0-3.77 2.846-5.321 7.174-5.321h10.176V0h-10.176c-9.35 0-14.345 4.648-14.345 11.56 0 6.912 4.995 11.56 14.345 11.56h10.176v-6.236h-10.176z"/>
    <path d="m119.398 0-3.7 13.807L112 0H99.74v23.13h6.94V4.318l5.042 18.812h7.956l5.042-18.826V23.13h6.94V0z"/>
  </g>
</svg>
