<svg xmlns="http://www.w3.org/2000/svg" width="96" height="35" viewBox="0 0 96 35">
  <g fill-rule="evenodd" opacity=".15">
    <path d="M50.874.382h5.837v18.211l.213.06c.766-1.096 1.534-2.19 2.298-3.288 1.298-1.867 2.607-3.727 3.879-5.613.326-.484.675-.7 1.276-.69 2.05.036 4.1.014 6.348.014-.268.43-.428.71-.61.973-2.675 3.867-5.341 7.74-8.043 11.587-.398.568-.457.897.062 1.463 2.971 3.238 5.888 6.527 8.821 9.8.26.29.507.59.928 1.08h-2.205c-1.66 0-3.323.036-4.98-.028-.426-.016-.947-.249-1.238-.558-1.516-1.612-2.971-3.28-4.45-4.927-.285-.317-.58-.623-.896-.96-.901.982-1.56 1.942-1.41 3.318.11.997.022 2.016.022 3.09h-5.852V.382zM35.545 27.494c-.914 1.028-1.584 1.978-1.411 3.361.123.99.024 2.007.024 3.119-1.9 0-3.674.013-5.448-.023-.164-.003-.377-.298-.466-.501-.08-.181-.021-.424-.021-.639-.007-10.424-.015-20.85-.02-31.274-.002-1.214 0-1.216 1.187-1.217 1.2-.001 2.398-.002 3.598.002 1.177.003 1.178.005 1.178 1.227l-.008 15.96c0 .33 0 .66.183 1.082.192-.244.397-.48.575-.735 1.877-2.7 3.763-5.394 5.614-8.112.332-.487.676-.696 1.274-.685 2.048.036 4.096.014 6.41.014l-9.238 13.349L49.342 33.98c-1.625 0-2.961.01-4.297-.003-1.226-.012-2.597.286-3.634-.169-1.004-.44-1.667-1.662-2.472-2.548-1.114-1.228-2.22-2.462-3.394-3.766m-15.39-5.999c-.015-4.005-3.15-7.097-7.177-7.078-3.89.017-7.07 3.26-7.03 7.17.038 3.912 3.252 7.073 7.166 7.05 3.926-.024 7.056-3.199 7.041-7.142M13.22 8.455c7.203.091 12.996 5.99 12.91 13.146-.088 7.288-6.005 13.073-13.277 12.982C5.596 34.49-.096 28.516.002 21.09c.09-7 6.078-12.723 13.216-12.634"/>
    <path d="M75.149 21.434c-.047 3.901 3.108 7.145 7.007 7.205 3.955.06 7.225-3.114 7.258-7.046.033-3.888-3.093-7.135-6.916-7.184-4.07-.053-7.301 3.037-7.349 7.025m-5.906-.009c.087-7.298 5.91-13.024 13.173-12.955 7.254.069 12.98 5.944 12.889 13.227-.09 7.248-5.983 12.976-13.252 12.88-7.116-.093-12.895-6.027-12.81-13.152M8.574 2.979c.005 1.685-1.286 2.987-2.96 2.987-1.679 0-2.98-1.3-2.982-2.978A2.956 2.956 0 0 1 5.604 0c1.672 0 2.965 1.297 2.97 2.979m7.486.034c-.018 1.637-1.385 2.967-3.027 2.947-1.646-.02-3.001-1.39-2.971-3.004a3.008 3.008 0 0 1 3.03-2.948c1.641.008 2.985 1.369 2.968 3.005M20.546.015c1.658.011 2.955 1.345 2.938 3.02a2.946 2.946 0 0 1-2.948 2.92 2.945 2.945 0 0 1-2.988-2.977A2.947 2.947 0 0 1 20.546.015"/>
  </g>
</svg>
