<svg xmlns="http://www.w3.org/2000/svg" width="236" height="46" viewBox="0 0 236 46">
  <path fill="#D9D9D9" d="M38.187 24.524c0 5.493-2.883 10.421-7.528 12.861l-1.064.502c-.35.158-.73.243-1.114.25-.724 0-1.297-.307-1.641-.863-.275-.46-.347-.957-.244-1.52.164-.79.78-1.182.963-1.285 2.742-1.233 4.5-4.002 4.5-7.07V19.39c0-3.067-1.75-5.834-4.463-7.05-.009-.01-.817-.394-1-1.305-.104-.564-.03-1.065.244-1.517.344-.55.917-.867 1.64-.867.372 0 .764.085 1.108.248 0 0 1.007.472 1.045.488 4.668 2.453 7.553 7.383 7.553 12.874v2.263h.001zM17.97 34.47c.19.103.809.495.969 1.285.11.563.033 1.06-.241 1.52-.344.556-.918.862-1.647.862a2.81 2.81 0 0 1-1.108-.25l-1.069-.5c-4.64-2.44-7.525-7.369-7.525-12.862v-2.263c0-5.49 2.892-10.42 7.55-12.873.045-.017 1.044-.49 1.044-.49.348-.16.726-.245 1.108-.248.726 0 1.303.317 1.647.868.274.452.35.953.24 1.517-.183.911-.99 1.295-1 1.304-2.704 1.217-4.456 3.984-4.456 7.051v8.01c0 3.067 1.753 5.837 4.487 7.069h.001zM22.768.819C10.193.82 0 10.925 0 23.393 0 35.86 10.193 45.966 22.768 45.966c12.573 0 22.769-10.106 22.769-22.573C45.537 10.925 35.34.818 22.767.818V.82zm57.255 13.174h17.139v3.867h-1.238s-.208-1.983-2.17-1.983H90.76v17.867h-4.234V15.878H83.43c-1.652 0-2.067 1.357-2.163 1.982h-1.244v-3.867zm78.44 14.215c0 1.88-1.749 3.555-3.605 3.555h-3.518v-8.258h3.615c1.963 0 3.508 1.567 3.508 3.868v.835zm-2.06-6.686h-5.063v-7.526h-6.19v1.153s1.86.202 1.86 2.501v16.098h9.6c3.716 0 6.399-2.298 6.399-5.54v-.94c0-3.556-2.58-5.746-6.606-5.746zm6.926-7.529h6.194v19.75h-4.133V17.757c0-2.304-2.06-2.612-2.06-2.612v-1.15zM74.237 26.846c0 2.825-2.166 5.33-5.368 5.33-3.201 0-5.267-2.505-5.267-5.33v-6.27c0-2.826 2.375-5.014 5.267-5.014 3.202 0 5.368 2.301 5.368 5.12v6.163zm5.06-2.09v-1.358c0-5.017-3.927-9.72-10.428-9.72-7.33 0-10.324 5.748-10.324 9.517v1.667c0 4.39 4.234 9.2 10.324 9.2 5.679 0 10.428-4.283 10.428-9.306zm57.834 2.196c0 2.51-1.757 4.913-4.44 5.019h-.412c-2.372 0-4.443-1.78-4.748-3.656v-8.467c.204-1.988 2.166-4.181 4.748-4.181h.823s3.927.208 4.03 5.015v6.269zm-3.922-13.273c-2.379 0-4.647 1.045-5.678 2.507v-2.193h-6.198v1.147s1.962.318 1.962 2.51v25.092h4.236V31.655c1.958 2.3 4.539 2.407 5.366 2.407 5.474-.107 9.186-4.39 9.186-9.723v-1.257c0-5.746-3.508-9.403-8.874-9.403zm87.006 7.11c0-2.823 2.273-5.124 5.06-5.124 2.787 0 5.054 2.301 5.054 5.124v1.043h-10.114v-1.044.001zm5.574 11.392c-3.302 0-5.575-2.304-5.575-5.123V23.82h14.97c0-5.54-4.335-10.139-9.91-10.139-5.578 0-10.125 4.073-10.125 9.82v1.148c0 5.336 4.963 9.412 10.125 9.412 3.818 0 6.711-1.881 8.67-4.6l-1.754-.21c-1.547 1.675-3.507 2.929-6.4 2.929zm-107.163.206v1.361h-5.372l-3.822-7.315s-1.134-2.197-2.373-2.197h-1.547v9.512h-4.23V17.65c0-2.297-2.068-2.5-2.068-2.5v-1.153h6.297v8.252h1.862s1.236-.1 2.27-1.776c3.303-5.434 2.892-6.476 4.332-6.476h4.131v1.356c-2.888 0-3.717 5.954-6.504 7.838 1.344.522 1.862 1.78 4.853 7.32 0 0 .725 1.877 2.171 1.877zm89.602-18.394h3.098v19.75h-4.13v-13.79l-10.218 13.792h-3.1V17.65c0-2.298-1.96-2.61-1.96-2.61v-1.047h6.09v13.901l10.22-13.9zm-35.818 0h17.144v3.867h-1.242s-.206-1.983-2.168-1.983h-2.994v17.867h-4.232V15.878h-3.1c-1.647 0-2.065 1.357-2.167 1.982h-1.241v-3.867z"/>
</svg>
