<svg xmlns="http://www.w3.org/2000/svg" width="165" height="36" viewBox="0 0 165 36">
  <path fill="#D9D9D9" fill-rule="evenodd" d="M146.165 35.192h5.278L164.347 0h-5.279l-12.903 35.192zm-6.923-17.948c0-3.167-1.877-5.63-5.162-5.63-3.4 0-5.277 2.815-5.277 5.63 0 2.816 1.877 5.63 5.277 5.63 3.402 0 5.162-2.58 5.162-5.63zm-4.575-9.619c4.34 0 9.15 3.167 9.032 9.62 0 6.1-4.34 9.618-9.032 9.618-3.048 0-5.043-1.642-5.63-2.229v10.558h-5.043V8.094h4.926v1.994c.587-.703 2.464-2.463 5.747-2.463zm-26.98 7.625h8.564c-.117-1.056-.704-3.754-4.105-3.754a4.378 4.378 0 0 0-4.458 3.754zm4.576-7.625c5.63 0 8.915 4.106 8.915 9.62v.586c0 .234-.117 1.055-.117 1.055h-13.49c0 1.056 1.407 3.989 4.81 3.989 3.284 0 4.574-2.58 4.574-2.58l3.754 2.463s-2.463 4.105-8.329 4.105c-5.865 0-9.736-4.223-9.736-9.619s3.87-9.619 9.619-9.619zm-15.367 18.77h5.396l-6.687-18.3h-5.279l-6.803 18.3h5.513l3.871-11.614h.117l3.872 11.613zm-18.652-8.682c0-2.111-1.173-5.044-4.575-5.044s-4.81 2.346-4.81 4.927c0 2.58 1.408 5.279 4.81 5.279 3.402 0 4.575-3.05 4.575-5.162zm-4.106-9.619c4.106 0 9.15 2.698 9.15 9.502 0 4.692-3.285 9.385-9.736 9.385-6.804 0-9.62-5.28-9.62-11.731C63.932 3.402 69.563 0 76.836 0h5.514l-1.525 4.106h-4.106c-6.57 0-7.156 4.927-7.273 5.513a8.107 8.107 0 0 1 4.692-1.525zM50.09 15.836l-6.334-7.625-.118-.117h-4.34v18.3h5.044V15.72l4.927 6.217.117.235h1.29l5.045-6.452v10.675h5.044v-18.3h-4.34l-6.335 7.742zM30.383 18.77v-.586h-.352c-.822 0-1.643 0-2.464.117-2.933.352-4.106 1.173-4.106 2.58 0 .587.235 2.112 2.816 2.112 2.698 0 4.106-1.76 4.106-4.223zm4.692 3.52c0 2.58.234 4.105 0 4.105h-4.692s-.118-1.642-.118-1.76c-.469.587-2.229 2.112-5.279 2.112-3.402 0-6.569-2.112-6.569-5.865 0-6.804 10.44-6.218 11.73-6.218 0 0 .47-3.167-3.401-3.167-2.698 0-4.81 1.877-4.81 1.877L20.53 9.619c.82-.586 3.167-1.994 6.686-1.994 5.162 0 7.625 2.346 7.86 8.094v6.57zM12.669 8.562c0-3.05-2.933-4.105-4.927-4.223h-2.58v8.33h2.58c1.994 0 4.927-1.057 4.927-4.107zM8.211 0c5.28 0 9.737 2.933 9.737 8.563 0 5.748-4.458 8.564-9.854 8.564H5.28v9.384H0V0h8.211z"/>
</svg>
