<svg xmlns="http://www.w3.org/2000/svg" width="198" height="39" viewBox="0 0 198 39">
  <g fill="none" fill-rule="evenodd">
    <path fill="#D9D9D9" fill-rule="nonzero" d="M60.49 19.365c1.715 0 2.79-1.19 2.79-2.789 0-1.764-1.075-3.173-2.98-3.173h-7.777v5.962h7.967zm-.19-8.92c3.908 0 6.363 2.554 6.363 6.084 0 3.676-2.455 5.792-6.363 5.792h-7.777v6.009H49.21V10.444H60.3zm18.645 2.506c-4.151 0-6.99 2.812-6.99 6.414 0 3.695 2.72 6.436 6.99 6.436 4.244 0 6.936-2.764 6.936-6.436 0-3.602-2.692-6.414-6.936-6.414m0 15.88c-5.698 0-10.419-3.79-10.419-9.466 0-5.605 4.721-9.468 10.419-9.468 5.723 0 10.37 3.863 10.37 9.468 0 5.676-4.647 9.466-10.37 9.466m24.106-.022c-5.984 0-10.493-3.792-10.493-9.468 0-5.58 4.574-9.443 10.493-9.443 3.53 0 6.056 1.003 8.324 2.667l-1.77 2.628c-1.643-1.268-3.716-2.194-6.457-2.194-4.368 0-7.085 2.763-7.085 6.342 0 3.697 2.743 6.363 7.131 6.363 2.74 0 4.911-.881 6.555-2.14l1.766 2.62c-2.263 1.67-4.934 2.625-8.464 2.625m38.487-7.729h6.893l-3.437-7.25-3.456 7.25zm-1.382 2.909-2.05 4.341h-3.578l8.704-17.886h3.48l8.728 17.886h-3.577l-2.048-4.341h-9.659zm32.831 4.341v-7.65H161.28v7.65h-3.316V10.445h3.316v7.298h11.707v-7.298h3.317V28.33zm8.225 0V10.445h3.319v8.345l8.985-8.345h4.077l-9.25 8.61 9.632 9.275h-4.46l-8.984-8.68v8.68zm-54.684-2.985h-7.956V19.96h7.956c2.08 0 3.261 1.095 3.261 2.691 0 1.763-.938 2.694-3.261 2.694m-.19-8.344h-7.766v-3.77h12.797v-2.802h-16.113V28.3h11.082c3.907 0 6.596-2.123 6.596-5.648 0-3.67-2.69-5.65-6.596-5.65"/>
    <path stroke="#D9D9D9" stroke-width="2.183" d="M1.357 37.25h35.891V1.356H1.357z"/>
    <path stroke="#D9D9D9" stroke-width=".714" d="M1.108 19.365H37.25"/>
    <path fill="#D9D9D9" d="M7.629 20.396h23.35v-2.185H7.63z"/>
  </g>
</svg>
