<svg xmlns="http://www.w3.org/2000/svg" width="238" height="25" viewBox="0 0 238 25">
  <path fill="#D9D9D9" d="M18.76 21.705c-1.03 1.236-3.736 2.589-7.294 2.589-6.706-.03-11.177-4-11.177-10.647C.29 7.44 4.701 3.058 11.525 3.058c3.234 0 5.617 1 6.823 1.853v5.118c-1.235-1.824-3.736-3.589-6.823-3.589-4.5 0-7.265 2.912-7.265 7.235 0 4 2.441 7.148 7.176 7.236 3.588 0 6.118-1.647 7.324-3.735v4.53zm7.29-7.882v6.764h3.912c2.941 0 4.823-.852 4.823-3.588 0-2.47-1.647-3.176-4.823-3.176H26.05zM22.374 3.382h14.617v3.382h-10.94v3.676h4.029c5.646 0 8.529 2.118 8.529 6.647 0 4.53-3.353 6.882-8.617 6.882h-7.618V3.382zm32.773 11.676h-9.47v5.53h10.881v3.381H42V3.382h14.235v3.382H45.677v4.912h9.47zm8.817-8.294v7.412h3.441c3.412 0 5.176-1.118 5.176-3.912 0-2.53-1.529-3.5-5.117-3.5h-3.5zm0 10.794v6.411h-3.676V3.382h6.853c6.5 0 9.264 2.323 9.264 6.97 0 4.795-3.235 7.206-9.264 7.206h-3.177zM93.257 6.764v7.412h3.441c3.412 0 5.177-1.118 5.177-3.912 0-2.53-1.53-3.5-5.118-3.5h-3.5zm0 10.794v6.411h-3.676V3.382h6.852c6.5 0 9.265 2.323 9.265 6.97 0 4.795-3.235 7.206-9.265 7.206h-3.176zm28.926-2.5h-9.47v5.53h10.881v3.381h-14.558V3.382h14.235v3.382h-10.559v4.912h9.47zm19.494 5.529h6.999V3.382h3.676V23.97h-25.028V3.382H131v17.205h7V3.382h3.677zm28.49-5.529h-9.47v5.53h10.881v3.381H157.02V3.382h14.235v3.382h-10.558v4.912h9.47zm20.082 0h-11.265v8.911h-3.676V3.382h3.676v8.294h11.265V3.382h3.676v20.587h-3.676zm40.184-.882h3.735V6.764h-3.677c-3.441 0-5.176 1.118-5.176 3.912 0 2.5 1.53 3.5 5.118 3.5zm3.735 3.382h-3.411c-.59 0-1.119-.03-1.618-.059l-4.177 6.47h-4.294l4.824-7.146c-2.765-1.03-4-3.118-4-6.235 0-4.794 3.235-7.206 9.235-7.206h7.117V23.97h-3.676v-6.41zM219.73.214h-4.584l-12.147 16.263V3.38h-4.457v20.59h3.974zm-2.244 6.76V23.97h-3.677V11.945z"/>
</svg>
