<svg xmlns="http://www.w3.org/2000/svg" width="170" height="34" viewBox="0 0 170 34">
  <g fill-rule="evenodd" opacity=".15">
    <path d="M63.05 14.115v7.426c0 .586.087.966.262 1.142.232.234.652.352 1.26.352h.48c2.088 0 3.13-1.51 3.13-4.526 0-1.523-.245-2.606-.739-3.251-.55-.763-1.536-1.143-2.957-1.143H63.05zm-9.22-5.931c-.522-.381-1.334-.572-2.435-.572-1.74 0-2.973.644-3.698 1.934-.608 1.113-.913 2.928-.913 5.448 0 2.519.334 4.38 1 5.58.812 1.494 2.204 2.24 4.176 2.24 1.45 0 2.885-.351 4.306-1.054l.522 1.1c-1.653 1.024-3.595 1.537-5.828 1.537-5.452 0-8.177-2.915-8.177-8.744 0-6.121 2.827-9.183 8.481-9.183 2.175 0 3.842.263 5.002.79v3.604h-1.088l-.304-1.055c-.232-.732-.58-1.274-1.044-1.625zm17.31 2.372h-.913l-.218-.747c-.26-.85-.623-1.405-1.087-1.67l-2.305-.307h-2.392c-.494 0-.84.088-1.044.264-.087.146-.13.41-.13.79v4.13h.957c2.754 0 4.681.279 5.784.835 1.508.763 2.262 2.256 2.262 4.483 0 2.167-.61 3.719-1.827 4.657-1.044.763-2.712 1.142-5.001 1.142h-6.917v-.528c.465-.116.756-.264.87-.44l.175-1.009V8.71l-.174-.966c-.115-.204-.406-.336-.87-.396v-.57h12.83v3.778zm14.831 0h-.913l-.218-.747c-.289-.85-.652-1.405-1.087-1.67l-2.348-.307H79.49l-.696.176-.174.658v5.36h2.262c1.565 0 2.595-.175 3.088-.526v2.197c-.493-.351-1.523-.527-3.088-.527H78.62v6.502c0 .527.174.894.522 1.099l2.175.264h.478l2.349-.352c.406-.264.725-.908.956-1.933l.175-.66h1.087v4.043H73.967v-.528c.435-.116.711-.264.827-.44l.174-1.009V8.71l-.174-.966c-.116-.204-.392-.336-.827-.396v-.57h12.004v3.778zm7.525-2.548c-.174.116-.261.38-.261.79v7.338h1.74c1.072 0 1.826-.41 2.262-1.23.377-.732.565-1.846.565-3.34 0-2.49-1.03-3.734-3.089-3.734h-.434l-.783.176zm8.177 3.734c0 2.022-.61 3.471-1.829 4.35-1.042.762-2.667 1.143-4.87 1.143h-1.74v4.921l.173 1.01c.088.175.363.323.826.44v.527h-5.654v-.528l.783-.44.174-1.009V8.71l-.174-.966c-.116-.204-.377-.336-.783-.396v-.57h7.133c1.943 0 3.363.292 4.263.878 1.132.762 1.698 2.124 1.698 4.086zm6.175 2.373v7.426c0 .586.102.966.305 1.142.233.234.639.352 1.217.352h.522c1.104 0 1.915-.381 2.437-1.144.463-.701.696-1.83.696-3.382 0-1.523-.247-2.606-.74-3.251-.522-.763-1.494-1.143-2.915-1.143h-1.522zm8.177-3.559h-.958l-.218-.747c-.23-.85-.58-1.405-1.043-1.67l-2.391-.307h-2.305c-.523 0-.87.088-1.045.264-.144.146-.217.41-.217.79v4.13h.956c2.785 0 4.714.279 5.785.835 1.538.763 2.307 2.256 2.307 4.483 0 2.167-.61 3.719-1.829 4.657-1.072.763-2.738 1.142-5.001 1.142h-6.871v-.528l.826-.44.13-1.009V8.71l-.13-.966c-.116-.204-.391-.336-.826-.396v-.57h12.83v3.778zm8.785-.878-2.348 6.986h4.698l-2.35-6.986zm-2.043-2.33v-.57h4.958c.056.79.262 1.64.608 2.548l3.653 10.369c.61 1.816 1.202 3.296 1.783 4.438h-4.35l-1.868-6.239h-5.525l-1.174 4.13-.348 2.109h-3.131l5.566-13.006c.551-1.376.825-2.313.825-2.811.002-.557-.33-.88-.997-.968zM44.13 30.196H170v-1.713H44.13v1.713zM150.123 8.71v13.446l.174 1.01.783.44v.527h-5.654v-.528c.405-.116.696-.264.87-.44l.13-1.009V15.17h-6.611v6.986l.174 1.01c.117.175.377.323.781.44v.527h-5.697v-.528c.465-.116.753-.264.87-.44l.174-1.009V8.71l-.174-.966c-.117-.204-.405-.336-.87-.396v-.57h5.697v.57c-.405.059-.665.192-.781.396l-.174.966v5.317h6.611V8.71l-.13-.966c-.174-.204-.465-.336-.87-.396v-.57h5.654v.57c-.406.059-.666.192-.783.396l-.174.966zm8.351 0v13.446l.175 1.01c.115.175.377.323.78.44v.527h-5.609v-.528l.782-.44c.116-.174.174-.51.174-1.009V8.71l-.174-.966c-.115-.204-.377-.336-.782-.396v-.57h5.61v.57c-.405.059-.667.192-.781.396l-.175.966zm6.133-1.932h4.045c-.726.41-1.696 1.186-2.916 2.328l-4.043 4.174 2.218 3.207c2.32 3.34 4.35 5.889 6.089 7.646h-5.784c-.726-1.7-1.668-3.427-2.828-5.185l-2.609-3.954 2.261-2.9c2.029-2.665 3.22-4.438 3.567-5.316zM30.876 5.032 32 6.55 10.421 19 0 13.013l.475-1.908 9.946 5.726z"/>
    <path d="m24.173 0 2.033 1.042-15.785 9.11-7.35-4.209 1.254-1.518 6.096 3.513z"/>
    <path d="M28.022 2.212 29.535 3.6 10.421 14.62 1.167 9.24l.865-1.735 8.39 4.816z"/>
    <path d="M34.055 10.451c.63 1.81.945 3.706.945 5.69 0 1.985-.315 3.91-.945 5.777l-.43 1.184a18.239 18.239 0 0 1-3.735 5.69 17.27 17.27 0 0 1-5.583 3.764A16.877 16.877 0 0 1 17.479 34a16.71 16.71 0 0 1-6.829-1.444c-2.032-.876-3.879-2.131-5.54-3.764a17.301 17.301 0 0 1-3.736-5.69A18.268 18.268 0 0 1 0 16.142V14.96l10.65 6.171L33.11 8l.945 2.451z"/>
  </g>
</svg>
