<svg xmlns="http://www.w3.org/2000/svg" width="100" height="38" viewBox="0 0 100 38">
  <path fill="#D9D9D9" d="M86.803.626c3.737-.55 7.158.343 9.462 2.51 2.13 1.959 3.212 4.743 2.933 7.699-.49 5.466-3.177 9.867-10.719 17.121l-12.325.413s8.555-7.701 11.801-11.448c2.096-2.44 3.003-5.054 2.13-6.807-.558-1.1-1.78-1.65-3.28-1.581V.625l-.002.001zM61.56 4.957v7.117l10.683-1.135V3.48L61.56 4.959v-.002zm-8.73 32.212V6.162l7.332-1.034V37.17H52.83zM23.816 10.182V16.2l8.1-.894V9.082l-8.1 1.101zM17.148 37.17V11.111l5.62-.79V37.17h-5.62zM.668 13.38v5.33l14.524-1.581v-5.743L.667 13.38zm4.643 5.638V37.17h5.307V18.468l-5.307.55zm18.505 7.737v-6.12l5.307-.448v6.292l-5.307.276zm0 4.4v6.015h8.1v-6.258l-8.1.241v.002zm37.744-6.429v-7.254l7.018-.618v7.494l-7.018.378zm0 5.33v7.114h10.683v-7.46l-10.683.345zM34.046 37.17V8.773l6.39-.894v29.29h-6.39zm7.577-6.532v6.532h9.253v-6.806l-9.253.274zm32.995-.996.034 7.53h25v-8.253l-25.034.723zm.349-13.512C74.547 7.535 78.109 2.276 85.372.763l.034 8.044c-1.535.619-3.036 1.789-2.688 6.635l-7.752.687h.001z"/>
</svg>
